<?xml version="1.0" encoding="utf-8"?>
<!-- Generator: Adobe Illustrator 23.1.0, SVG Export Plug-In . SVG Version: 6.00 Build 0)  -->
<svg version="1.1" xmlns="http://www.w3.org/2000/svg" xmlns:xlink="http://www.w3.org/1999/xlink" x="0px" y="0px"
	 viewBox="0 0 2400 600" style="enable-background:new 0 0 2400 600;" xml:space="preserve">
<style type="text/css">
	.st0{fill:#FFFFFF;}
	.st1{fill:#B8D0E7;}
	.st2{fill:#B9474F;}
</style>
<g id="图层_2">
	<rect class="st0" width="2400" height="600"/>
</g>
<g id="图层_1">
	<g>
		<g>
			<g>
				<path class="st1" d="M133,183c2.6,1,5.8,2.8,7.5,4.2l-1.3,2.1c-1.6-1.4-4.8-3.2-7.4-4.4L133,183z M140.5,192.9l1.8,1.7
					c-2.1,4.2-4.9,9.3-7.3,13l-2-1.8C135,202.7,138.2,197.4,140.5,192.9z M135,172.1c2.7,1.1,6,2.9,7.6,4.3l-1.4,2.1
					c-1.6-1.4-4.9-3.4-7.6-4.6L135,172.1z M164.1,174.6l0.4-0.1l1.7,0.6c-1.5,9.5-4.6,16.7-8.8,22.1c3,3.8,6.8,6.8,11.3,8.7
					c-0.6,0.5-1.4,1.5-1.8,2.1c-4.5-2-8.2-5-11.2-8.8c-3.7,4.1-8.2,7-13,8.9c-0.3-0.7-1-1.7-1.5-2.2c4.8-1.8,9.2-4.6,12.9-8.8
					c-3.7-5.4-6.2-12.2-8-19.9h-1.8v-2.6H164.1z M155.8,195c3.4-4.6,6-10.5,7.4-17.8h-14.6C150.2,183.9,152.6,190,155.8,195z"/>
				<path class="st1" d="M182.5,172.3c-1.1,3.2-2.4,6.3-4,9.3v26.5h-2.4v-22.3c-1.1,1.7-2.2,3.2-3.4,4.6c-0.3-0.6-1.1-1.8-1.6-2.4
					c3.6-4,6.9-10.2,8.9-16.4L182.5,172.3z M192,195.1l0.7-2.7h-11.6v-2.2h27v2.2h-12.6l-1.1,2.7h11.9v10.3c0,1.2-0.2,1.9-1,2.3
					c-0.8,0.4-2.1,0.4-3.9,0.4c-0.1-0.6-0.4-1.5-0.8-2.2c1.4,0,2.4,0,2.8,0c0.4,0,0.4-0.1,0.4-0.5v-8.1h-4.7v10.3H197v-10.3h-4.6
					v10.3h-2.3v-10.3h-4.5v10.8h-2.4v-13H192z M193.2,177.7V175h-10v-2.2H206v2.2h-10.4v2.7h11.8v5.4h-2.2v-3.3h-9.6v9.4h-2.5v-9.4
					h-9.3v3.3h-2.1v-5.4H193.2z M191.7,186.1v1.7H184v-1.7H191.7z M191.7,182.2v1.7h-7v-1.7H191.7z M204.4,182.2v1.7h-7.3v-1.7
					H204.4z M205,186.1v1.7h-7.9v-1.7H205z"/>
				<path class="st1" d="M220,184.1v17l4-2.9c0.2,0.7,0.6,1.7,1,2.2c-6.6,5-7.5,5.8-8,6.6c-0.2-0.7-1-1.8-1.5-2.4
					c0.7-0.5,2-1.8,2-3.6v-14.4h-5.7V184L220,184.1L220,184.1z M216.2,172.1c2.1,1.9,4.8,4.5,6,6.2l-1.9,1.8
					c-1.2-1.7-3.8-4.5-5.9-6.4L216.2,172.1z M232.4,171.5v7.8h7.4v-7.8h2.7v7.8h5.1v2.6h-5.1v9.8h5.8v2.7h-5.8v13.7h-2.7v-13.7h-7.6
					c-0.4,5.4-1.9,10.3-6.3,13.8c-0.4-0.5-1.4-1.3-2.1-1.7c3.9-3.2,5.2-7.6,5.7-12.1h-6.2v-2.7h6.3v-2.1v-7.7h-5.5v-2.6h5.5v-7.8
					H232.4z M232.4,181.9v7.8v2h7.5v-9.8H232.4z"/>
				<path class="st1" d="M268.3,187.1v3.7h11.1v12.8c0,1.1,0.2,1.3,1.4,1.3c0.5,0,3,0,3.7,0c1.2,0,1.3-0.8,1.4-6
					c0.6,0.4,1.8,0.9,2.5,1.1c-0.2,6-1,7.4-3.7,7.4c-0.6,0-3.8,0-4.4,0c-2.8,0-3.7-0.8-3.7-3.8v-10.3h-8.4
					c-0.2,5.2-2.5,11.1-14.1,14.8c-0.4-0.6-1.2-1.6-1.8-2.2c10.7-3.4,12.9-8.4,13.2-12.6h-11v-2.5h11v-3.7H268.3z M269.7,171.2
					c0.9,1.4,1.9,3.3,2.4,4.6h14.8v6.4h-2.8v-4h-28.3v4.2h-2.7v-6.6h15.8c-0.5-1.3-1.3-2.8-2-3.9L269.7,171.2z M267.6,181.1
					c-3.4,2.8-7.8,5.4-11.7,6.9l-1.8-2c3.6-1.3,8.1-3.6,11.3-6.2L267.6,181.1z M274.6,179.9c4,1.7,9,4.4,11.7,6.4l-1.9,1.7
					c-2.5-1.9-7.5-4.8-11.5-6.6L274.6,179.9z"/>
				<path class="st1" d="M323.4,185.9v12h-12.1v3h16.6v2.3h-16.6v5h-2.8v-5h-16.7v-2.3h16.7v-3h-11.9v-12H323.4z M303.2,177.3
					c0.9,1.2,1.8,2.9,2.2,4.1h9c0.8-1.3,1.7-3,2.2-4.2l2.8,0.7c-0.7,1.2-1.4,2.5-2.1,3.6H328v2.2h-36v-2.2h10.6
					c-0.4-1.1-1.1-2.4-1.8-3.5L303.2,177.3z M310,170.9c0.8,1.2,1.7,2.8,2.2,4h13.3v2.2h-30.8v-2.2h14.6c-0.5-1.1-1.2-2.3-1.8-3.3
					L310,170.9z M299.3,190.9h21.4v-3h-21.4V190.9z M299.3,195.9h21.4v-3h-21.4V195.9z"/>
				<path class="st1" d="M344.4,172.2c-0.6,1.8-1.2,3.6-2,5.2h24.2c0,0,0,1.1,0,1.5c-0.7,19-1.3,25.6-3,27.6
					c-0.9,1.2-1.9,1.5-3.4,1.6s-4.4,0-7-0.1c0-0.8-0.4-2-0.9-2.8c3.1,0.2,5.9,0.2,7,0.2c0.8,0,1.4-0.1,1.9-0.6
					c1.5-1.5,2.2-8,2.7-24.9h-22.6c-2.1,4.2-4.6,7.8-7.2,10.6c-0.5-0.5-1.6-1.4-2.3-1.8c4.4-4.1,8-10.6,10.1-17.4L344.4,172.2z
					 M354.9,185.9v14.4h-13v2.9h-2.6v-17.3L354.9,185.9L354.9,185.9z M341.9,197.8h10.3v-9.4h-10.3V197.8z"/>
				<path d="M382.2,198.7c-0.4,1.6-1,3.3-1.7,5.1s-1.4,3.6-2.1,5.2h-2.9c1-3.7,1.7-7.3,2.3-10.8h4.1L382.2,198.7z"/>
				<path class="st1" d="M415.6,182.3h-3.8v-2.5h4.3c0.5-2.8,1-5.6,1.2-8.1l2.5,0.2c-0.3,2.4-0.8,5.2-1.3,7.9h5l0.4-0.1l1.6,0.2
					c-0.5,7.3-1.7,13-3.5,17.5c1.8,1.6,3.4,3.2,4.4,4.5l-1.6,2.2c-0.9-1.3-2.3-2.7-3.9-4.2c-1.9,3.7-4.4,6.3-7.5,8.2
					c-0.4-0.6-1.1-1.6-1.6-2.1c2.9-1.6,5.4-4.2,7.2-7.8c-2-1.7-4.2-3.4-6.2-4.7C413.7,190.5,414.7,186.5,415.6,182.3z M415.6,192.4
					c1.5,1,3,2.1,4.4,3.3c1.4-3.6,2.4-8.1,2.9-13.4H418C417.3,185.9,416.4,189.5,415.6,192.4z M426.2,186c0.8-0.2,1.6-1.2,2.6-2.6
					c1.1-1.4,4.5-6.8,6.5-12l2.8,0.8c-2.2,4.7-5,9.4-7.7,13.1l13.4-0.8c-1.2-2.1-2.7-4.3-4-6.2l2.1-1c2.8,3.4,5.6,8.1,6.8,11.2
					l-2.3,1.2c-0.3-0.8-0.8-1.8-1.3-2.8c-15.2,1.1-16.8,1.3-17.9,1.7C427,188,426.6,186.7,426.2,186z M446.1,192v16.1h-2.6v-1.7H431
					v1.8h-2.4V192H446.1z M443.6,203.9v-9.5H431v9.5H443.6z"/>
				<path class="st1" d="M485.4,174.3v30c0,1.8-0.4,2.7-1.8,3.2c-1.3,0.4-3.6,0.5-7.4,0.4c-0.1-0.7-0.6-1.9-1-2.6
					c2.9,0.1,5.6,0,6.4,0s1-0.3,1-1v-8.6h-11.2v12h-2.7v-12h-10.4c-0.6,4.5-2,9.1-5,12.6c-0.4-0.5-1.4-1.4-2-1.8
					c4.4-5,4.8-12.1,4.8-17.7v-14.6h29.3V174.3z M458.8,188.9c0,1.4,0,2.9-0.2,4.4h10.2v-7h-10V188.9z M458.8,183.7h10v-6.8h-10
					V183.7z M471.5,176.9v6.8h11.2v-6.8H471.5z M471.5,186.2v7h11.2v-7H471.5z"/>
				<path d="M521.2,171.8c-0.9,3.4-1.5,6.7-2,9.8h-3.8l-0.2-0.4c0.9-3.1,2-6.2,3.4-9.4L521.2,171.8L521.2,171.8z M528.6,171.8
					c-0.9,3.4-1.5,6.7-2,9.8h-3.8l-0.3-0.4c0.9-3.1,2-6.2,3.5-9.4L528.6,171.8L528.6,171.8z"/>
				<path class="st1" d="M544.4,172.2c-0.6,1.8-1.2,3.6-2,5.2h24.2c0,0,0,1.1,0,1.5c-0.7,19-1.3,25.6-3,27.6
					c-0.9,1.2-1.9,1.5-3.4,1.6s-4.4,0-7-0.1c0-0.8-0.4-2-0.9-2.8c3.1,0.2,5.9,0.2,7,0.2c0.8,0,1.4-0.1,1.9-0.6
					c1.5-1.5,2.2-8,2.7-24.9h-22.6c-2.1,4.2-4.6,7.8-7.2,10.6c-0.5-0.5-1.6-1.4-2.3-1.8c4.4-4.1,8-10.6,10.1-17.4L544.4,172.2z
					 M554.9,185.9v14.4h-13v2.9h-2.6v-17.3L554.9,185.9L554.9,185.9z M541.9,197.8h10.3v-9.4h-10.3V197.8z"/>
				<path class="st1" d="M580.3,184.1v17.2l3.8-3c0.3,0.7,0.7,1.7,1,2.2c-6.2,5.1-7.2,6-7.8,6.8l0,0c-0.3-0.6-1-1.5-1.5-1.9
					c0.6-0.5,1.9-1.8,1.9-3.8v-14.9h-6.1v-2.6H580.3z M576.1,172.5c2.2,1.8,4.9,4.2,6.2,5.8l-1.8,2c-1.3-1.7-4-4.3-6.1-6.1
					L576.1,172.5z M598.3,185.4v4.9c0,1.6-0.1,3.2-0.4,4.8h10v2.4h-10.6c-1.5,4-4.8,7.8-12.3,10.8c-0.3-0.6-1.1-1.6-1.6-2.1
					c6.4-2.4,9.5-5.6,11-8.7H584v-2.4h11.2c0.5-1.7,0.6-3.4,0.6-4.9v-4.8H598.3z M594.6,181.4v-3.8h-8.4v-2.3h8.4v-3.8h2.6v3.8h8.4
					v2.3h-8.4v3.8h8l0.4-0.1l1.7,0.4c-0.8,2.6-1.9,5.6-2.8,7.4l-2.2-0.6c0.6-1.2,1.3-3,1.8-4.8h-19.5v-2.3L594.6,181.4L594.6,181.4z
					 M586.2,189.1c2.1,1,4.7,2.7,5.9,4l-1.3,1.6c-1.2-1.3-3.8-3-5.9-4.2L586.2,189.1z M589.1,185.5c2.1,1,4.6,2.6,5.8,3.9l-1.4,1.6
					c-1.2-1.2-3.6-2.9-5.8-4L589.1,185.5z M599,199.2c3.2,2.1,7.3,5.2,9.2,7.4l-1.7,1.8c-1.9-2.2-5.9-5.4-9.2-7.6L599,199.2z"/>
				<path d="M617.4,172.2c-0.9,3.1-2,6.2-3.4,9.4h-2.6c0.8-3.4,1.5-6.6,2-9.8h3.8L617.4,172.2z M624.8,172.2c-0.9,3.1-2,6.2-3.4,9.4
					h-2.6c0.9-3.4,1.5-6.6,2-9.8h3.8L624.8,172.2z"/>
				<path d="M658.1,189.8c0-3.4,0.5-6.8,1.5-9.9c1-3.2,2.6-6.1,4.7-8.7h3.6c-2,2.7-3.5,5.6-4.5,8.8s-1.5,6.4-1.5,9.9
					c0,3.4,0.5,6.7,1.5,9.8c1,3.2,2.5,6.1,4.5,8.8h-3.5c-2.1-2.5-3.7-5.4-4.7-8.7C658.6,196.5,658.1,193.2,658.1,189.8z"/>
				<path class="st1" d="M683.3,172.3c-1,2.8-2.2,5.6-3.6,8.2v27.6H677V185c-1.2,1.9-2.6,3.6-3.9,5.1c-0.2-0.6-1-2-1.6-2.6
					c3.7-3.9,7.2-9.9,9.2-16L683.3,172.3z M708.4,175.5v2.6h-3v26.3c0,2-0.5,2.8-1.9,3.3c-1.4,0.4-4.1,0.5-8,0.5
					c-0.1-0.8-0.5-2-1-2.8c3.3,0.1,6.3,0.1,7.2,0s1.1-0.2,1.1-1V178h-19.2v-2.6h24.8V175.5z M697.2,183.9v13.7h-9.9v2.8h-2.5v-16.6
					h12.4V183.9z M687.3,195.2h7.4v-8.9h-7.4V195.2z"/>
				<path class="st1" d="M724.6,172.5c-1.2,3-2.7,5.9-4.4,8.7V208h-2.6v-23c-1.6,2.1-3.3,4-5,5.6c-0.3-0.6-1.2-2-1.6-2.7
					c4.5-3.9,8.6-9.9,11.1-16.3L724.6,172.5z M733.6,181.8V172h2.6v9.8H748v2.6h-10c2.6,6.5,6.9,13.1,11.1,16.5
					c-0.6,0.5-1.6,1.4-2,2.1c-4-3.6-8.1-10.1-10.8-16.7v21.9h-2.6v-21c-2.7,6.5-6.7,12.5-10.8,16c-0.5-0.7-1.4-1.6-2-2.1
					c4.4-3.4,8.8-10.1,11.3-16.7h-10v-2.6H733.6z"/>
				<path d="M773.3,189.8l9.4,18.6h-3.2l-9.4-18.6l9.4-18.6h3.2L773.3,189.8z M779.4,189.8l9.4,18.6h-3.2l-9.4-18.6l9.4-18.6h3.2
					L779.4,189.8z"/>
				<path class="st1" d="M806,173.5c-2.7,6.5-6.9,12.6-11.4,16.5c-0.6-0.5-1.8-1.5-2.5-1.9c4.6-3.6,8.6-9.4,11-15.4L806,173.5z
					 M795.5,202.6c1-0.2,2.2-1.5,3.6-3.4c1.6-1.8,6.5-8.8,9.7-15.5l2.9,1.2c-3.4,6.2-7.3,12.3-11.4,17l19.4-1.1
					c-1.7-2.4-3.5-4.8-5.2-6.8l2.5-1.2c3.6,4.2,7.7,9.9,9.7,13.5l-2.6,1.4c-0.7-1.3-1.6-2.8-2.7-4.4c-21.4,1.4-23.5,1.5-24.9,2
					C796.4,204.8,795.9,203.4,795.5,202.6z M828.5,187.7c-0.7,0.6-1.7,1.6-2.2,2.3c-4.2-3.8-9.4-10.5-12.4-16.6l2.6-1.1
					C819.1,178,824.3,184.5,828.5,187.7z"/>
				<path class="st1" d="M861.4,172.2c-1,2.1-2.3,4.4-3.4,6.2h7.9v2.6h-14.5v6.1h12.1v2.6h-12.1v6.4h16.5v2.6h-16.5v9.5h-2.8v-9.5
					h-16.3v-2.6h16.3v-6.4h-12.2v-2.6h12.2V181h-14.2v-2.6h8.3c-0.6-1.6-2-4.2-3.4-6l2.4-0.9c1.4,1.9,2.9,4.4,3.6,6l-2.1,0.9h12
					c1.2-2.1,2.6-5,3.4-7.1L861.4,172.2z"/>
				<path class="st1" d="M143.4,232.4c-1.2,3-2.6,6-4.2,8.7V268h-2.6v-22.9c-1.4,1.9-2.8,3.7-4.2,5.2c-0.3-0.6-1-2-1.5-2.6
					c4-3.9,7.8-10,10-16.1L143.4,232.4z M150.8,258.3c1.3,0.8,2.6,1.6,3.9,2.6c2.2-2.3,4.5-4.9,6.3-7h-14.4c0.8-2.1,1.6-4.7,2.4-7.6
					h-7.4v-2.5h8.2l1.4-5.1h-7.3v-2.5h8l1.2-4.6l2.6,0.4l-1.1,4.2h11.6v2.5H154l-1.4,5.1h15.6v2.5h-16.3l-1.5,5h13.1l0.4-0.2
					l1.9,1.2c-2.4,2.8-5.8,6.7-8.9,10c1.8,1.4,3.4,2.7,4.5,3.8l-2,2c-2.2-2.3-6.6-5.9-10.4-8.2L150.8,258.3z"/>
				<path d="M180.6,249.8l-9.4-18.6h3.2l9.4,18.6l-9.4,18.6h-3.2L180.6,249.8z M186.7,249.8l-9.4-18.6h3.2l9.4,18.6l-9.4,18.6h-3.2
					L186.7,249.8z"/>
				<path class="st1" d="M231.5,231.3c0.9,1.5,1.9,3.4,2.5,4.7h14v2.5h-30.5v8.6c0,6.2-0.5,15-3.9,21.1c-0.5-0.5-1.6-1.2-2.2-1.5
					c3.3-5.7,3.6-13.8,3.6-19.6V236h16c-0.6-1.3-1.3-2.8-2-4L231.5,231.3z M226.4,245.7c1.8,0.8,4,1.7,6,2.7
					c2.3-1.2,4.9-2.9,6.8-4.6h-17.9v-2.2h20.3l0.6-0.2l1.8,1.4c-2.4,2.4-5.9,5-9.3,6.8c1.2,0.6,2.4,1.2,3.2,1.7l-0.3,0.3h7.7
					l0.5-0.2l1.9,0.9c-2.2,2.8-4.4,6-6.6,8l-2.1-1.1c1.4-1.4,3-3.3,4.4-5.2h-9.2v11c0,1.7-0.4,2.4-1.8,2.8c-1.4,0.4-3.7,0.4-7.4,0.4
					c-0.1-0.8-0.6-1.8-1-2.5c3,0.1,5.7,0.1,6.5,0c0.8,0,1-0.2,1-0.8v-11H219v-2.4h14.6c-2.6-1.4-6-3-8.8-4.2L226.4,245.7z"/>
				<path class="st1" d="M254.6,263.7c0.9-0.2,1.8-1.3,3.1-3c1.2-1.4,4.6-6.6,7.3-11.9h-12.7v-2.7h35.5v2.7h-19.1
					c-2.7,5.2-6,10.3-9.3,14.3l20.8-1.7c-1.7-2.6-3.6-5.3-5.2-7.6l2.4-1.2c3.4,4.5,7.5,10.4,9.4,14.2l-2.6,1.5
					c-0.6-1.2-1.5-2.7-2.5-4.3c-22.4,1.9-24.6,2.1-26.1,2.7C255.5,266.1,255,264.5,254.6,263.7z M283.6,234.8v2.7h-27v-2.7H283.6z"
					/>
				<path d="M297.3,245c0-1.1,0.3-1.8,0.8-2.3c0.5-0.4,1.2-0.7,1.9-0.7c0.7,0,1.4,0.2,1.9,0.7c0.5,0.4,0.8,1.2,0.8,2.3
					s-0.3,1.8-0.8,2.3s-1.2,0.7-1.9,0.7c-0.7,0-1.4-0.2-1.9-0.7C297.5,246.8,297.3,246,297.3,245z M297.3,262.8
					c0-1.1,0.3-1.8,0.8-2.3c0.5-0.4,1.2-0.7,1.9-0.7c0.7,0,1.4,0.2,1.9,0.7s0.8,1.2,0.8,2.3c0,1.1-0.3,1.8-0.8,2.3s-1.2,0.7-1.9,0.7
					c-0.7,0-1.4-0.2-1.9-0.7C297.5,264.7,297.3,263.9,297.3,262.8z"/>
				<path d="M341.2,231.8c-0.9,3.4-1.5,6.7-2,9.8h-3.8l-0.2-0.4c0.9-3.1,2-6.2,3.4-9.4L341.2,231.8L341.2,231.8z M348.6,231.8
					c-0.9,3.4-1.5,6.7-2,9.8h-3.8l-0.3-0.4c0.9-3.1,2-6.2,3.5-9.4L348.6,231.8L348.6,231.8z"/>
				<path class="st1" d="M359.4,231.5v8.1h4.5v2.5h-4.5v9.2l4.4-1.4l0.4,2.5l-4.7,1.6v11c0,1.6-0.4,2.3-1.3,2.7
					c-0.9,0.4-2.4,0.5-4.9,0.5c-0.1-0.6-0.4-1.7-0.8-2.5c1.8,0,3.4,0,3.8,0c0.5,0,0.7-0.1,0.7-0.7v-10.2l-5,1.6l-0.5-2.6
					c1.5-0.4,3.4-1,5.5-1.7v-10h-5.2v-2.5h5.2v-8.1L359.4,231.5L359.4,231.5z M385.6,236.3c-1.2,2-2.5,4.2-3.8,6h5v2.2h-14l-0.4,3.4
					H388v2.3h-15.9c-0.2,1-0.3,2-0.6,2.9h11.6l0.5-0.1l1.5,0.7c-1.2,3.8-3.2,6.8-5.7,9c2.6,1.5,5.8,2.6,9.2,3.2
					c-0.6,0.5-1.3,1.6-1.7,2.3c-3.6-0.8-6.8-2.1-9.6-3.9c-2.6,1.8-5.6,3-8.9,3.9c-0.3-0.6-1-1.6-1.5-2.1c3.1-0.7,6-1.7,8.4-3.2
					c-2-1.6-3.7-3.5-5-5.6c-1.5,4.2-4,8.2-8,10.8c-0.4-0.6-1.2-1.5-1.8-1.9c5.8-3.6,8-10.1,9-16H364v-2.3h6l0.4-3.4H365v-2.2h14.4
					c1.4-2,2.9-4.8,3.8-6.8L385.6,236.3z M386.1,233.8c-5.4,1.2-14.1,1.9-21.1,2.1c0-0.6-0.4-1.5-0.6-2.1c6.9-0.3,15.5-1,20.2-2
					L386.1,233.8z M368.2,236.5c0.8,1.6,1.7,3.7,2,4.9l-2.2,0.8c-0.4-1.4-1.2-3.5-1.9-5.2L368.2,236.5z M377.5,261.5
					c2-1.6,3.5-3.7,4.6-6.2H372C373.2,257.7,375.1,259.7,377.5,261.5z M375.5,235.8c0.5,1.7,1,4,1.2,5.3l-2.3,0.6
					c-0.2-1.4-0.6-3.8-1.1-5.5L375.5,235.8z"/>
				<path class="st1" d="M409,242.4v-6.7h-14.8v-2.5h17.4V245h-13.5c-0.4,2.2-0.8,4.5-1.2,6.5h14.9c0,0,0,0.8-0.1,1.3
					c-0.7,9-1.4,12.6-2.7,14c-0.8,0.9-1.7,1.1-3.1,1.2c-1.3,0.1-3.8,0-6.4-0.1c-0.1-0.8-0.4-2-1-2.7c2.7,0.2,5.4,0.2,6.4,0.2
					c0.9,0,1.3,0,1.8-0.4c1-0.8,1.6-3.8,2.2-11h-15.3c0.8-3,1.6-7.8,2.2-11.5H409V242.4z M424.1,231.9v36.3h-2.6v-36.3L424.1,231.9
					L424.1,231.9z"/>
				<path class="st1" d="M443.3,232.4c-1.2,2.9-2.6,5.8-4.2,8.6v27.1h-2.6v-23c-1.4,1.9-2.8,3.7-4.3,5.2c-0.2-0.6-1-2-1.5-2.6
					c4-3.9,7.8-10,10.1-16.1L443.3,232.4z M448.6,235.4v9.8l6.3-2.4v-11.2h2.6v10.2l6.6-2.6l0.4-0.3l0.5-0.4l1.8,0.8l-0.1,0.5
					c0,7.3-0.1,13.2-0.5,15c-0.3,1.8-1.2,2.5-2.4,2.8c-1.1,0.3-2.8,0.3-4,0.2c-0.1-0.8-0.4-1.8-0.7-2.5c1.2,0.1,2.6,0,3.2,0
					c0.7,0,1.2-0.2,1.5-1.2c0.3-1.2,0.4-5.7,0.4-12.1l-6.6,2.6v14.9H455v-13.9l-6.3,2.5v14.4c0,2.3,0.6,2.8,3.4,2.8
					c1.4,0,8.8,0,10.7,0c2.5,0,2.9-1.1,3.2-5.9c0.7,0.5,1.7,0.9,2.5,1.1c-0.5,5.4-1.4,7.2-5.7,7.2c-1.1,0-9.7,0-10.8,0
					c-4.7,0-6-1.1-6-5.3V249l-4.1,1.6l-1-2.4l5.1-2v-10.8L448.6,235.4L448.6,235.4z"/>
				<path class="st1" d="M471.4,245.4c0.7-0.2,1.4-1.1,2.3-2.5c1-1.3,4-6.6,5.8-11.4l2.6,1.2c-1.9,4.3-4.4,8.8-6.9,12.3l5.8-0.6
					c1-1.4,1.9-2.9,2.7-4.4l2.4,1.4c-2.8,4.5-6,8.9-9.3,12.5l8.4-1.5c-0.1,0.7-0.1,1.8,0,2.4c-10.3,2.1-11.6,2.4-12.5,3
					c-0.2-0.6-0.6-1.9-0.9-2.6c0.9-0.2,1.8-1.2,3.2-2.6c0.8-0.8,2.6-3,4.5-5.6c-5.4,0.7-6.4,1-7,1.3
					C472.2,247.5,471.8,246.1,471.4,245.4z M485,259.7l0.3,2.4c-4.6,1.2-9.5,2.4-13.1,3.4l-0.6-2.7C475,262.2,480,260.9,485,259.7z
					 M503,233.7l0.5-0.1l1.9,1c-1.6,3.2-4,6-6.9,8.4c3.6,1.5,7.7,3.5,10,4.9l-1.6,2.2c-2.3-1.6-6.7-3.8-10.5-5.5
					c-3.3,2.4-7,4.3-10.6,5.6c-0.4-0.6-1.1-1.7-1.6-2.2c6.4-2.2,13.4-6.5,17.1-11.9H487v-2.4H503z M506.5,251.8v2.5H498v10.2h10.4
					v2.5h-23.6v-2.5h10.5v-10.2h-8.1v-2.5H506.5z"/>
				<path d="M522.2,258.7c-0.4,1.6-1,3.3-1.7,5.1s-1.4,3.6-2.1,5.2h-2.9c1-3.7,1.7-7.3,2.3-10.8h4.1L522.2,258.7z"/>
				<path class="st1" d="M571.2,231.5v7.2h13.3v2.7h-13.3v2.6c0,1.9-0.1,3.8-0.3,5.7h17v2.7h-15.4c2.7,7,8.1,11.6,16.3,13.5
					c-0.6,0.6-1.4,1.7-1.8,2.4c-8.4-2.2-13.8-7.2-16.9-15c-1.8,5.9-6.1,11.3-16.6,15c-0.3-0.7-1.1-1.8-1.7-2.3
					c9.9-3.4,14-8.3,15.6-13.6h-15.2v-2.7H568c0.3-1.9,0.4-3.8,0.4-5.7v-2.6h-9.3c-1.2,2.5-2.6,4.7-4,6.5c-0.6-0.4-1.9-1.1-2.6-1.4
					c3.2-3.4,5.7-8.8,7.2-14.3l2.8,0.6c-0.6,2-1.3,4-2.1,6h8v-7.2h2.8V231.5z"/>
				<path class="st1" d="M607,262.1c-3.6,2.2-9,4.6-13.4,6c-0.4-0.6-1.2-1.5-1.8-2c4.4-1.3,9.9-3.6,12.7-5.6L607,262.1z
					 M620.3,231.5v4.8h6.5v2.5h-6.5v18.3h7.5v2.5h-35.6v-2.5h7.5v-18.3h-6.4v-2.5h6.4v-4.8h2.6v4.8h15.3v-4.8H620.3z M602.3,243.1
					h15.3v-4.3h-15.3V243.1z M602.3,250.1h15.3v-4.6h-15.3V250.1z M617.6,257.1v-4.7h-15.3v4.7H617.6z M614.9,260.6
					c4.8,1.7,9.8,3.9,13,5.6l-2.4,1.8c-2.9-1.7-7.7-3.9-12.4-5.7L614.9,260.6z"/>
				<path class="st1" d="M644.4,232.2c-0.6,1.8-1.2,3.6-2,5.2h24.2c0,0,0,1.1,0,1.5c-0.7,19-1.3,25.6-3,27.6
					c-0.9,1.2-1.9,1.5-3.4,1.6s-4.4,0-7-0.1c0-0.8-0.4-2-0.9-2.8c3.1,0.2,5.9,0.2,7,0.2c0.8,0,1.4-0.1,1.9-0.6
					c1.5-1.5,2.2-8,2.7-24.9h-22.6c-2.1,4.2-4.6,7.8-7.2,10.6c-0.5-0.5-1.6-1.4-2.3-1.8c4.4-4.1,8-10.6,10.1-17.4L644.4,232.2z
					 M654.9,245.9v14.4h-13v2.9h-2.6v-17.3L654.9,245.9L654.9,245.9z M641.9,257.8h10.3v-9.4h-10.3V257.8z"/>
				<path class="st1" d="M680.3,244.1v17.2l3.8-3c0.3,0.7,0.7,1.7,1,2.2c-6.2,5.1-7.2,6-7.8,6.8l0,0c-0.3-0.6-1-1.5-1.5-1.9
					c0.6-0.5,1.9-1.8,1.9-3.8v-14.9h-6.1v-2.6L680.3,244.1L680.3,244.1z M676.1,232.5c2.2,1.8,4.9,4.2,6.2,5.8l-1.8,2
					c-1.3-1.7-4-4.3-6.1-6.1L676.1,232.5z M698.3,245.4v4.9c0,1.6-0.1,3.2-0.4,4.8h10v2.4h-10.6c-1.5,4-4.8,7.8-12.3,10.8
					c-0.3-0.6-1.1-1.6-1.6-2.1c6.4-2.4,9.5-5.6,11-8.7H684v-2.4h11.2c0.5-1.7,0.6-3.4,0.6-4.9v-4.8L698.3,245.4L698.3,245.4z
					 M694.6,241.4v-3.8h-8.4v-2.3h8.4v-3.8h2.6v3.8h8.4v2.3h-8.4v3.8h8l0.4-0.1l1.7,0.4c-0.8,2.6-1.9,5.6-2.8,7.4l-2.2-0.6
					c0.6-1.2,1.3-3,1.8-4.8h-19.5v-2.3L694.6,241.4L694.6,241.4z M686.2,249.1c2.1,1,4.7,2.7,5.9,4l-1.3,1.6c-1.2-1.3-3.8-3-5.9-4.2
					L686.2,249.1z M689.1,245.5c2.1,1,4.6,2.6,5.8,3.9l-1.4,1.6c-1.2-1.2-3.6-2.9-5.8-4L689.1,245.5z M699,259.2
					c3.2,2.1,7.3,5.2,9.2,7.4l-1.7,1.8c-1.9-2.2-5.9-5.4-9.2-7.6L699,259.2z"/>
				<path d="M717.4,232.2c-0.9,3.1-2,6.2-3.4,9.4h-2.6c0.8-3.4,1.5-6.6,2-9.8h3.8L717.4,232.2z M724.8,232.2c-0.9,3.1-2,6.2-3.4,9.4
					h-2.6c0.9-3.4,1.5-6.6,2-9.8h3.8L724.8,232.2z"/>
				<path d="M737.8,255.3c1.7,0,3.2,0.6,4.3,1.8c1.2,1.2,1.8,2.6,1.8,4.3c0,1.7-0.6,3.2-1.8,4.3s-2.6,1.8-4.3,1.8s-3.1-0.6-4.3-1.8
					s-1.8-2.6-1.8-4.3c0-1.7,0.6-3.1,1.8-4.3C734.7,255.9,736.1,255.3,737.8,255.3z M737.8,265.4c1.1,0,2.1-0.4,2.9-1.2
					c0.8-0.8,1.2-1.8,1.2-2.9s-0.4-2-1.2-2.8s-1.8-1.2-2.9-1.2c-1.1,0-2,0.4-2.8,1.2c-0.8,0.8-1.2,1.7-1.2,2.8
					c0,1.1,0.4,2.1,1.2,2.9S736.7,265.4,737.8,265.4z"/>
				<path d="M773.3,249.8l9.4,18.6h-3.2l-9.4-18.6l9.4-18.6h3.2L773.3,249.8z M779.4,249.8l9.4,18.6h-3.2l-9.4-18.6l9.4-18.6h3.2
					L779.4,249.8z"/>
				<path class="st1" d="M825,233.4v31.2c0,1.8-0.5,2.6-1.7,3s-3.3,0.4-7,0.4c-0.1-0.7-0.5-1.8-0.9-2.5c2.7,0.1,5.2,0,5.9,0
					s1-0.2,1-1v-28.7h-23.6v10.3c0,6.6-0.6,15.9-5.2,22.2c-0.4-0.5-1.5-1.4-2.1-1.7c4.2-5.9,4.7-14.2,4.7-20.4v-12.8L825,233.4
					L825,233.4z M811.4,236.7v3.6h7.8v2.2h-7.8v4.2h8.8v2.2h-19.8v-2.2h8.4v-4.2h-7.4v-2.2h7.4v-3.6H811.4z M818,252.5V263h-13v2.2
					h-2.5v-12.7L818,252.5L818,252.5z M805,260.8h10.6v-6H805V260.8z"/>
				<path class="st1" d="M845.7,238.4l0.5-0.1l1.4,1c-1.3,3-3.1,5.9-5.2,8.6c1.7,1.6,5.5,5.6,6.6,6.7l-1.7,2.2
					c-1-1.4-3.4-4.2-5.3-6.2v17.6h-2.6v-17c-2.2,2.2-4.4,4-6.7,5.5c-0.2-0.7-0.9-2-1.3-2.5c4.9-2.8,10-7.9,12.8-13.3H833v-2.5
					L845.7,238.4L845.7,238.4z M839.6,231.5c1.6,1.7,3.4,4,4.2,5.5l-2.2,1.4c-0.8-1.6-2.5-4-4-5.7L839.6,231.5z M855.1,231.9v30.3
					c0,2.1,0.3,2.5,2.2,2.5c0.9,0,5.1,0,6.2,0c1.8,0,2.1-1.5,2.3-7.4c0.6,0.5,1.7,1,2.4,1.2c-0.3,6.5-1,8.7-4.6,8.7
					c-0.8,0-5.9,0-6.6,0c-3.6,0-4.6-1.1-4.6-5v-30.3L855.1,231.9L855.1,231.9z"/>
				<path d="M880.6,249.8l-9.4-18.6h3.2l9.4,18.6l-9.4,18.6h-3.2L880.6,249.8z M886.7,249.8l-9.4-18.6h3.2l9.4,18.6l-9.4,18.6h-3.2
					L886.7,249.8z"/>
				<path class="st1" d="M133.2,302.9c2.5,1.1,5.7,2.9,7.4,4.1l-1.5,2.2c-1.6-1.3-4.8-3.2-7.4-4.4L133.2,302.9z M140.6,312.9
					l1.9,1.8c-2.1,4.2-5,9.3-7.3,13l-2.2-1.8C135.1,322.8,138.2,317.5,140.6,312.9z M135.3,291.9c2.5,1.2,5.9,3,7.6,4.2l-1.6,2.2
					c-1.7-1.3-5-3.2-7.6-4.5L135.3,291.9z M167.4,299.1v2.6h-10.8v9.4h9.3v2.6h-9.3v10.7h11.7v2.6H142v-2.6h12v-10.7h-9.2v-2.6h9.2
					v-9.4h-10.7v-2.6H167.4z M154.4,291.3c1.4,2,3,4.8,3.6,6.5l-2.6,1.1c-0.6-1.8-2-4.6-3.4-6.7L154.4,291.3z"/>
				<path d="M177.3,305c0-1.1,0.3-1.8,0.8-2.3c0.5-0.4,1.2-0.7,1.9-0.7s1.4,0.2,1.9,0.7c0.5,0.4,0.8,1.2,0.8,2.3
					c0,1.1-0.3,1.8-0.8,2.3s-1.2,0.7-1.9,0.7s-1.4-0.2-1.9-0.7C177.5,306.8,177.3,306,177.3,305z M177.3,322.8
					c0-1.1,0.3-1.8,0.8-2.3c0.5-0.4,1.2-0.7,1.9-0.7s1.4,0.2,1.9,0.7s0.8,1.2,0.8,2.3c0,1.1-0.3,1.8-0.8,2.3s-1.2,0.7-1.9,0.7
					s-1.4-0.2-1.9-0.7C177.5,324.7,177.3,323.9,177.3,322.8z"/>
				<path d="M221.2,291.8c-0.9,3.4-1.5,6.7-2,9.8h-3.8l-0.2-0.4c0.9-3.1,2-6.2,3.4-9.4H221.2z M228.6,291.8c-0.9,3.4-1.5,6.7-2,9.8
					h-3.8l-0.3-0.4c0.9-3.1,2-6.2,3.5-9.4H228.6z"/>
				<path class="st1" d="M251,292.5c-1.1,2.2-2.3,4.7-3.5,6.6h4.9v2.5h-7.9v2.8c0,1.5,0,3.3-0.2,5.2h9.2v2.5h-9.6l-0.4,2
					c3.4,3,7.3,7,9.2,9.7l-2,1.7c-1.6-2.4-4.9-6-8-8.9c-1.5,3.9-4.2,7.9-8.8,11.5c-0.4-0.5-1.4-1.3-2.1-1.7
					c6.2-4.4,8.6-9.6,9.6-14.3h-9.2v-2.5h9.6c0.2-1.9,0.2-3.7,0.2-5.2v-2.8h-8.5v-2.5h11.4c1.3-2.1,2.7-5.2,3.5-7.4L251,292.5z
					 M237.9,291.8c1.5,1.8,3,4.1,3.6,5.8l-2.4,1.1c-0.6-1.6-2.1-4.1-3.4-5.9L237.9,291.8z M266.2,293.6l0.4-0.1l2,1.2
					c-1.6,3.8-3.8,8.4-5.7,12.1c4.2,3.8,5.2,7,5.3,9.8c0,2.4-0.6,4.2-2,5.2c-0.7,0.4-1.6,0.7-2.6,0.8c-1,0.1-2.4,0.1-3.5,0
					c0-0.8-0.3-1.9-0.8-2.6c1.2,0.1,2.4,0.1,3.3,0.1c0.7,0,1.3-0.2,1.8-0.5c0.9-0.6,1.2-1.8,1.2-3.3c0-2.6-1.2-5.6-5.4-9.2
					c1.8-3.5,3.6-7.9,4.9-11.1h-7.7v32h-2.6v-34.6h11.4V293.6z"/>
				<path class="st1" d="M305.4,294.1v29.8c0,2-0.4,2.9-1.8,3.4s-3.8,0.5-7.4,0.5c-0.1-0.8-0.5-2.1-1-3c2.9,0.1,5.6,0.1,6.5,0
					c0.8,0,1-0.2,1-1v-27.3h-29.1v-2.6h31.8V294.1z M298,301.1v2.4h-24.2v-2.4H298z M295.1,308.1v12.6h-16v3h-2.6v-15.6H295.1z
					 M279.1,318.4h13.4v-7.9h-13.4V318.4z"/>
				<path class="st1" d="M318.5,325.7c0.7-0.3,1.8-1,1.8-2.6v-10.3c-2.1,1.5-4.4,2.8-7,3.8c-0.4-0.6-1.4-1.7-2-2.2
					c8.2-3,13.4-7.9,16.6-15.4h-11.4v5.6h-2.6v-8.1h15c0.6-1.6,1-3.3,1.4-5.2l2.7,0.5c-0.4,1.6-0.8,3.2-1.3,4.6h14.5v8.1h-2.7v-5.6
					h-12.7l-0.4,1.1c1.1,4.6,2.6,8.8,4.6,12.5c2.6-1.8,5.8-4.3,7.7-6.3l2.1,1.8c-2.4,2.2-5.8,4.8-8.5,6.6c3,4.7,7,8.3,12.2,10.4
					c-0.6,0.5-1.5,1.5-1.9,2.3c-9.2-4.2-14.7-12.6-17.9-23.8c-1.6,2.8-3.4,5.1-5.7,7.2V324l9.5-2.8c0,0.8,0.1,1.9,0.2,2.4
					c-10.7,3.4-12.1,3.8-13,4.4C319.6,327.5,319,326.3,318.5,325.7z"/>
				<path class="st1" d="M360.3,304.1v17.2l3.8-3c0.3,0.7,0.7,1.7,1,2.2c-6.2,5.1-7.2,6-7.8,6.8l0,0c-0.3-0.6-1-1.5-1.5-1.9
					c0.6-0.5,1.9-1.8,1.9-3.8v-14.9h-6.1v-2.6L360.3,304.1L360.3,304.1z M356.1,292.5c2.2,1.8,4.9,4.2,6.2,5.8l-1.8,2
					c-1.3-1.7-4-4.3-6.1-6.1L356.1,292.5z M378.3,305.4v4.9c0,1.6-0.1,3.2-0.4,4.8h10v2.4h-10.6c-1.5,4-4.8,7.8-12.3,10.8
					c-0.3-0.6-1.1-1.6-1.6-2.1c6.4-2.4,9.5-5.6,11-8.7H364v-2.4h11.2c0.5-1.7,0.6-3.4,0.6-4.9v-4.8L378.3,305.4L378.3,305.4z
					 M374.6,301.4v-3.8h-8.4v-2.3h8.4v-3.8h2.6v3.8h8.4v2.3h-8.4v3.8h8l0.4-0.1l1.7,0.4c-0.8,2.6-1.9,5.6-2.8,7.4l-2.2-0.6
					c0.6-1.2,1.3-3,1.8-4.8h-19.5v-2.3H374.6z M366.2,309.1c2.1,1,4.7,2.7,5.9,4l-1.3,1.6c-1.2-1.3-3.8-3-5.9-4.2L366.2,309.1z
					 M369.1,305.5c2.1,1,4.6,2.6,5.8,3.9l-1.4,1.6c-1.2-1.2-3.6-2.9-5.8-4L369.1,305.5z M379,319.2c3.2,2.1,7.3,5.2,9.2,7.4
					l-1.7,1.8c-1.9-2.2-5.9-5.4-9.2-7.6L379,319.2z"/>
				<path d="M422.6,301.1c0.9-3.1,2-6.2,3.4-9.4h2.6c-0.9,3.4-1.5,6.7-2,9.8h-3.8L422.6,301.1z"/>
				<path class="st1" d="M468.4,325.5c-0.6,0.6-1.4,1.7-1.8,2.4c-8.7-2.4-14-7.9-17-16.2c-2,7-6.4,13-15.7,16.4
					c-0.3-0.6-1.1-1.6-1.8-2.2c16.7-6,16.3-19.9,16.4-34.1h2.9c0,5.2-0.1,10.4-0.8,15.3h0.2C453.2,316.7,458.7,323.2,468.4,325.5z
					 M441.2,300.4c-1,4-2.7,8.9-5.3,11.8l-2.5-1.3c2.6-2.9,4.3-7.5,5.2-11.3L441.2,300.4z M466.4,300.7c-1.8,3.8-4.2,8.4-6.2,11.3
					l-2.2-1c1.9-3,4.3-7.9,5.6-11.4L466.4,300.7z"/>
				<path d="M477.4,292.2c-0.9,3.1-2,6.2-3.4,9.4h-2.6c0.9-3.4,1.5-6.6,2-9.8h3.8L477.4,292.2z"/>
				<path class="st1" d="M511.4,305.5c0.7-0.1,1.5-1.1,2.4-2.5c1-1.4,4.1-6.7,6-11.7l2.5,1.2c-2,4.4-4.5,9-7,12.5l5.7-0.6
					c0.9-1.4,1.8-2.8,2.6-4.3l2.2,1.3c-2.8,4.6-6,9.1-9.3,12.7l9.4-1.8c0,0.7,0,1.7,0,2.3c-11.2,2.2-12.5,2.6-13.4,3.1
					c-0.1-0.6-0.5-1.8-0.8-2.4c0.8-0.2,1.8-1.2,3.1-2.6c0.8-0.8,2.6-3,4.5-5.8c-5.4,0.7-6.4,1-7,1.3
					C512.2,307.5,511.7,306.2,511.4,305.5z M526.1,319.7l0.2,2.3c-5,1.2-10.3,2.5-14.2,3.5l-0.5-2.6
					C515.2,322.3,520.7,321,526.1,319.7z M535,291.7c-0.5,1.3-1,2.6-1.6,3.8h7.7l0.5-0.2l1.7,1.2c-1,2.1-2.4,4.4-3.8,6.2h6.5v12.4
					h-15.8v7.8c0,1.8,0.5,2.2,3.2,2.2c1.2,0,8,0,9.6,0c2.2,0,2.6-0.9,2.8-5.3c0.6,0.4,1.7,0.9,2.4,1c-0.4,5.1-1.3,6.7-5.1,6.7
					c-1,0-8.9,0-9.8,0c-4.3,0-5.6-0.9-5.6-4.6v-18.5l-1,1.2c-0.4-0.4-1.5-1.3-2-1.7c3.2-3.2,6.1-8,7.9-12.8L535,291.7z M532.1,297.9
					c-1,1.7-2,3.3-3,4.8h7.8l-0.1-0.1c1-1.2,2.1-3.1,2.9-4.7L532.1,297.9L532.1,297.9z M530.2,305.1v7.7h5.5v-7.7H530.2z M538,312.8
					h5.4v-7.7H538V312.8z"/>
				<path class="st1" d="M559.9,320c7.4-4.2,15.5-11.7,20-17.8h-25.8v-2.6h27.8l0.6-0.2l2,1.3c-4.9,7.4-14,15.8-22.2,20.8l1.3,0.9
					c2.5,1.6,5.8,1.9,10.3,1.9c4.8,0,10.7-0.3,14.6-0.7c-0.3,0.7-0.7,2.2-0.8,2.9c-3,0.2-10,0.4-13.8,0.4c-4.9,0-8.2-0.4-10.8-2.2
					c-1.6-1-2.9-2.4-3.7-2.4c-1.3,0-3.2,2.3-5.2,5l-2-2.4c2.6-2.9,5.2-5.1,7.2-5.1C559.4,319.9,559.7,319.9,559.9,320z M569.1,291.3
					c1.6,2.1,3.5,4.9,4.4,6.5l-2.5,1.4c-0.8-1.8-2.6-4.7-4.2-6.8L569.1,291.3z"/>
				<path d="M597.4,292.2c-0.9,3.1-2,6.2-3.4,9.4h-2.6c0.8-3.4,1.5-6.6,2-9.8h3.8L597.4,292.2z M604.8,292.2c-0.9,3.1-2,6.2-3.4,9.4
					h-2.6c0.9-3.4,1.5-6.6,2-9.8h3.8L604.8,292.2z"/>
				<path d="M617.8,315.3c1.7,0,3.2,0.6,4.3,1.8c1.2,1.2,1.8,2.6,1.8,4.3c0,1.7-0.6,3.2-1.8,4.3s-2.6,1.8-4.3,1.8s-3.1-0.6-4.3-1.8
					s-1.8-2.6-1.8-4.3c0-1.7,0.6-3.1,1.8-4.3S616.1,315.3,617.8,315.3z M617.8,325.4c1.1,0,2.1-0.4,2.9-1.2c0.8-0.8,1.2-1.8,1.2-2.9
					s-0.4-2-1.2-2.8s-1.8-1.2-2.9-1.2c-1.1,0-2,0.4-2.8,1.2c-0.8,0.8-1.2,1.7-1.2,2.8c0,1.1,0.4,2.1,1.2,2.9
					S616.7,325.4,617.8,325.4z"/>
				<path class="st1" d="M660.3,304.1v17.2l3.8-3c0.3,0.7,0.7,1.7,1,2.2c-6.2,5.1-7.2,6-7.8,6.8l0,0c-0.3-0.6-1-1.5-1.5-1.9
					c0.6-0.5,1.9-1.8,1.9-3.8v-14.9h-6.1v-2.6L660.3,304.1L660.3,304.1z M656.1,292.5c2.2,1.8,4.9,4.2,6.2,5.8l-1.8,2
					c-1.3-1.7-4-4.3-6.1-6.1L656.1,292.5z M678.3,305.4v4.9c0,1.6-0.1,3.2-0.4,4.8h10v2.4h-10.6c-1.5,4-4.8,7.8-12.3,10.8
					c-0.3-0.6-1.1-1.6-1.6-2.1c6.4-2.4,9.5-5.6,11-8.7H664v-2.4h11.2c0.5-1.7,0.6-3.4,0.6-4.9v-4.8L678.3,305.4L678.3,305.4z
					 M674.6,301.4v-3.8h-8.4v-2.3h8.4v-3.8h2.6v3.8h8.4v2.3h-8.4v3.8h8l0.4-0.1l1.7,0.4c-0.8,2.6-1.9,5.6-2.8,7.4l-2.2-0.6
					c0.6-1.2,1.3-3,1.8-4.8h-19.5v-2.3H674.6z M666.2,309.1c2.1,1,4.7,2.7,5.9,4l-1.3,1.6c-1.2-1.3-3.8-3-5.9-4.2L666.2,309.1z
					 M669.1,305.5c2.1,1,4.6,2.6,5.8,3.9l-1.4,1.6c-1.2-1.2-3.6-2.9-5.8-4L669.1,305.5z M679,319.2c3.2,2.1,7.3,5.2,9.2,7.4
					l-1.7,1.8c-1.9-2.2-5.9-5.4-9.2-7.6L679,319.2z"/>
				<path class="st1" d="M716,305.6h-16.6v-2.5h19.4l0.6-0.2l1.8,1.4c-2.5,2.6-6.2,5.3-9.7,7.2v1.6h15.7v2.6h-15.7v9.1
					c0,1.6-0.4,2.4-1.8,2.9c-1.3,0.4-3.3,0.4-6.7,0.4c-0.2-0.7-0.7-1.9-1.2-2.6c2.7,0.1,5.2,0.1,6,0c0.7,0,0.9-0.2,0.9-0.8v-9.1
					h-15.8V313h15.8v-2.6C711.1,309.3,713.9,307.4,716,305.6z M709.7,291.2c1,1.4,2.2,3.2,2.7,4.5h14.4v8.1H724v-5.5h-28v5.5h-2.7
					v-8.1h16c-0.6-1.2-1.4-2.6-2.2-3.7L709.7,291.2z"/>
				<path class="st1" d="M743.3,300.3c-1,1.8-2.2,3.5-3.6,5.2v22.8h-2.5v-19.8c-1.6,1.7-3.2,3.3-4.8,4.6c-0.3-0.6-1.1-1.8-1.6-2.4
					c3.7-2.8,7.6-7,10-11.3L743.3,300.3z M742.4,292.5c-2.3,3.3-6,7-9.5,9.4c-0.4-0.5-1.1-1.5-1.5-2c3.2-2.1,6.8-5.6,8.6-8.4
					L742.4,292.5z M757.2,292.3l-0.9,1.5c3.7,4.8,7.8,7.8,12,10.2c-0.6,0.5-1.4,1.4-1.8,2.2c-1.1-0.7-2.2-1.4-3.2-2.2v2.3h-6.8v5.3
					h10.8v2.4h-10.8v11c0,1.6-0.4,2.3-1.4,2.8c-1.1,0.4-2.9,0.5-5.8,0.5c-0.2-0.7-0.6-1.8-1-2.6c2.3,0.1,4.2,0.1,4.8,0.1
					s0.8-0.2,0.8-0.8v-11h-10.6v-2.4H754v-5.3h-6.2v-2.4h15.4c-2.8-2.1-5.5-4.6-8.2-8c-3,4.2-7,7.9-11.2,10.4
					c-0.4-0.6-1.1-1.4-1.8-2c5.1-2.7,10.2-7.7,12.9-12.8L757.2,292.3z M749.8,316.7c-1.3,3.3-3.4,6.8-5.3,9
					c-0.5-0.4-1.6-1.1-2.2-1.4c2-2.2,3.9-5.3,5-8.3L749.8,316.7z M762.4,316c2.3,2.6,4.6,6,5.7,8.3l-2.2,1.3c-1-2.4-3.4-5.9-5.5-8.5
					L762.4,316z"/>
				<path class="st1" d="M779.2,320.7c0.8,0.5,1.7,1.3,3.2,2.3c2.7,1.8,6.2,2,11,2c5.2,0,11.3-0.4,15.4-0.8
					c-0.4,0.7-0.8,2.1-0.9,2.9c-2.9,0.2-10.5,0.4-14.6,0.4c-5.3,0-8.7-0.4-11.6-2.3c-1.7-1.1-3-2.6-3.9-2.6c-1.2,0-2.9,2.5-4.7,5.3
					l-2-2.5c2-2.4,3.8-4.3,5.4-5v-13h-4.8v-2.5h7.4L779.2,320.7L779.2,320.7z M775.4,292.5c1.7,2.6,3.6,6,4.4,8.1l-2.4,1.2
					c-0.8-2.2-2.6-5.7-4.3-8.3L775.4,292.5z M791.9,292.9c-3,1.8-7.4,3.5-11.2,4.8c-0.2-0.4-0.5-1.2-0.8-1.6c3.7-1.3,7.9-3,10.2-4.6
					L791.9,292.9z M793.3,299.3c-1.2,1.5-2.8,3-4.7,4.3c4.4,5.4,4.2,15.4,2,17.6c-0.8,1-1.7,1.3-3.1,1.3c-0.6,0-1.6,0-2.4,0
					c0-0.6-0.2-1.6-0.6-2.2c1,0.1,2,0.1,2.5,0.1c0.8,0,1.3-0.1,1.8-0.7c0.8-0.8,1.3-3.3,1.1-6.3c-2.3,2.2-5.4,4.5-8,5.9
					c-0.3-0.5-0.8-1.3-1.3-1.8c3-1.3,6.8-4,9-6.5c-0.2-0.9-0.4-1.9-0.7-2.8c-2,1.8-4.6,3.6-6.8,4.8c-0.3-0.5-0.8-1.3-1.3-1.7
					c2.4-1,5.5-3,7.4-4.8c-0.4-0.7-0.8-1.3-1.2-1.9c-1.7,1.1-3.6,2.2-5.5,3c-0.3-0.4-1-1.2-1.4-1.6c1.6-0.7,3.3-1.6,4.8-2.6
					c-0.8-1.3-2.1-3-3.2-4.3l1.6-0.9c1,1.3,2.3,2.9,3.2,4.1c0.7-0.5,1.4-1,2-1.6c-0.7-1.1-1.8-2.6-2.7-3.8l1.6-0.8
					c0.8,1,1.8,2.3,2.5,3.3c0.5-0.5,1-1,1.4-1.5L793.3,299.3z M797.5,295.7c0.4-1.4,0.9-3,1.1-4.3l2.7,0.4l-1.4,3.8h6.4v13.1h-3.5
					V319c0,0.8,0,1.2,0.2,1.4c0.1,0.1,0.3,0.2,0.6,0.2s0.8,0,1,0c0.3,0,0.7,0,0.8-0.2c0.2-0.2,0.3-0.5,0.4-1.1
					c0.1-0.6,0.1-2.1,0.2-4c0.4,0.4,1.1,0.8,1.7,0.9c0,1.7-0.1,3.7-0.3,4.4c-0.2,0.7-0.5,1.1-0.9,1.4s-1.1,0.4-1.6,0.4
					c-0.4,0-1.4,0-1.7,0c-0.6,0-1.4-0.2-1.9-0.6s-0.6-1-0.6-3.1v-9.9h-2.3c-0.3,7.1-1.3,11.7-5.9,14.4c-0.2-0.5-0.9-1.3-1.4-1.7
					c4-2.4,4.9-6.3,5.2-12.7h-2.9v-13.1L797.5,295.7L797.5,295.7z M795.8,301.3h8.1v-3.5h-8.1V301.3z M795.8,306.8h8.1v-3.6h-8.1
					V306.8z"/>
				<path class="st1" d="M822.6,298c1.3,1.9,2.4,4.5,2.7,6.2l-1.7,0.4h11c1.1-1.9,2.3-4.8,3-6.8l2.9,0.7c-1,2-2,4.3-3.1,6.1h10.4
					v2.4h-35.6v-2.4h10.3c-0.4-1.8-1.3-4.2-2.4-6.1L822.6,298z M830.2,291.2c0.9,1.2,1.6,2.8,2,4h13.6v2.4h-31.3v-2.4h14.7
					c-0.4-1.2-1-2.4-1.7-3.5L830.2,291.2z M842.6,310.8v17.3h-2.8v-1.4h-19.3v1.6h-2.6v-17.4h24.7V310.8z M839.8,317.5v-4.4h-19.3
					v4.4H839.8z M820.5,324.3h19.3v-4.6h-19.3V324.3z"/>
				<path class="st1" d="M880.2,315.4c-1.4,2.8-3.2,6.2-4.7,8.8h12.2v2.5h-35.3v-2.5h20.4c1.6-2.7,3.5-6.8,4.6-9.6L880.2,315.4z
					 M886.6,293.6v2.5h-33.5v-2.5H886.6z M882.4,300.6v12.9h-25.6v-12.9H882.4z M859.6,311h20v-7.8h-20V311z M862.3,314.5
					c1.4,2.6,2.8,6,3.3,8.1l-2.6,0.8c-0.5-2.1-1.8-5.6-3.1-8.2L862.3,314.5z"/>
				<path d="M902.2,318.7c-0.4,1.6-1,3.3-1.7,5.1s-1.4,3.6-2.1,5.2h-2.9c1-3.7,1.7-7.3,2.3-10.8h4.1L902.2,318.7z"/>
				<path class="st1" d="M151,360.3c-0.4,15.4-1.5,24-17.5,27.8c-0.3-0.6-1-1.7-1.6-2.3c15.4-3.4,16-11.1,16.3-25.5H151z
					 M162.6,353.8v22.8h-2.8v-20.1H140v20.1h-2.8v-22.8H162.6z M153.5,373.2v10.1c0,1.2,0.4,1.4,2.4,1.4c1,0,5.7,0,7,0
					c2,0,2.3-0.8,2.4-6.2c0.6,0.5,1.7,0.9,2.5,1c-0.4,6.2-1.2,7.7-4.7,7.7c-0.9,0-6.5,0-7.3,0c-3.8,0-4.9-0.8-4.9-3.9v-10.2h2.6
					V373.2z"/>
				<path d="M193.3,369.8l9.4,18.6h-3.2l-9.4-18.6l9.4-18.6h3.2L193.3,369.8z M199.4,369.8l9.4,18.6h-3.2l-9.4-18.6l9.4-18.6h3.2
					L199.4,369.8z"/>
				<path class="st1" d="M211.4,365.4c0.7-0.2,1.4-1.1,2.3-2.5c1-1.3,4-6.6,5.8-11.4l2.6,1.2c-1.9,4.3-4.4,8.8-6.9,12.3l5.8-0.6
					c1-1.4,1.9-2.9,2.7-4.4l2.4,1.4c-2.8,4.5-6,8.9-9.3,12.5l8.4-1.5c-0.1,0.7-0.1,1.8,0,2.4c-10.3,2.1-11.6,2.4-12.5,3
					c-0.2-0.6-0.6-1.9-0.9-2.6c0.9-0.2,1.8-1.2,3.2-2.6c0.8-0.8,2.6-3,4.5-5.6c-5.4,0.7-6.4,1-7,1.3
					C212.2,367.5,211.8,366.1,211.4,365.4z M225,379.7l0.3,2.4c-4.6,1.2-9.5,2.4-13.1,3.4l-0.6-2.7C215,382.2,220,380.9,225,379.7z
					 M243,353.7l0.5-0.1l1.9,1c-1.6,3.2-4,6-6.9,8.4c3.6,1.5,7.7,3.5,10,4.9l-1.6,2.2c-2.3-1.6-6.7-3.8-10.5-5.5
					c-3.3,2.4-7,4.3-10.6,5.6c-0.4-0.6-1.1-1.7-1.6-2.2c6.4-2.2,13.4-6.5,17.1-11.9H227v-2.4H243z M246.5,371.8v2.5H238v10.2h10.4
					v2.5h-23.6v-2.5h10.5v-10.2h-8.1v-2.5H246.5z"/>
				<path class="st1" d="M264.3,356.3v-4.9h2.5v4.9h6.3v-5h2.5v5h9v19.8h3.7v2.5h-36.7v-2.5h4v-19.8H264.3z M266.2,381.1
					c-3.1,2.6-8,5.4-12.1,7c-0.4-0.6-1.4-1.4-2-1.9c4.2-1.6,9.1-4.3,11.6-6.6L266.2,381.1z M264.3,358.9h-6v7h6V358.9z M264.3,368.4
					h-6v7.8h6V368.4z M273.1,365.9v-7h-6.3v7H273.1z M273.1,376.2v-7.8h-6.3v7.8H273.1z M275.8,379.5c4.3,2.1,8.9,4.7,11.7,6.6
					l-2.3,1.8c-2.7-2-7-4.6-11.2-6.7L275.8,379.5z M282,365.9v-7h-6.3v7H282z M282,376.2v-7.8h-6.3v7.8H282z"/>
				<path class="st1" d="M307.4,353.9c-1.7,0.5-3.8,0.9-6.1,1.2v10.8h5.3v2.4h-5.3v0.4c1.4,1.2,5.2,5.2,6,6.2l-1.8,1.9
					c-0.8-1.2-2.7-3.5-4.3-5.2v16.6h-2.5v-16.1c-1.7,3.9-4,7.8-6.1,10.1c-0.3-0.8-0.9-1.9-1.4-2.6c2.5-2.4,5.4-7.2,7-11.3H292v-2.4
					h6.7v-10.4c-2.2,0.3-4.4,0.4-6.4,0.6c-0.1-0.6-0.4-1.4-0.7-2c4.9-0.4,10.8-1.2,14.1-2.2L307.4,353.9z M294.5,357.5
					c1.2,1.8,2.4,4.2,3,5.8l-2,0.8c-0.5-1.6-1.7-4-2.8-5.8L294.5,357.5z M307.5,357.9c-1,2.1-2.2,4.5-3.3,6l-1.8-0.7
					c1-1.6,2.3-4.3,3-6.1L307.5,357.9z M325.4,353.6l0.5-0.1l1.6,0.9c-1.8,3.6-4.5,6.7-7.8,9.2c2.7,1.8,5.8,3.2,9.2,4
					c-0.5,0.5-1.2,1.5-1.5,2.2c-3.6-1-6.8-2.7-9.6-4.8c-3.1,2.1-6.5,3.7-9.8,4.8c-0.3-0.6-1-1.6-1.4-2.2c3.1-0.9,6.4-2.4,9.4-4.2
					c-2.2-2.1-4.1-4.6-5.5-7.4h-1.8v-2.4H325.4z M319.1,368.7v3.6h7.2v2.4h-7.2v4.4h8.9v2.4h-8.9v6.7h-2.7v-6.7h-9v-2.4h9v-4.4H309
					v-2.4h7.4v-3.6H319.1z M312.8,356c1.3,2.3,3,4.3,5.1,6c2.4-1.8,4.5-3.8,6-6H312.8z"/>
				<path class="st1" d="M368.1,358.6v2.6h-6.3c-2.4,6.4-5.6,11.6-9.6,15.8c4.5,3.8,10,6.8,16.4,8.4c-0.6,0.6-1.4,1.7-1.8,2.5
					c-6.6-1.8-12.1-4.9-16.7-9c-4.6,4-10.1,6.9-16.9,9.1c-0.3-0.6-1.1-1.9-1.7-2.5c6.7-2,12.2-4.7,16.6-8.5
					c-4.2-4.3-7.4-9.7-9.8-15.8H332v-2.6H368.1z M358.7,361.2H341c2.2,5.3,5.2,10,9.1,13.9C353.8,371.4,356.6,366.8,358.7,361.2z
					 M349.8,351.3c1.2,1.9,2.6,4.5,3.2,6.2l-2.9,1c-0.5-1.6-1.8-4.3-3.1-6.3L349.8,351.3z"/>
				<path d="M380.6,369.8l-9.4-18.6h3.2l9.4,18.6l-9.4,18.6h-3.2L380.6,369.8z M386.7,369.8l-9.4-18.6h3.2l9.4,18.6l-9.4,18.6h-3.2
					L386.7,369.8z"/>
				<path d="M401.9,369.8c0,3.4-0.5,6.7-1.5,10s-2.6,6.1-4.7,8.7h-3.5c2-2.7,3.5-5.6,4.5-8.8c1-3.2,1.5-6.5,1.5-9.8
					c0-3.4-0.5-6.7-1.5-9.9c-1-3.2-2.5-6.1-4.5-8.8h3.6c2.1,2.6,3.7,5.5,4.7,8.7C401.4,363.1,401.9,366.4,401.9,369.8z"/>
				<path d="M422.2,378.7c-0.4,1.6-1,3.3-1.7,5.1s-1.4,3.6-2.1,5.2h-2.9c1-3.7,1.7-7.3,2.3-10.8h4.1L422.2,378.7z"/>
				<path class="st1" d="M481.9,354.5l0.5-0.2l1.8,0.8c-2.4,9.2-6.6,16.3-12.1,21.6c4.4,4,10,6.9,16.6,8.6c-0.6,0.6-1.4,1.7-1.8,2.4
					c-6.8-1.8-12.4-4.9-16.9-9c-4.9,4.2-10.6,7.1-16.7,9.1c-0.3-0.6-1.1-1.9-1.7-2.4c6-1.8,11.7-4.6,16.5-8.6
					c-5-5.2-8.5-11.8-11-19.7h-3.2v-2.6L481.9,354.5L481.9,354.5z M470.2,374.9c4.8-4.5,8.5-10.4,10.7-17.8h-21.1
					C462,364.1,465.4,370.1,470.2,374.9z"/>
				<path class="st1" d="M506.2,353.9c-1.4,0.6-3.2,1.2-5.2,1.7v7.4h5.3v2.5H501v1.6c1.1,1.1,4.4,4.9,5.2,5.9l-1.6,2.1
					c-0.6-1.2-2.3-3.6-3.6-5.3v18.4h-2.5v-18.3c-1.6,4.2-3.8,8.3-5.8,10.8c-0.3-0.6-1-1.7-1.4-2.2c2.5-2.9,5.3-8.3,6.8-13h-6V363
					h6.4v-6.8c-1.8,0.4-3.5,0.7-5.2,0.9c-0.1-0.6-0.5-1.5-0.8-2.1c4.2-0.7,9.1-1.9,11.9-3.2L506.2,353.9z M513.2,367.5
					c-1.1,5.4-3,10.8-5.2,14.2c-0.5-0.4-1.6-1.1-2.2-1.4c2.3-3.2,4-8.3,4.9-13.3L513.2,367.5z M514,352.1c-0.3,1.6-0.7,3.3-1.2,4.8
					h13.3l0.4-0.2l1.8,0.5c-1,2.4-2.2,5-3.2,7.3l-2.4-0.6c0.8-1.4,1.6-3.1,2.2-4.6H519v25.4c0,1.6-0.4,2.3-1.4,2.8
					c-1,0.4-2.7,0.4-5.2,0.4c-0.2-0.7-0.6-1.8-1-2.6c1.9,0,3.7,0,4.2,0s0.7-0.2,0.7-0.7v-25.4H512c-1.1,3.2-2.4,6-3.9,8.2
					c-0.5-0.4-1.6-1-2.3-1.4l0.5-0.7c2.4-3.6,4.1-8.7,5-13.9L514,352.1z M523.7,366.6c1.9,4.4,3.6,10.1,4.2,13.9l-2.5,0.8
					c-0.6-3.8-2.3-9.6-4.1-14L523.7,366.6z"/>
				<path d="M561.2,351.8c-0.9,3.4-1.5,6.7-2,9.8h-3.8l-0.2-0.4c0.9-3.1,2-6.2,3.4-9.4H561.2z M568.6,351.8c-0.9,3.4-1.5,6.7-2,9.8
					h-3.8l-0.3-0.4c0.9-3.1,2-6.2,3.5-9.4H568.6z"/>
				<path class="st1" d="M584.4,352.2c-0.6,1.8-1.2,3.6-2,5.2h24.2c0,0,0,1.1,0,1.5c-0.7,19-1.3,25.6-3,27.6
					c-0.9,1.2-1.9,1.5-3.4,1.6s-4.4,0-7-0.1c0-0.8-0.4-2-0.9-2.8c3.1,0.2,5.9,0.2,7,0.2c0.8,0,1.4-0.1,1.9-0.6
					c1.5-1.5,2.2-8,2.7-24.9h-22.6c-2.1,4.2-4.6,7.8-7.2,10.6c-0.5-0.5-1.6-1.4-2.3-1.8c4.4-4.1,8-10.6,10.1-17.4L584.4,352.2z
					 M594.9,365.9v14.4h-13v2.9h-2.6v-17.3H594.9z M581.9,377.8h10.3v-9.4h-10.3V377.8z"/>
				<path class="st1" d="M620.1,351.5v8.2h5.2v2.5h-5.2v8.2l3.9-1.2l0.4,2.4l-4.3,1.3v11.6c0,1.6-0.4,2.3-1.4,2.7
					c-1,0.4-2.6,0.5-5.4,0.5c-0.1-0.7-0.4-1.8-0.8-2.5c1.9,0.1,3.7,0,4.2,0c0.6,0,0.8-0.2,0.8-0.8v-10.8l-5.3,1.6l-0.8-2.6l6.1-1.7
					v-9h-5.6v-2.5h5.6v-8.2h2.6V351.5z M643.1,369.2l0.5-0.1l1.8,0.8c-1.7,4.8-4.5,8.6-8,11.5c3.1,2,6.8,3.5,10.9,4.4
					c-0.6,0.6-1.4,1.7-1.8,2.4c-4.4-1-8.2-2.8-11.4-5.1c-3.6,2.4-7.7,4.1-12,5.2c-0.2-0.7-0.8-1.8-1.4-2.4c4-0.8,7.8-2.3,11.2-4.4
					c-2.9-2.6-5.2-5.8-6.8-9.5l0.3-0.1H625v-2.5h18.1V369.2z M641.4,353v9.4c0,1.1,0.1,1.5,0.8,1.5c0.6,0,2.7,0,3.3,0s1.4,0,2-0.2
					c0,0.7,0.1,1.7,0.2,2.3c-0.5,0.2-1.4,0.2-2.2,0.2c-0.6,0-3,0-3.5,0c-2.6,0-3.2-1-3.2-3.9v-6.8h-7.3v2c0,3.6-1.1,7.8-6,10.6
					c-0.3-0.5-1.3-1.5-1.8-1.9c4.5-2.6,5.2-5.9,5.2-8.8V353H641.4z M628.8,371.7c1.5,3.1,3.6,5.8,6.4,8c2.8-2.2,5-4.8,6.6-8H628.8z"
					/>
				<path d="M657.4,352.2c-0.9,3.1-2,6.2-3.4,9.4h-2.6c0.8-3.4,1.5-6.6,2-9.8h3.8L657.4,352.2z M664.8,352.2c-0.9,3.1-2,6.2-3.4,9.4
					h-2.6c0.9-3.4,1.5-6.6,2-9.8h3.8L664.8,352.2z"/>
				<path d="M698.1,369.8c0-3.4,0.5-6.8,1.5-9.9c1-3.2,2.6-6.1,4.7-8.7h3.6c-2,2.7-3.5,5.6-4.5,8.8c-1,3.2-1.5,6.4-1.5,9.9
					c0,3.4,0.5,6.7,1.5,9.8c1,3.2,2.5,6.1,4.5,8.8h-3.5c-2.1-2.5-3.7-5.4-4.7-8.7C698.6,376.5,698.1,373.2,698.1,369.8z"/>
				<path class="st1" d="M738.4,377.1v2.6h-26.1v-2.6H738.4z M721.8,359.9c-0.2,3-0.6,6.6-1,9.5h16c0.6-4.1,1.1-9.2,1.4-12.8h-22.9
					V354h23.4l0.5-0.1l2,0.2c-0.3,4.2-1,10.4-1.6,15.4h7c0,0,0,0.9-0.1,1.3c-1,10.6-1.8,14.7-3.4,16.2c-0.8,0.8-1.7,1.1-3.1,1.2
					c-1.3,0.1-3.7,0-6.3-0.1c0-0.8-0.4-1.9-0.9-2.6c2.7,0.2,5.2,0.3,6.2,0.3c0.9,0,1.4-0.1,1.8-0.4c1.2-1.1,2.1-4.7,2.9-13.3h-25.8
					c0.5-3.2,1-8.4,1.3-12.2H721.8z"/>
				<path class="st1" d="M770.9,353.3v2.3h-18.7v-2.3H770.9z M770.4,368.5V385c0,1.2-0.2,1.9-1.1,2.3c-0.8,0.4-2.2,0.4-4.3,0.4
					c-0.1-0.6-0.4-1.5-0.7-2.2c1.5,0,2.8,0,3.2,0s0.6-0.1,0.6-0.6v-14.3H755V388h-2.2v-19.5H770.4z M769,358.1v8h-14.8v-8H769z
					 M766.5,372.2c-0.9,1.6-1.8,3.5-2.7,5h2.9v1.9h-4.1v8h-2v-8h-4.4v-1.9h5.7c1-1.7,2.2-4.1,2.8-5.8L766.5,372.2z M756.5,364.1h10
					v-4h-10V364.1z M758.5,371.5c1,1.5,2,3.5,2.4,4.8l-1.7,0.7c-0.4-1.3-1.4-3.4-2.3-4.8L758.5,371.5z M778.5,359.5v-7.8h2.4v7.8
					h5.9v14.9h-5.9v8.9l4.2-0.7c-0.6-1.8-1.3-3.7-2-5.4l2-0.5c1.6,3.4,3,8,3.4,10.8l-2.2,0.6c-0.1-0.9-0.4-2.1-0.7-3.3l-13.2,2.4
					l-0.7-2.6c1.8-0.2,4.2-0.6,6.7-1v-9.3h-6v-14.9h6.1V359.5z M774.5,372h4.1v-10.2h-4.1V372z M780.8,372h3.9v-10.2h-3.9V372z"/>
				<path d="M813.3,369.8l9.4,18.6h-3.2l-9.4-18.6l9.4-18.6h3.2L813.3,369.8z M819.4,369.8l9.4,18.6h-3.2l-9.4-18.6l9.4-18.6h3.2
					L819.4,369.8z"/>
				<path class="st1" d="M840.1,367.2v-15.5h2.8v15.5h24.8v2.7h-15.6c3,7.1,8.7,12.4,16.5,14.6c-0.7,0.6-1.5,1.7-1.9,2.5
					c-8.3-2.8-14.1-8.7-17.3-17.1h-6.5v14l9.8-2.5c0,0.8,0.1,1.9,0.2,2.5c-11,3-12.4,3.5-13.3,4c-0.2-0.6-0.7-1.8-1.1-2.4
					c0.7-0.3,1.6-0.8,1.6-2.4v-13.2h-7.8v-2.7H840.1z M863.6,353.5c-4,4.7-10,8.9-15.5,11.6c-0.5-0.6-1.5-1.7-2.2-2.2
					c5.7-2.4,11.6-6.3,15.1-10.6L863.6,353.5z"/>
				<path class="st1" d="M880,351.9c-0.4,1.3-0.9,2.6-1.4,3.9h10.9v2.4h-7.2c1,1.7,1.9,3.5,2.4,4.8l-2.4,0.9
					c-0.5-1.5-1.6-3.8-2.8-5.7h-2c-1.2,2.5-2.7,4.7-4.2,6.4c-0.5-0.4-1.6-1.2-2.2-1.5c2.8-2.8,5.1-7.2,6.4-11.7L880,351.9z
					 M895.6,351.9c-0.4,1.3-1,2.6-1.6,3.9h13.7v2.4H899c1.2,1.7,2.4,3.6,2.9,4.9l-2.4,1.1c-0.6-1.6-2-4-3.5-6h-3.1
					c-1.1,1.9-2.4,3.6-3.6,5h2.1v4.3h13.4V388H902v-1.8h-23.6v2h-2.6v-20.6h12.8v-3.7l-0.2,0.2c-0.5-0.4-1.6-1.2-2.2-1.5
					c3-2.7,5.4-6.8,6.8-11.2L895.6,351.9z M878.4,369.9v5.5h10.2v-5.5H878.4z M888.6,383.8v-6h-10.2v6H888.6z M891.3,375.5H902V370
					h-10.7V375.5z M902,377.8h-10.7v6H902V377.8z"/>
				<path class="st1" d="M140.2,419.2v10.9c0,5.6-0.6,13.1-7,17.6c-0.3-0.5-1-1.2-1.6-1.7c5.9-4,6.3-11.1,6.3-16v-10.9h2.3V419.2z
					 M144.6,413.8v23.6h-2.1v-21.1h-7.2v21.2h-2v-23.7H144.6z M141.3,438.3c1.4,2,3,4.6,3.7,6.2l-2,1.2c-0.6-1.7-2.2-4.4-3.6-6.4
					L141.3,438.3z M147.6,444.1v-16.4h2.2v16l3.2-0.6v-18h2.2v6.6h3.9v2.3h-3.9v8.6l5-0.9l0.2,2.2c-5.2,1.1-10.5,2.1-14.4,2.9
					l-0.6-2.4L147.6,444.1z M161.4,411.5c0,3.4,0,6.6,0.2,9.7h6.8v2.3h-6.7c0.6,13.1,2.3,22.2,4.3,22.2c0.6,0,0.9-2.2,1-6.8
					c0.5,0.5,1.3,1,1.9,1.3c-0.4,6-1.1,7.9-3.3,7.9c-3.8,0-5.5-10.7-6.2-24.6h-13.5v-2.3h13.4c-0.1-3.1-0.2-6.4-0.2-9.7H161.4z
					 M157.8,414.6v2.3h-10.1v-2.3H157.8z M164.3,412.5c1.5,1.6,3.2,3.8,3.8,5.3l-2,1c-0.7-1.5-2.3-3.8-3.8-5.4L164.3,412.5z"/>
				<path d="M180.6,429.8l-9.4-18.6h3.2l9.4,18.6l-9.4,18.6h-3.2L180.6,429.8z M186.7,429.8l-9.4-18.6h3.2l9.4,18.6l-9.4,18.6h-3.2
					L186.7,429.8z"/>
				<path d="M201.9,429.8c0,3.4-0.5,6.7-1.5,10s-2.6,6.1-4.7,8.7h-3.5c2-2.7,3.5-5.6,4.5-8.8c1-3.2,1.5-6.5,1.5-9.8
					c0-3.4-0.5-6.7-1.5-9.9c-1-3.2-2.5-6.1-4.5-8.8h3.6c2.1,2.6,3.7,5.5,4.7,8.7C201.4,423.1,201.9,426.4,201.9,429.8z"/>
				<path d="M222.2,438.7c-0.4,1.6-1,3.3-1.7,5.1s-1.4,3.6-2.1,5.2h-2.9c1-3.7,1.7-7.3,2.3-10.8h4.1L222.2,438.7z"/>
				<path class="st1" d="M281.9,414.5l0.5-0.2l1.8,0.8c-2.4,9.2-6.6,16.3-12.1,21.6c4.4,4,10,6.9,16.6,8.6c-0.6,0.6-1.4,1.7-1.8,2.4
					c-6.8-1.8-12.4-4.9-16.9-9c-4.9,4.2-10.6,7.1-16.7,9.1c-0.3-0.6-1.1-1.9-1.7-2.4c6-1.8,11.7-4.6,16.5-8.6
					c-5-5.2-8.5-11.8-11-19.7h-3.2v-2.6L281.9,414.5L281.9,414.5z M270.2,434.9c4.8-4.5,8.5-10.4,10.7-17.8h-21.1
					C262,424.1,265.4,430.1,270.2,434.9z"/>
				<path class="st1" d="M306.2,413.9c-1.4,0.6-3.2,1.2-5.2,1.7v7.4h5.3v2.5H301v1.6c1.1,1.1,4.4,4.9,5.2,5.9l-1.6,2.1
					c-0.6-1.2-2.3-3.6-3.6-5.3v18.4h-2.5v-18.3c-1.6,4.2-3.8,8.3-5.8,10.8c-0.3-0.6-1-1.7-1.4-2.2c2.5-2.9,5.3-8.3,6.8-13h-6V423
					h6.4v-6.8c-1.8,0.4-3.5,0.7-5.2,0.9c-0.1-0.6-0.5-1.5-0.8-2.1c4.2-0.7,9.1-1.9,11.9-3.2L306.2,413.9z M313.2,427.5
					c-1.1,5.4-3,10.8-5.2,14.2c-0.5-0.4-1.6-1.1-2.2-1.4c2.3-3.2,4-8.3,4.9-13.3L313.2,427.5z M314,412.1c-0.3,1.6-0.7,3.3-1.2,4.8
					h13.3l0.4-0.2l1.8,0.5c-1,2.4-2.2,5-3.2,7.3l-2.4-0.6c0.8-1.4,1.6-3.1,2.2-4.6H319v25.4c0,1.6-0.4,2.3-1.4,2.8
					c-1,0.4-2.7,0.4-5.2,0.4c-0.2-0.7-0.6-1.8-1-2.6c1.9,0,3.7,0,4.2,0s0.7-0.2,0.7-0.7v-25.4H312c-1.1,3.2-2.4,6-3.9,8.2
					c-0.5-0.4-1.6-1-2.3-1.4l0.5-0.7c2.4-3.6,4.1-8.7,5-13.9L314,412.1z M323.7,426.6c1.9,4.4,3.6,10.1,4.2,13.9l-2.5,0.8
					c-0.6-3.8-2.3-9.6-4.1-14L323.7,426.6z"/>
				<path d="M361.2,411.8c-0.9,3.4-1.5,6.7-2,9.8h-3.8l-0.2-0.4c0.9-3.1,2-6.2,3.4-9.4H361.2z M368.6,411.8c-0.9,3.4-1.5,6.7-2,9.8
					h-3.8l-0.3-0.4c0.9-3.1,2-6.2,3.5-9.4H368.6z"/>
				<path class="st1" d="M384.4,412.2c-0.6,1.8-1.2,3.6-2,5.2h24.2c0,0,0,1.1,0,1.5c-0.7,19-1.3,25.6-3,27.6
					c-0.9,1.2-1.9,1.5-3.4,1.6s-4.4,0-7-0.1c0-0.8-0.4-2-0.9-2.8c3.1,0.2,5.9,0.2,7,0.2c0.8,0,1.4-0.1,1.9-0.6
					c1.5-1.5,2.2-8,2.7-24.9h-22.6c-2.1,4.2-4.6,7.8-7.2,10.6c-0.5-0.5-1.6-1.4-2.3-1.8c4.4-4.1,8-10.6,10.1-17.4L384.4,412.2z
					 M394.9,425.9v14.4h-13v2.9h-2.6v-17.3H394.9z M381.9,437.8h10.3v-9.4h-10.3V437.8z"/>
				<path class="st1" d="M431.7,411.3c0.8,1.3,1.6,3,2.1,4.2h14.1v2.6h-30.1v8.4c0,6.3-0.5,15.4-3.8,21.7c-0.5-0.4-1.7-1-2.4-1.2
					c3.3-6,3.6-14.5,3.6-20.4v-11h15.6c-0.5-1.2-1.1-2.5-1.7-3.6L431.7,411.3z M442.3,434.5l0.5-0.1l1.7,0.9c-1.9,3.4-4.9,6-8.5,8
					c3.7,1.3,7.9,2.2,12.4,2.6c-0.6,0.6-1.2,1.6-1.6,2.3c-5.1-0.6-9.8-1.8-13.9-3.6c-4.3,1.7-9.3,2.8-14.3,3.3
					c-0.2-0.6-0.7-1.6-1.1-2.3c4.4-0.4,8.8-1.2,12.6-2.5c-2.7-1.6-5-3.5-6.7-5.9l1.4-0.6h-5.4v-2.2h22.9V434.5z M428,419.1v3.6h10.2
					v-3.6h2.6v3.6h6.6v2.2h-6.6v6.7h-15.4V425h-6.6v-2.2h6.6v-3.6L428,419.1L428,419.1z M426,436.7c1.7,2.2,4.1,3.9,7.1,5.3
					c3-1.4,5.6-3.1,7.4-5.3H426z M428,425v4.5h10.2V425H428z"/>
				<path d="M457.4,412.2c-0.9,3.1-2,6.2-3.4,9.4h-2.6c0.8-3.4,1.5-6.6,2-9.8h3.8L457.4,412.2z M464.8,412.2c-0.9,3.1-2,6.2-3.4,9.4
					h-2.6c0.9-3.4,1.5-6.6,2-9.8h3.8L464.8,412.2z"/>
				<path d="M498.1,429.8c0-3.4,0.5-6.8,1.5-9.9c1-3.2,2.6-6.1,4.7-8.7h3.6c-2,2.7-3.5,5.6-4.5,8.8c-1,3.2-1.5,6.4-1.5,9.9
					c0,3.4,0.5,6.7,1.5,9.8c1,3.2,2.5,6.1,4.5,8.8h-3.5c-2.1-2.5-3.7-5.4-4.7-8.7C498.6,436.5,498.1,433.2,498.1,429.8z"/>
				<path class="st1" d="M528.7,444.7v-3.9h-11.8v-2.3h11.8v-3.7H515v-2.4h30.2v2.4h-13.7v3.7h11.9v2.3h-11.9v3.9h16v2.4h-34.9v-2.4
					H528.7z M531.8,411.8c-0.6,1.2-1.2,2.4-1.8,3.4h13.4v14.2h-26.7v-14.2h10.4c0.6-1.2,1.2-2.7,1.6-3.8L531.8,411.8z M519.4,421.3
					h21.3v-3.8h-21.3V421.3z M519.4,427.2h21.3v-3.8h-21.3V427.2z"/>
				<path class="st1" d="M576.2,411.4c2.7,1.1,6.3,2.8,8.2,3.9l-1.2,1.6h4.4v2.5h-16.2v4h13.3v21.2c0,1.6-0.4,2.4-1.6,2.9
					c-1.2,0.4-3.4,0.4-6.6,0.4c-0.1-0.8-0.6-1.8-1-2.5c2.6,0.1,5,0,5.7,0s0.8-0.2,0.8-0.8v-4.9h-10.6v8.2h-2.8v-8.2h-10.4v8.5h-2.7
					v-24.8h13.1v-4h-16.1v-2.5h16.1v-5.5h2.8v5.5h11.1c-2-1.1-5.2-2.8-7.7-3.9L576.2,411.4z M568.7,430.3v-4.5h-10.4v4.5H568.7z
					 M558.3,437.3h10.4v-4.6h-10.4V437.3z M582,425.8h-10.6v4.5H582V425.8z M571.4,432.7v4.6H582v-4.6H571.4z"/>
				<path class="st1" d="M593,422.6c2.6,1,5.8,2.8,7.4,4.1l-1.5,2.2c-1.6-1.4-4.7-3.2-7.3-4.2L593,422.6z M599.8,432.8l2,1.7
					c-2,4.2-4.6,9.4-6.8,13.1l-2.3-1.7C594.7,442.7,597.6,437.4,599.8,432.8z M595.2,411.9c2.6,1.1,5.7,2.9,7.2,4.3l-1.5,2.2
					c-1.6-1.5-4.6-3.4-7.2-4.6L595.2,411.9z M609,433.4c-0.2,1.6-0.5,3.1-0.8,4.5c1.2,3.5,3.2,5.3,5.7,6.3v-13.1h-11.3v-2.2H628v2.2
					h-11.5v4.9h8.9v2.2h-8.9v6.6c1.3,0.2,2.7,0.3,4.2,0.3c0.9,0,6.6,0,8,0c-0.4,0.6-0.8,1.7-0.9,2.4h-7.3c-6.2,0-10.6-1.1-13.3-6.8
					c-1.2,3-2.8,5.5-5.1,7.4c-0.4-0.4-1.5-1.2-2.1-1.6c3.7-2.9,5.7-7.4,6.3-13.4L609,433.4z M625.1,412.8v13h-19.6v-13H625.1z
					 M608,418.3h14.4v-3.4H608V418.3z M608,423.7h14.4v-3.4H608V423.7z"/>
				<path d="M653.3,429.8l9.4,18.6h-3.2l-9.4-18.6l9.4-18.6h3.2L653.3,429.8z M659.4,429.8l9.4,18.6h-3.2l-9.4-18.6l9.4-18.6h3.2
					L659.4,429.8z"/>
				<path class="st1" d="M697.3,435.7v2.6h-24.9v-2.6H697.3z M683.2,412.7l-0.9,4.4H705v2.6h-23.2c-0.6,2.6-1.2,5.3-1.7,7.5h25.4
					c0,0,0,1-0.1,1.4c-1.2,11.4-2.3,16-4.1,17.8c-1,1-2,1.2-3.6,1.3c-1.4,0.1-4.2,0-7.1-0.2c-0.1-0.8-0.4-1.9-1-2.7
					c3.1,0.3,6.2,0.3,7.3,0.3c1,0,1.6,0,2.1-0.5c1.5-1.2,2.6-5.4,3.5-14.9h-23h-0.6h-2.2c1.2-4.4,2.9-11.9,3.9-17.3L683.2,412.7z"/>
				<path class="st1" d="M731.2,411.5v4.5h16.5v2.5h-13.4c3.6,3.6,9.1,6.7,14.2,8.3c-0.6,0.5-1.4,1.5-1.8,2.2
					c-5.6-2-11.7-6-15.4-10.5l0,0v9.1h-2.7v-9.1c-3.7,4.6-9.8,8.7-15.2,10.8c-0.4-0.6-1.2-1.6-1.8-2.1c4.9-1.6,10.4-5,13.8-8.6h-13
					V416h16.2v-4.5H731.2z M735.5,430.8h-16.3v-2.4h19.6l0.6-0.2l1.8,1.5c-2.6,2.1-6.3,4-9.9,5.4v1h16.6v2.5h-16.6v6.2
					c0,1.5-0.4,2.2-1.7,2.7c-1.2,0.4-3.2,0.4-6.5,0.4c-0.2-0.7-0.8-1.8-1.2-2.5c2.8,0.1,5.2,0.1,5.9,0c0.7,0,0.8-0.2,0.8-0.7v-6.2
					h-16.3V436h16.3v-2.2C730.9,433.3,733.5,432.1,735.5,430.8z"/>
				<path class="st1" d="M762.5,412.8c-0.6,2.2-1.4,4.5-2.3,6.6h8.5v-7.8h2.8v7.8H786v2.6h-14.6v9.1h13.1v2.6h-13.1v10.6h16.4v2.6
					h-35.7v-2.6h16.4v-10.6h-12.1v-2.6h12.1V422H759c-1.3,2.6-2.7,4.9-4.3,6.7c-0.5-0.5-1.7-1.3-2.4-1.6c3.3-3.6,5.9-9.2,7.4-14.9
					L762.5,412.8z"/>
				<path class="st1" d="M807,418.5v-6.9h2.7v6.9h12.2v10.8h5.8c0,0,0,0.8-0.1,1.2c-0.6,8-1.2,11.2-2.4,12.4c-0.8,0.8-1.6,1-3,1.1
					c-1.2,0.1-3.6,0-6.1-0.1c-0.1-0.8-0.4-1.9-0.9-2.6c2.6,0.2,5.1,0.2,6,0.2c0.8,0,1.3,0,1.7-0.4c0.8-0.7,1.3-3.3,1.8-9.4h-15.2
					v16.2H807v-16.2h-14.5v-2.5H807V421h-11.8v-2.6H807V418.5z M819.2,429.4v-8.2h-9.6v8.2H819.2z M820.5,412.8
					c2.5,1.6,5.8,4,7.4,5.4l-1.7,2c-1.6-1.6-4.8-4-7.4-5.7L820.5,412.8z"/>
				<path d="M840.6,429.8l-9.4-18.6h3.2l9.4,18.6l-9.4,18.6h-3.2L840.6,429.8z M846.7,429.8l-9.4-18.6h3.2l9.4,18.6l-9.4,18.6h-3.2
					L846.7,429.8z"/>
				<path d="M861.9,429.8c0,3.4-0.5,6.7-1.5,10s-2.6,6.1-4.7,8.7h-3.5c2-2.7,3.5-5.6,4.5-8.8c1-3.2,1.5-6.5,1.5-9.8
					c0-3.4-0.5-6.7-1.5-9.9c-1-3.2-2.5-6.1-4.5-8.8h3.6c2.1,2.6,3.7,5.5,4.7,8.7C861.4,423.1,861.9,426.4,861.9,429.8z"/>
				<path d="M877.8,435.3c1.7,0,3.2,0.6,4.3,1.8c1.2,1.2,1.8,2.6,1.8,4.3c0,1.7-0.6,3.2-1.8,4.3s-2.6,1.8-4.3,1.8s-3.1-0.6-4.3-1.8
					s-1.8-2.6-1.8-4.3c0-1.7,0.6-3.1,1.8-4.3S876.1,435.3,877.8,435.3z M877.8,445.4c1.1,0,2.1-0.4,2.9-1.2c0.8-0.8,1.2-1.8,1.2-2.9
					s-0.4-2-1.2-2.8s-1.8-1.2-2.9-1.2c-1.1,0-2,0.4-2.8,1.2c-0.8,0.8-1.2,1.7-1.2,2.8c0,1.1,0.4,2.1,1.2,2.9
					S876.7,445.4,877.8,445.4z"/>
			</g>
			<g>
				<path class="st2" d="M142.1,108.3v-1.2v-8.6h-7.7v-4.6h34v4.6h-7.1v9.8h8.2v4.6h-8.2v16.3h-5v-16.3h-9.4c-0.7,6-3,12.1-10,16.5
					c-0.8-1.1-2.7-2.8-3.9-3.6c5.8-3.5,8-8.2,8.8-12.9h-8.6v-4.6C133.2,108.3,142.1,108.3,142.1,108.3z M147.1,98.5v8.6v1.2h9.2
					v-9.8C156.3,98.5,147.1,98.5,147.1,98.5z"/>
				<path class="st2" d="M192.7,91.5c1,1.7,1.9,4,2.4,5.5h11.7v12.7H182c-0.2,6.3-1.3,14.4-5.6,19.6c-0.8-0.9-2.8-2.7-4-3.3
					c4.4-5.3,4.7-13,4.7-18.6V97.1h12.7c-0.5-1.4-1.2-3-1.8-4.4L192.7,91.5z M182,105.3h20v-3.8h-20V105.3z M207.7,112.7v16.1h-4.9
					v-1.9h-15.4v1.9h-4.7v-16.1C182.7,112.7,207.7,112.7,207.7,112.7z M202.8,122.5v-5.4h-15.4v5.4H202.8z"/>
				<path class="st2" d="M249.8,111.3c0,3-0.5,5.5-1.5,7.7s-2.5,3.9-4.5,5.1s-4.6,1.8-7.7,1.8c-3.1,0-5.6-0.6-7.7-1.8
					c-2-1.2-3.5-2.9-4.5-5.2c-1-2.2-1.5-4.8-1.5-7.8s0.5-5.5,1.5-7.7s2.5-3.9,4.5-5.1s4.6-1.8,7.7-1.8c3.1,0,5.6,0.6,7.6,1.8
					c2,1.2,3.5,2.9,4.5,5.1C249.3,105.7,249.8,108.3,249.8,111.3z M229,111.3c0,3,0.6,5.3,1.7,7.1c1.1,1.7,3,2.6,5.5,2.6
					c2.6,0,4.4-0.9,5.6-2.6c1.1-1.7,1.7-4.1,1.7-7.1s-0.6-5.4-1.7-7.1c-1.1-1.7-3-2.6-5.5-2.6s-4.4,0.9-5.6,2.6S229,108.2,229,111.3
					z"/>
				<path class="st2" d="M267.7,103.3c2.3,0,4.2,0.6,5.6,1.9s2.1,3.3,2.1,6.1v14.2h-6v-12.8c0-1.6-0.3-2.8-0.8-3.5
					c-0.6-0.8-1.5-1.2-2.7-1.2c-1.8,0-3.1,0.6-3.7,1.9c-0.7,1.2-1,3-1,5.3v10.3h-6v-21.8h4.6l0.8,2.8h0.3c0.7-1.1,1.6-1.9,2.9-2.4
					C265,103.6,266.3,103.3,267.7,103.3z"/>
			</g>
		</g>
		<g>
			<g>
				<path class="st1" d="M1040,183c2.6,1,5.8,2.8,7.5,4.2l-1.3,2.1c-1.6-1.4-4.8-3.2-7.4-4.4L1040,183z M1047.5,192.9l1.8,1.7
					c-2.1,4.2-4.9,9.3-7.3,13l-2-1.8C1042,202.7,1045.2,197.4,1047.5,192.9z M1042,172.1c2.7,1.1,6,2.9,7.6,4.3l-1.4,2.1
					c-1.6-1.4-4.9-3.4-7.6-4.6L1042,172.1z M1071.1,174.6l0.4-0.1l1.7,0.6c-1.5,9.5-4.6,16.7-8.8,22.1c3,3.8,6.8,6.8,11.3,8.7
					c-0.6,0.5-1.4,1.5-1.8,2.1c-4.5-2-8.2-5-11.2-8.8c-3.7,4.1-8.2,7-13,8.9c-0.3-0.7-1-1.7-1.5-2.2c4.8-1.8,9.2-4.6,12.9-8.8
					c-3.7-5.4-6.2-12.2-8-19.9h-1.8v-2.6H1071.1z M1062.8,195c3.4-4.6,6-10.5,7.4-17.8h-14.6C1057.2,183.9,1059.6,190,1062.8,195z"
					/>
				<path class="st1" d="M1089.5,172.3c-1.1,3.2-2.4,6.3-4,9.3v26.5h-2.4v-22.3c-1.1,1.7-2.2,3.2-3.4,4.6c-0.3-0.6-1.1-1.8-1.6-2.4
					c3.6-4,6.9-10.2,8.9-16.4L1089.5,172.3z M1099,195.1l0.7-2.7h-11.6v-2.2h27v2.2h-12.6l-1.1,2.7h11.9v10.3c0,1.2-0.2,1.9-1,2.3
					c-0.8,0.4-2.1,0.4-3.9,0.4c-0.1-0.6-0.4-1.5-0.8-2.2c1.4,0,2.4,0,2.8,0s0.4-0.1,0.4-0.5v-8.1h-4.7v10.3h-2.3v-10.3h-4.6v10.3
					h-2.3v-10.3h-4.5v10.8h-2.4v-13H1099z M1100.2,177.7V175h-10v-2.2h22.8v2.2h-10.4v2.7h11.8v5.4h-2.2v-3.3h-9.6v9.4h-2.5v-9.4
					h-9.3v3.3h-2.1v-5.4H1100.2z M1098.7,186.1v1.7h-7.8v-1.7H1098.7z M1098.7,182.2v1.7h-7v-1.7H1098.7z M1111.4,182.2v1.7h-7.3
					v-1.7H1111.4z M1112,186.1v1.7h-7.9v-1.7H1112z"/>
				<path class="st1" d="M1127,184.1v17l4-2.9c0.2,0.7,0.6,1.7,1,2.2c-6.6,5-7.5,5.8-8,6.6c-0.2-0.7-1-1.8-1.5-2.4
					c0.7-0.5,2-1.8,2-3.6v-14.4h-5.7V184L1127,184.1L1127,184.1z M1123.2,172.1c2.1,1.9,4.8,4.5,6,6.2l-1.9,1.8
					c-1.2-1.7-3.8-4.5-5.9-6.4L1123.2,172.1z M1139.4,171.5v7.8h7.4v-7.8h2.7v7.8h5.1v2.6h-5.1v9.8h5.8v2.7h-5.8v13.7h-2.7v-13.7
					h-7.6c-0.4,5.4-1.9,10.3-6.3,13.8c-0.4-0.5-1.4-1.3-2.1-1.7c3.9-3.2,5.2-7.6,5.7-12.1h-6.2v-2.7h6.3v-2.1v-7.7h-5.5v-2.6h5.5
					v-7.8H1139.4z M1139.4,181.9v7.8v2h7.5v-9.8H1139.4z"/>
				<path class="st1" d="M1175.3,187.1v3.7h11.1v12.8c0,1.1,0.2,1.3,1.4,1.3c0.5,0,3,0,3.7,0c1.2,0,1.3-0.8,1.4-6
					c0.6,0.4,1.8,0.9,2.5,1.1c-0.2,6-1,7.4-3.7,7.4c-0.6,0-3.8,0-4.4,0c-2.8,0-3.7-0.8-3.7-3.8v-10.3h-8.4
					c-0.2,5.2-2.5,11.1-14.1,14.8c-0.4-0.6-1.2-1.6-1.8-2.2c10.7-3.4,12.9-8.4,13.2-12.6h-11v-2.5h11v-3.7H1175.3z M1176.7,171.2
					c0.9,1.4,1.9,3.3,2.4,4.6h14.8v6.4h-2.8v-4h-28.3v4.2h-2.7v-6.6h15.8c-0.5-1.3-1.3-2.8-2-3.9L1176.7,171.2z M1174.6,181.1
					c-3.4,2.8-7.8,5.4-11.7,6.9l-1.8-2c3.6-1.3,8.1-3.6,11.3-6.2L1174.6,181.1z M1181.6,179.9c4,1.7,9,4.4,11.7,6.4l-1.9,1.7
					c-2.5-1.9-7.5-4.8-11.5-6.6L1181.6,179.9z"/>
				<path class="st1" d="M1230.4,185.9v12h-12.1v3h16.6v2.3h-16.6v5h-2.8v-5h-16.7v-2.3h16.7v-3h-11.9v-12H1230.4z M1210.2,177.3
					c0.9,1.2,1.8,2.9,2.2,4.1h9c0.8-1.3,1.7-3,2.2-4.2l2.8,0.7c-0.7,1.2-1.4,2.5-2.1,3.6h10.6v2.2H1199v-2.2h10.6
					c-0.4-1.1-1.1-2.4-1.8-3.5L1210.2,177.3z M1217,170.9c0.8,1.2,1.7,2.8,2.2,4h13.3v2.2h-30.8v-2.2h14.6c-0.5-1.1-1.2-2.3-1.8-3.3
					L1217,170.9z M1206.3,190.9h21.4v-3h-21.4V190.9z M1206.3,195.9h21.4v-3h-21.4V195.9z"/>
				<path class="st1" d="M1251.4,172.2c-0.6,1.8-1.2,3.6-2,5.2h24.2c0,0,0,1.1,0,1.5c-0.7,19-1.3,25.6-3,27.6
					c-0.9,1.2-1.9,1.5-3.4,1.6s-4.4,0-7-0.1c0-0.8-0.4-2-0.9-2.8c3.1,0.2,5.9,0.2,7,0.2c0.8,0,1.4-0.1,1.9-0.6
					c1.5-1.5,2.2-8,2.7-24.9h-22.6c-2.1,4.2-4.6,7.8-7.2,10.6c-0.5-0.5-1.6-1.4-2.3-1.8c4.4-4.1,8-10.6,10.1-17.4L1251.4,172.2z
					 M1261.9,185.9v14.4h-13v2.9h-2.6v-17.3L1261.9,185.9L1261.9,185.9z M1248.9,197.8h10.3v-9.4h-10.3V197.8z"/>
				<path d="M1289.2,198.7c-0.4,1.6-1,3.3-1.7,5.1s-1.4,3.6-2.1,5.2h-2.9c1-3.7,1.7-7.3,2.3-10.8h4.1L1289.2,198.7z"/>
				<path class="st1" d="M1322.6,182.3h-3.8v-2.5h4.3c0.5-2.8,1-5.6,1.2-8.1l2.5,0.2c-0.3,2.4-0.8,5.2-1.3,7.9h5l0.4-0.1l1.6,0.2
					c-0.5,7.3-1.7,13-3.5,17.5c1.8,1.6,3.4,3.2,4.4,4.5l-1.6,2.2c-0.9-1.3-2.3-2.7-3.9-4.2c-1.9,3.7-4.4,6.3-7.5,8.2
					c-0.4-0.6-1.1-1.6-1.6-2.1c2.9-1.6,5.4-4.2,7.2-7.8c-2-1.7-4.2-3.4-6.2-4.7C1320.7,190.5,1321.7,186.5,1322.6,182.3z
					 M1322.6,192.4c1.5,1,3,2.1,4.4,3.3c1.4-3.6,2.4-8.1,2.9-13.4h-4.8C1324.3,185.9,1323.4,189.5,1322.6,192.4z M1333.2,186
					c0.8-0.2,1.6-1.2,2.6-2.6c1.1-1.4,4.5-6.8,6.5-12l2.8,0.8c-2.2,4.7-5,9.4-7.7,13.1l13.4-0.8c-1.2-2.1-2.7-4.3-4-6.2l2.1-1
					c2.8,3.4,5.6,8.1,6.8,11.2l-2.3,1.2c-0.3-0.8-0.8-1.8-1.3-2.8c-15.2,1.1-16.8,1.3-17.9,1.7C1334,188,1333.6,186.7,1333.2,186z
					 M1353.1,192v16.1h-2.6v-1.7H1338v1.8h-2.4V192H1353.1z M1350.6,203.9v-9.5H1338v9.5H1350.6z"/>
				<path class="st1" d="M1392.4,174.3v30c0,1.8-0.4,2.7-1.8,3.2c-1.3,0.4-3.6,0.5-7.4,0.4c-0.1-0.7-0.6-1.9-1-2.6
					c2.9,0.1,5.6,0,6.4,0s1-0.3,1-1v-8.6h-11.2v12h-2.7v-12h-10.4c-0.6,4.5-2,9.1-5,12.6c-0.4-0.5-1.4-1.4-2-1.8
					c4.4-5,4.8-12.1,4.8-17.7v-14.6h29.3V174.3z M1365.8,188.9c0,1.4,0,2.9-0.2,4.4h10.2v-7h-10V188.9z M1365.8,183.7h10v-6.8h-10
					V183.7z M1378.5,176.9v6.8h11.2v-6.8H1378.5z M1378.5,186.2v7h11.2v-7H1378.5z"/>
				<path d="M1428.2,171.8c-0.9,3.4-1.5,6.7-2,9.8h-3.8l-0.2-0.4c0.9-3.1,2-6.2,3.4-9.4L1428.2,171.8L1428.2,171.8z M1435.6,171.8
					c-0.9,3.4-1.5,6.7-2,9.8h-3.8l-0.3-0.4c0.9-3.1,2-6.2,3.5-9.4L1435.6,171.8L1435.6,171.8z"/>
				<path class="st1" d="M1451.4,172.2c-0.6,1.8-1.2,3.6-2,5.2h24.2c0,0,0,1.1,0,1.5c-0.7,19-1.3,25.6-3,27.6
					c-0.9,1.2-1.9,1.5-3.4,1.6s-4.4,0-7-0.1c0-0.8-0.4-2-0.9-2.8c3.1,0.2,5.9,0.2,7,0.2c0.8,0,1.4-0.1,1.9-0.6
					c1.5-1.5,2.2-8,2.7-24.9h-22.6c-2.1,4.2-4.6,7.8-7.2,10.6c-0.5-0.5-1.6-1.4-2.3-1.8c4.4-4.1,8-10.6,10.1-17.4L1451.4,172.2z
					 M1461.9,185.9v14.4h-13v2.9h-2.6v-17.3L1461.9,185.9L1461.9,185.9z M1448.9,197.8h10.3v-9.4h-10.3V197.8z"/>
				<path class="st1" d="M1487.3,184.1v17.2l3.8-3c0.3,0.7,0.7,1.7,1,2.2c-6.2,5.1-7.2,6-7.8,6.8l0,0c-0.3-0.6-1-1.5-1.5-1.9
					c0.6-0.5,1.9-1.8,1.9-3.8v-14.9h-6.1v-2.6H1487.3z M1483.1,172.5c2.2,1.8,4.9,4.2,6.2,5.8l-1.8,2c-1.3-1.7-4-4.3-6.1-6.1
					L1483.1,172.5z M1505.3,185.4v4.9c0,1.6-0.1,3.2-0.4,4.8h10v2.4h-10.6c-1.5,4-4.8,7.8-12.3,10.8c-0.3-0.6-1.1-1.6-1.6-2.1
					c6.4-2.4,9.5-5.6,11-8.7H1491v-2.4h11.2c0.5-1.7,0.6-3.4,0.6-4.9v-4.8H1505.3z M1501.6,181.4v-3.8h-8.4v-2.3h8.4v-3.8h2.6v3.8
					h8.4v2.3h-8.4v3.8h8l0.4-0.1l1.7,0.4c-0.8,2.6-1.9,5.6-2.8,7.4l-2.2-0.6c0.6-1.2,1.3-3,1.8-4.8h-19.5v-2.3L1501.6,181.4
					L1501.6,181.4z M1493.2,189.1c2.1,1,4.7,2.7,5.9,4l-1.3,1.6c-1.2-1.3-3.8-3-5.9-4.2L1493.2,189.1z M1496.1,185.5
					c2.1,1,4.6,2.6,5.8,3.9l-1.4,1.6c-1.2-1.2-3.6-2.9-5.8-4L1496.1,185.5z M1506,199.2c3.2,2.1,7.3,5.2,9.2,7.4l-1.7,1.8
					c-1.9-2.2-5.9-5.4-9.2-7.6L1506,199.2z"/>
				<path d="M1524.4,172.2c-0.9,3.1-2,6.2-3.4,9.4h-2.6c0.8-3.4,1.5-6.6,2-9.8h3.8L1524.4,172.2z M1531.8,172.2
					c-0.9,3.1-2,6.2-3.4,9.4h-2.6c0.9-3.4,1.5-6.6,2-9.8h3.8L1531.8,172.2z"/>
				<path d="M1585.1,189.8c0-3.4,0.5-6.8,1.5-9.9c1-3.2,2.6-6.1,4.7-8.7h3.6c-2,2.7-3.5,5.6-4.5,8.8s-1.5,6.4-1.5,9.9
					c0,3.4,0.5,6.7,1.5,9.8c1,3.2,2.5,6.1,4.5,8.8h-3.5c-2.1-2.5-3.7-5.4-4.7-8.7C1585.6,196.5,1585.1,193.2,1585.1,189.8z"/>
				<path class="st1" d="M1610.3,172.3c-1,2.8-2.2,5.6-3.6,8.2v27.6h-2.7V185c-1.2,1.9-2.6,3.6-3.9,5.1c-0.2-0.6-1-2-1.6-2.6
					c3.7-3.9,7.2-9.9,9.2-16L1610.3,172.3z M1635.4,175.5v2.6h-3v26.3c0,2-0.5,2.8-1.9,3.3c-1.4,0.4-4.1,0.5-8,0.5
					c-0.1-0.8-0.5-2-1-2.8c3.3,0.1,6.3,0.1,7.2,0s1.1-0.2,1.1-1V178h-19.2v-2.6h24.8V175.5z M1624.2,183.9v13.7h-9.9v2.8h-2.5v-16.6
					h12.4V183.9z M1614.3,195.2h7.4v-8.9h-7.4V195.2z"/>
				<path class="st1" d="M1651.6,172.5c-1.2,3-2.7,5.9-4.4,8.7V208h-2.6v-23c-1.6,2.1-3.3,4-5,5.6c-0.3-0.6-1.2-2-1.6-2.7
					c4.5-3.9,8.6-9.9,11.1-16.3L1651.6,172.5z M1660.6,181.8V172h2.6v9.8h11.8v2.6h-10c2.6,6.5,6.9,13.1,11.1,16.5
					c-0.6,0.5-1.6,1.4-2,2.1c-4-3.6-8.1-10.1-10.8-16.7v21.9h-2.6v-21c-2.7,6.5-6.7,12.5-10.8,16c-0.5-0.7-1.4-1.6-2-2.1
					c4.4-3.4,8.8-10.1,11.3-16.7h-10v-2.6H1660.6z"/>
				<path d="M1700.3,189.8l9.4,18.6h-3.2l-9.4-18.6l9.4-18.6h3.2L1700.3,189.8z M1706.4,189.8l9.4,18.6h-3.2l-9.4-18.6l9.4-18.6h3.2
					L1706.4,189.8z"/>
				<path class="st1" d="M1733,173.5c-2.7,6.5-6.9,12.6-11.4,16.5c-0.6-0.5-1.8-1.5-2.5-1.9c4.6-3.6,8.6-9.4,11-15.4L1733,173.5z
					 M1722.5,202.6c1-0.2,2.2-1.5,3.6-3.4c1.6-1.8,6.5-8.8,9.7-15.5l2.9,1.2c-3.4,6.2-7.3,12.3-11.4,17l19.4-1.1
					c-1.7-2.4-3.5-4.8-5.2-6.8l2.5-1.2c3.6,4.2,7.7,9.9,9.7,13.5l-2.6,1.4c-0.7-1.3-1.6-2.8-2.7-4.4c-21.4,1.4-23.5,1.5-24.9,2
					C1723.4,204.8,1722.9,203.4,1722.5,202.6z M1755.5,187.7c-0.7,0.6-1.7,1.6-2.2,2.3c-4.2-3.8-9.4-10.5-12.4-16.6l2.6-1.1
					C1746.1,178,1751.3,184.5,1755.5,187.7z"/>
				<path class="st1" d="M1788.4,172.2c-1,2.1-2.3,4.4-3.4,6.2h7.9v2.6h-14.5v6.1h12.1v2.6h-12.1v6.4h16.5v2.6h-16.5v9.5h-2.8v-9.5
					h-16.3v-2.6h16.3v-6.4h-12.2v-2.6h12.2V181h-14.2v-2.6h8.3c-0.6-1.6-2-4.2-3.4-6l2.4-0.9c1.4,1.9,2.9,4.4,3.6,6l-2.1,0.9h12
					c1.2-2.1,2.6-5,3.4-7.1L1788.4,172.2z"/>
				<path class="st1" d="M1050.4,232.4c-1.2,3-2.6,6-4.2,8.7V268h-2.6v-22.9c-1.4,1.9-2.8,3.7-4.2,5.2c-0.3-0.6-1-2-1.5-2.6
					c4-3.9,7.8-10,10-16.1L1050.4,232.4z M1057.8,258.3c1.3,0.8,2.6,1.6,3.9,2.6c2.2-2.3,4.5-4.9,6.3-7h-14.4
					c0.8-2.1,1.6-4.7,2.4-7.6h-7.4v-2.5h8.2l1.4-5.1h-7.3v-2.5h8l1.2-4.6l2.6,0.4l-1.1,4.2h11.6v2.5H1061l-1.4,5.1h15.6v2.5h-16.3
					l-1.5,5h13.1l0.4-0.2l1.9,1.2c-2.4,2.8-5.8,6.7-8.9,10c1.8,1.4,3.4,2.7,4.5,3.8l-2,2c-2.2-2.3-6.6-5.9-10.4-8.2L1057.8,258.3z"
					/>
				<path d="M1087.6,249.8l-9.4-18.6h3.2l9.4,18.6l-9.4,18.6h-3.2L1087.6,249.8z M1093.7,249.8l-9.4-18.6h3.2l9.4,18.6l-9.4,18.6
					h-3.2L1093.7,249.8z"/>
				<path class="st1" d="M1138.5,231.3c0.9,1.5,1.9,3.4,2.5,4.7h14v2.5h-30.5v8.6c0,6.2-0.5,15-3.9,21.1c-0.5-0.5-1.6-1.2-2.2-1.5
					c3.3-5.7,3.6-13.8,3.6-19.6V236h16c-0.6-1.3-1.3-2.8-2-4L1138.5,231.3z M1133.4,245.7c1.8,0.8,4,1.7,6,2.7
					c2.3-1.2,4.9-2.9,6.8-4.6h-17.9v-2.2h20.3l0.6-0.2l1.8,1.4c-2.4,2.4-5.9,5-9.3,6.8c1.2,0.6,2.4,1.2,3.2,1.7l-0.3,0.3h7.7
					l0.5-0.2l1.9,0.9c-2.2,2.8-4.4,6-6.6,8l-2.1-1.1c1.4-1.4,3-3.3,4.4-5.2h-9.2v11c0,1.7-0.4,2.4-1.8,2.8s-3.7,0.4-7.4,0.4
					c-0.1-0.8-0.6-1.8-1-2.5c3,0.1,5.7,0.1,6.5,0c0.8,0,1-0.2,1-0.8v-11H1126v-2.4h14.6c-2.6-1.4-6-3-8.8-4.2L1133.4,245.7z"/>
				<path class="st1" d="M1161.6,263.7c0.9-0.2,1.8-1.3,3.1-3c1.2-1.4,4.6-6.6,7.3-11.9h-12.7v-2.7h35.5v2.7h-19.1
					c-2.7,5.2-6,10.3-9.3,14.3l20.8-1.7c-1.7-2.6-3.6-5.3-5.2-7.6l2.4-1.2c3.4,4.5,7.5,10.4,9.4,14.2l-2.6,1.5
					c-0.6-1.2-1.5-2.7-2.5-4.3c-22.4,1.9-24.6,2.1-26.1,2.7C1162.5,266.1,1162,264.5,1161.6,263.7z M1190.6,234.8v2.7h-27v-2.7
					H1190.6z"/>
				<path d="M1204.3,245c0-1.1,0.3-1.8,0.8-2.3c0.5-0.4,1.2-0.7,1.9-0.7c0.7,0,1.4,0.2,1.9,0.7c0.5,0.4,0.8,1.2,0.8,2.3
					s-0.3,1.8-0.8,2.3s-1.2,0.7-1.9,0.7c-0.7,0-1.4-0.2-1.9-0.7C1204.5,246.8,1204.3,246,1204.3,245z M1204.3,262.8
					c0-1.1,0.3-1.8,0.8-2.3c0.5-0.4,1.2-0.7,1.9-0.7c0.7,0,1.4,0.2,1.9,0.7s0.8,1.2,0.8,2.3c0,1.1-0.3,1.8-0.8,2.3s-1.2,0.7-1.9,0.7
					c-0.7,0-1.4-0.2-1.9-0.7C1204.5,264.7,1204.3,263.9,1204.3,262.8z"/>
				<path d="M1268.2,231.8c-0.9,3.4-1.5,6.7-2,9.8h-3.8l-0.2-0.4c0.9-3.1,2-6.2,3.4-9.4L1268.2,231.8L1268.2,231.8z M1275.6,231.8
					c-0.9,3.4-1.5,6.7-2,9.8h-3.8l-0.3-0.4c0.9-3.1,2-6.2,3.5-9.4L1275.6,231.8L1275.6,231.8z"/>
				<path class="st1" d="M1286.4,231.5v8.1h4.5v2.5h-4.5v9.2l4.4-1.4l0.4,2.5l-4.7,1.6v11c0,1.6-0.4,2.3-1.3,2.7
					c-0.9,0.4-2.4,0.5-4.9,0.5c-0.1-0.6-0.4-1.7-0.8-2.5c1.8,0,3.4,0,3.8,0c0.5,0,0.7-0.1,0.7-0.7v-10.2l-5,1.6l-0.5-2.6
					c1.5-0.4,3.4-1,5.5-1.7v-10h-5.2v-2.5h5.2v-8.1L1286.4,231.5L1286.4,231.5z M1312.6,236.3c-1.2,2-2.5,4.2-3.8,6h5v2.2h-14
					l-0.4,3.4h15.5v2.3H1299c-0.2,1-0.3,2-0.6,2.9h11.6l0.5-0.1l1.5,0.7c-1.2,3.8-3.2,6.8-5.7,9c2.6,1.5,5.8,2.6,9.2,3.2
					c-0.6,0.5-1.3,1.6-1.7,2.3c-3.6-0.8-6.8-2.1-9.6-3.9c-2.6,1.8-5.6,3-8.9,3.9c-0.3-0.6-1-1.6-1.5-2.1c3.1-0.7,6-1.7,8.4-3.2
					c-2-1.6-3.7-3.5-5-5.6c-1.5,4.2-4,8.2-8,10.8c-0.4-0.6-1.2-1.5-1.8-1.9c5.8-3.6,8-10.1,9-16h-5.6v-2.3h6l0.4-3.4h-5.4v-2.2h14.4
					c1.4-2,2.9-4.8,3.8-6.8L1312.6,236.3z M1313.1,233.8c-5.4,1.2-14.1,1.9-21.1,2.1c0-0.6-0.4-1.5-0.6-2.1c6.9-0.3,15.5-1,20.2-2
					L1313.1,233.8z M1295.2,236.5c0.8,1.6,1.7,3.7,2,4.9l-2.2,0.8c-0.4-1.4-1.2-3.5-1.9-5.2L1295.2,236.5z M1304.5,261.5
					c2-1.6,3.5-3.7,4.6-6.2H1299C1300.2,257.7,1302.1,259.7,1304.5,261.5z M1302.5,235.8c0.5,1.7,1,4,1.2,5.3l-2.3,0.6
					c-0.2-1.4-0.6-3.8-1.1-5.5L1302.5,235.8z"/>
				<path class="st1" d="M1336,242.4v-6.7h-14.8v-2.5h17.4V245h-13.5c-0.4,2.2-0.8,4.5-1.2,6.5h14.9c0,0,0,0.8-0.1,1.3
					c-0.7,9-1.4,12.6-2.7,14c-0.8,0.9-1.7,1.1-3.1,1.2c-1.3,0.1-3.8,0-6.4-0.1c-0.1-0.8-0.4-2-1-2.7c2.7,0.2,5.4,0.2,6.4,0.2
					c0.9,0,1.3,0,1.8-0.4c1-0.8,1.6-3.8,2.2-11h-15.3c0.8-3,1.6-7.8,2.2-11.5h13.2V242.4z M1351.1,231.9v36.3h-2.6v-36.3
					L1351.1,231.9L1351.1,231.9z"/>
				<path class="st1" d="M1370.3,232.4c-1.2,2.9-2.6,5.8-4.2,8.6v27.1h-2.6v-23c-1.4,1.9-2.8,3.7-4.3,5.2c-0.2-0.6-1-2-1.5-2.6
					c4-3.9,7.8-10,10.1-16.1L1370.3,232.4z M1375.6,235.4v9.8l6.3-2.4v-11.2h2.6v10.2l6.6-2.6l0.4-0.3l0.5-0.4l1.8,0.8l-0.1,0.5
					c0,7.3-0.1,13.2-0.5,15c-0.3,1.8-1.2,2.5-2.4,2.8c-1.1,0.3-2.8,0.3-4,0.2c-0.1-0.8-0.4-1.8-0.7-2.5c1.2,0.1,2.6,0,3.2,0
					c0.7,0,1.2-0.2,1.5-1.2c0.3-1.2,0.4-5.7,0.4-12.1l-6.6,2.6v14.9h-2.6v-13.9l-6.3,2.5v14.4c0,2.3,0.6,2.8,3.4,2.8
					c1.4,0,8.8,0,10.7,0c2.5,0,2.9-1.1,3.2-5.9c0.7,0.5,1.7,0.9,2.5,1.1c-0.5,5.4-1.4,7.2-5.7,7.2c-1.1,0-9.7,0-10.8,0
					c-4.7,0-6-1.1-6-5.3V249l-4.1,1.6l-1-2.4l5.1-2v-10.8L1375.6,235.4L1375.6,235.4z"/>
				<path class="st1" d="M1398.4,245.4c0.7-0.2,1.4-1.1,2.3-2.5c1-1.3,4-6.6,5.8-11.4l2.6,1.2c-1.9,4.3-4.4,8.8-6.9,12.3l5.8-0.6
					c1-1.4,1.9-2.9,2.7-4.4l2.4,1.4c-2.8,4.5-6,8.9-9.3,12.5l8.4-1.5c-0.1,0.7-0.1,1.8,0,2.4c-10.3,2.1-11.6,2.4-12.5,3
					c-0.2-0.6-0.6-1.9-0.9-2.6c0.9-0.2,1.8-1.2,3.2-2.6c0.8-0.8,2.6-3,4.5-5.6c-5.4,0.7-6.4,1-7,1.3
					C1399.2,247.5,1398.8,246.1,1398.4,245.4z M1412,259.7l0.3,2.4c-4.6,1.2-9.5,2.4-13.1,3.4l-0.6-2.7
					C1402,262.2,1407,260.9,1412,259.7z M1430,233.7l0.5-0.1l1.9,1c-1.6,3.2-4,6-6.9,8.4c3.6,1.5,7.7,3.5,10,4.9l-1.6,2.2
					c-2.3-1.6-6.7-3.8-10.5-5.5c-3.3,2.4-7,4.3-10.6,5.6c-0.4-0.6-1.1-1.7-1.6-2.2c6.4-2.2,13.4-6.5,17.1-11.9H1414v-2.4H1430z
					 M1433.5,251.8v2.5h-8.6v10.2h10.4v2.5h-23.6v-2.5h10.5v-10.2h-8.1v-2.5H1433.5z"/>
				<path d="M1449.2,258.7c-0.4,1.6-1,3.3-1.7,5.1s-1.4,3.6-2.1,5.2h-2.9c1-3.7,1.7-7.3,2.3-10.8h4.1L1449.2,258.7z"/>
				<path class="st1" d="M1498.2,231.5v7.2h13.3v2.7h-13.3v2.6c0,1.9-0.1,3.8-0.3,5.7h17v2.7h-15.4c2.7,7,8.1,11.6,16.3,13.5
					c-0.6,0.6-1.4,1.7-1.8,2.4c-8.4-2.2-13.8-7.2-16.9-15c-1.8,5.9-6.1,11.3-16.6,15c-0.3-0.7-1.1-1.8-1.7-2.3
					c9.9-3.4,14-8.3,15.6-13.6h-15.2v-2.7h15.8c0.3-1.9,0.4-3.8,0.4-5.7v-2.6h-9.3c-1.2,2.5-2.6,4.7-4,6.5c-0.6-0.4-1.9-1.1-2.6-1.4
					c3.2-3.4,5.7-8.8,7.2-14.3l2.8,0.6c-0.6,2-1.3,4-2.1,6h8v-7.2h2.8V231.5z"/>
				<path class="st1" d="M1534,262.1c-3.6,2.2-9,4.6-13.4,6c-0.4-0.6-1.2-1.5-1.8-2c4.4-1.3,9.9-3.6,12.7-5.6L1534,262.1z
					 M1547.3,231.5v4.8h6.5v2.5h-6.5v18.3h7.5v2.5h-35.6v-2.5h7.5v-18.3h-6.4v-2.5h6.4v-4.8h2.6v4.8h15.3v-4.8H1547.3z
					 M1529.3,243.1h15.3v-4.3h-15.3V243.1z M1529.3,250.1h15.3v-4.6h-15.3V250.1z M1544.6,257.1v-4.7h-15.3v4.7H1544.6z
					 M1541.9,260.6c4.8,1.7,9.8,3.9,13,5.6l-2.4,1.8c-2.9-1.7-7.7-3.9-12.4-5.7L1541.9,260.6z"/>
				<path class="st1" d="M1571.4,232.2c-0.6,1.8-1.2,3.6-2,5.2h24.2c0,0,0,1.1,0,1.5c-0.7,19-1.3,25.6-3,27.6
					c-0.9,1.2-1.9,1.5-3.4,1.6s-4.4,0-7-0.1c0-0.8-0.4-2-0.9-2.8c3.1,0.2,5.9,0.2,7,0.2c0.8,0,1.4-0.1,1.9-0.6
					c1.5-1.5,2.2-8,2.7-24.9h-22.6c-2.1,4.2-4.6,7.8-7.2,10.6c-0.5-0.5-1.6-1.4-2.3-1.8c4.4-4.1,8-10.6,10.1-17.4L1571.4,232.2z
					 M1581.9,245.9v14.4h-13v2.9h-2.6v-17.3L1581.9,245.9L1581.9,245.9z M1568.9,257.8h10.3v-9.4h-10.3V257.8z"/>
				<path class="st1" d="M1607.3,244.1v17.2l3.8-3c0.3,0.7,0.7,1.7,1,2.2c-6.2,5.1-7.2,6-7.8,6.8l0,0c-0.3-0.6-1-1.5-1.5-1.9
					c0.6-0.5,1.9-1.8,1.9-3.8v-14.9h-6.1v-2.6L1607.3,244.1L1607.3,244.1z M1603.1,232.5c2.2,1.8,4.9,4.2,6.2,5.8l-1.8,2
					c-1.3-1.7-4-4.3-6.1-6.1L1603.1,232.5z M1625.3,245.4v4.9c0,1.6-0.1,3.2-0.4,4.8h10v2.4h-10.6c-1.5,4-4.8,7.8-12.3,10.8
					c-0.3-0.6-1.1-1.6-1.6-2.1c6.4-2.4,9.5-5.6,11-8.7H1611v-2.4h11.2c0.5-1.7,0.6-3.4,0.6-4.9v-4.8L1625.3,245.4L1625.3,245.4z
					 M1621.6,241.4v-3.8h-8.4v-2.3h8.4v-3.8h2.6v3.8h8.4v2.3h-8.4v3.8h8l0.4-0.1l1.7,0.4c-0.8,2.6-1.9,5.6-2.8,7.4l-2.2-0.6
					c0.6-1.2,1.3-3,1.8-4.8h-19.5v-2.3L1621.6,241.4L1621.6,241.4z M1613.2,249.1c2.1,1,4.7,2.7,5.9,4l-1.3,1.6
					c-1.2-1.3-3.8-3-5.9-4.2L1613.2,249.1z M1616.1,245.5c2.1,1,4.6,2.6,5.8,3.9l-1.4,1.6c-1.2-1.2-3.6-2.9-5.8-4L1616.1,245.5z
					 M1626,259.2c3.2,2.1,7.3,5.2,9.2,7.4l-1.7,1.8c-1.9-2.2-5.9-5.4-9.2-7.6L1626,259.2z"/>
				<path d="M1644.4,232.2c-0.9,3.1-2,6.2-3.4,9.4h-2.6c0.8-3.4,1.5-6.6,2-9.8h3.8L1644.4,232.2z M1651.8,232.2
					c-0.9,3.1-2,6.2-3.4,9.4h-2.6c0.9-3.4,1.5-6.6,2-9.8h3.8L1651.8,232.2z"/>
				<path d="M1684.8,255.3c1.7,0,3.2,0.6,4.3,1.8c1.2,1.2,1.8,2.6,1.8,4.3c0,1.7-0.6,3.2-1.8,4.3s-2.6,1.8-4.3,1.8
					c-1.7,0-3.1-0.6-4.3-1.8s-1.8-2.6-1.8-4.3c0-1.7,0.6-3.1,1.8-4.3C1681.7,255.9,1683.1,255.3,1684.8,255.3z M1684.8,265.4
					c1.1,0,2.1-0.4,2.9-1.2c0.8-0.8,1.2-1.8,1.2-2.9s-0.4-2-1.2-2.8c-0.8-0.8-1.8-1.2-2.9-1.2s-2,0.4-2.8,1.2
					c-0.8,0.8-1.2,1.7-1.2,2.8c0,1.1,0.4,2.1,1.2,2.9S1683.7,265.4,1684.8,265.4z"/>
				<path d="M1740.3,249.8l9.4,18.6h-3.2l-9.4-18.6l9.4-18.6h3.2L1740.3,249.8z M1746.4,249.8l9.4,18.6h-3.2l-9.4-18.6l9.4-18.6h3.2
					L1746.4,249.8z"/>
				<path class="st1" d="M1792,233.4v31.2c0,1.8-0.5,2.6-1.7,3s-3.3,0.4-7,0.4c-0.1-0.7-0.5-1.8-0.9-2.5c2.7,0.1,5.2,0,5.9,0
					c0.7,0,1-0.2,1-1v-28.7h-23.6v10.3c0,6.6-0.6,15.9-5.2,22.2c-0.4-0.5-1.5-1.4-2.1-1.7c4.2-5.9,4.7-14.2,4.7-20.4v-12.8
					L1792,233.4L1792,233.4z M1778.4,236.7v3.6h7.8v2.2h-7.8v4.2h8.8v2.2h-19.8v-2.2h8.4v-4.2h-7.4v-2.2h7.4v-3.6H1778.4z
					 M1785,252.5V263h-13v2.2h-2.5v-12.7L1785,252.5L1785,252.5z M1772,260.8h10.6v-6H1772V260.8z"/>
				<path class="st1" d="M1052.7,298.4l0.5-0.1l1.4,1c-1.3,3-3.1,5.9-5.2,8.6c1.7,1.6,5.5,5.6,6.6,6.7l-1.7,2.2
					c-1-1.4-3.4-4.2-5.3-6.2v17.6h-2.6v-17c-2.2,2.2-4.4,4-6.7,5.5c-0.2-0.7-0.9-2-1.3-2.5c4.9-2.8,10-7.9,12.8-13.3H1040v-2.5
					L1052.7,298.4L1052.7,298.4z M1046.6,291.5c1.6,1.7,3.4,4,4.2,5.5l-2.2,1.4c-0.8-1.6-2.5-4-4-5.7L1046.6,291.5z M1062.1,291.9
					v30.3c0,2.1,0.3,2.5,2.2,2.5c0.9,0,5.1,0,6.2,0c1.8,0,2.1-1.5,2.3-7.4c0.6,0.5,1.7,1,2.4,1.2c-0.3,6.5-1,8.7-4.6,8.7
					c-0.8,0-5.9,0-6.6,0c-3.6,0-4.6-1.1-4.6-5v-30.3L1062.1,291.9L1062.1,291.9z"/>
				<path d="M1087.6,309.8l-9.4-18.6h3.2l9.4,18.6l-9.4,18.6h-3.2L1087.6,309.8z M1093.7,309.8l-9.4-18.6h3.2l9.4,18.6l-9.4,18.6
					h-3.2L1093.7,309.8z"/>
				<path class="st1" d="M1120.2,302.9c2.5,1.1,5.7,2.9,7.4,4.1l-1.5,2.2c-1.6-1.3-4.8-3.2-7.4-4.4L1120.2,302.9z M1127.6,312.9
					l1.9,1.8c-2.1,4.2-5,9.3-7.3,13l-2.2-1.8C1122.1,322.8,1125.2,317.5,1127.6,312.9z M1122.3,291.9c2.5,1.2,5.9,3,7.6,4.2
					l-1.6,2.2c-1.7-1.3-5-3.2-7.6-4.5L1122.3,291.9z M1154.4,299.1v2.6h-10.8v9.4h9.3v2.6h-9.3v10.7h11.7v2.6H1129v-2.6h12v-10.7
					h-9.2v-2.6h9.2v-9.4h-10.7v-2.6H1154.4z M1141.4,291.3c1.4,2,3,4.8,3.6,6.5l-2.6,1.1c-0.6-1.8-2-4.6-3.4-6.7L1141.4,291.3z"/>
				<path d="M1164.3,305c0-1.1,0.3-1.8,0.8-2.3c0.5-0.4,1.2-0.7,1.9-0.7c0.7,0,1.4,0.2,1.9,0.7c0.5,0.4,0.8,1.2,0.8,2.3
					c0,1.1-0.3,1.8-0.8,2.3s-1.2,0.7-1.9,0.7c-0.7,0-1.4-0.2-1.9-0.7C1164.5,306.8,1164.3,306,1164.3,305z M1164.3,322.8
					c0-1.1,0.3-1.8,0.8-2.3c0.5-0.4,1.2-0.7,1.9-0.7c0.7,0,1.4,0.2,1.9,0.7s0.8,1.2,0.8,2.3c0,1.1-0.3,1.8-0.8,2.3s-1.2,0.7-1.9,0.7
					c-0.7,0-1.4-0.2-1.9-0.7C1164.5,324.7,1164.3,323.9,1164.3,322.8z"/>
				<path d="M1228.2,291.8c-0.9,3.4-1.5,6.7-2,9.8h-3.8l-0.2-0.4c0.9-3.1,2-6.2,3.4-9.4H1228.2z M1235.6,291.8
					c-0.9,3.4-1.5,6.7-2,9.8h-3.8l-0.3-0.4c0.9-3.1,2-6.2,3.5-9.4H1235.6z"/>
				<path class="st1" d="M1258,292.5c-1.1,2.2-2.3,4.7-3.5,6.6h4.9v2.5h-7.9v2.8c0,1.5,0,3.3-0.2,5.2h9.2v2.5h-9.6l-0.4,2
					c3.4,3,7.3,7,9.2,9.7l-2,1.7c-1.6-2.4-4.9-6-8-8.9c-1.5,3.9-4.2,7.9-8.8,11.5c-0.4-0.5-1.4-1.3-2.1-1.7
					c6.2-4.4,8.6-9.6,9.6-14.3h-9.2v-2.5h9.6c0.2-1.9,0.2-3.7,0.2-5.2v-2.8h-8.5v-2.5h11.4c1.3-2.1,2.7-5.2,3.5-7.4L1258,292.5z
					 M1244.9,291.8c1.5,1.8,3,4.1,3.6,5.8l-2.4,1.1c-0.6-1.6-2.1-4.1-3.4-5.9L1244.9,291.8z M1273.2,293.6l0.4-0.1l2,1.2
					c-1.6,3.8-3.8,8.4-5.7,12.1c4.2,3.8,5.2,7,5.3,9.8c0,2.4-0.6,4.2-2,5.2c-0.7,0.4-1.6,0.7-2.6,0.8c-1,0.1-2.4,0.1-3.5,0
					c0-0.8-0.3-1.9-0.8-2.6c1.2,0.1,2.4,0.1,3.3,0.1c0.7,0,1.3-0.2,1.8-0.5c0.9-0.6,1.2-1.8,1.2-3.3c0-2.6-1.2-5.6-5.4-9.2
					c1.8-3.5,3.6-7.9,4.9-11.1h-7.7v32h-2.6v-34.6h11.4V293.6z"/>
				<path class="st1" d="M1312.4,294.1v29.8c0,2-0.4,2.9-1.8,3.4s-3.8,0.5-7.4,0.5c-0.1-0.8-0.5-2.1-1-3c2.9,0.1,5.6,0.1,6.5,0
					c0.8,0,1-0.2,1-1v-27.3h-29.1v-2.6h31.8V294.1z M1305,301.1v2.4h-24.2v-2.4H1305z M1302.1,308.1v12.6h-16v3h-2.6v-15.6H1302.1z
					 M1286.1,318.4h13.4v-7.9h-13.4V318.4z"/>
				<path class="st1" d="M1325.5,325.7c0.7-0.3,1.8-1,1.8-2.6v-10.3c-2.1,1.5-4.4,2.8-7,3.8c-0.4-0.6-1.4-1.7-2-2.2
					c8.2-3,13.4-7.9,16.6-15.4h-11.4v5.6h-2.6v-8.1h15c0.6-1.6,1-3.3,1.4-5.2l2.7,0.5c-0.4,1.6-0.8,3.2-1.3,4.6h14.5v8.1h-2.7v-5.6
					h-12.7l-0.4,1.1c1.1,4.6,2.6,8.8,4.6,12.5c2.6-1.8,5.8-4.3,7.7-6.3l2.1,1.8c-2.4,2.2-5.8,4.8-8.5,6.6c3,4.7,7,8.3,12.2,10.4
					c-0.6,0.5-1.5,1.5-1.9,2.3c-9.2-4.2-14.7-12.6-17.9-23.8c-1.6,2.8-3.4,5.1-5.7,7.2V324l9.5-2.8c0,0.8,0.1,1.9,0.2,2.4
					c-10.7,3.4-12.1,3.8-13,4.4C1326.6,327.5,1326,326.3,1325.5,325.7z"/>
				<path class="st1" d="M1367.3,304.1v17.2l3.8-3c0.3,0.7,0.7,1.7,1,2.2c-6.2,5.1-7.2,6-7.8,6.8l0,0c-0.3-0.6-1-1.5-1.5-1.9
					c0.6-0.5,1.9-1.8,1.9-3.8v-14.9h-6.1v-2.6L1367.3,304.1L1367.3,304.1z M1363.1,292.5c2.2,1.8,4.9,4.2,6.2,5.8l-1.8,2
					c-1.3-1.7-4-4.3-6.1-6.1L1363.1,292.5z M1385.3,305.4v4.9c0,1.6-0.1,3.2-0.4,4.8h10v2.4h-10.6c-1.5,4-4.8,7.8-12.3,10.8
					c-0.3-0.6-1.1-1.6-1.6-2.1c6.4-2.4,9.5-5.6,11-8.7H1371v-2.4h11.2c0.5-1.7,0.6-3.4,0.6-4.9v-4.8L1385.3,305.4L1385.3,305.4z
					 M1381.6,301.4v-3.8h-8.4v-2.3h8.4v-3.8h2.6v3.8h8.4v2.3h-8.4v3.8h8l0.4-0.1l1.7,0.4c-0.8,2.6-1.9,5.6-2.8,7.4l-2.2-0.6
					c0.6-1.2,1.3-3,1.8-4.8h-19.5v-2.3H1381.6z M1373.2,309.1c2.1,1,4.7,2.7,5.9,4l-1.3,1.6c-1.2-1.3-3.8-3-5.9-4.2L1373.2,309.1z
					 M1376.1,305.5c2.1,1,4.6,2.6,5.8,3.9l-1.4,1.6c-1.2-1.2-3.6-2.9-5.8-4L1376.1,305.5z M1386,319.2c3.2,2.1,7.3,5.2,9.2,7.4
					l-1.7,1.8c-1.9-2.2-5.9-5.4-9.2-7.6L1386,319.2z"/>
				<path d="M1429.6,301.1c0.9-3.1,2-6.2,3.4-9.4h2.6c-0.9,3.4-1.5,6.7-2,9.8h-3.8L1429.6,301.1z"/>
				<path class="st1" d="M1475.4,325.5c-0.6,0.6-1.4,1.7-1.8,2.4c-8.7-2.4-14-7.9-17-16.2c-2,7-6.4,13-15.7,16.4
					c-0.3-0.6-1.1-1.6-1.8-2.2c16.7-6,16.3-19.9,16.4-34.1h2.9c0,5.2-0.1,10.4-0.8,15.3h0.2C1460.2,316.7,1465.7,323.2,1475.4,325.5
					z M1448.2,300.4c-1,4-2.7,8.9-5.3,11.8l-2.5-1.3c2.6-2.9,4.3-7.5,5.2-11.3L1448.2,300.4z M1473.4,300.7
					c-1.8,3.8-4.2,8.4-6.2,11.3l-2.2-1c1.9-3,4.3-7.9,5.6-11.4L1473.4,300.7z"/>
				<path d="M1484.4,292.2c-0.9,3.1-2,6.2-3.4,9.4h-2.6c0.9-3.4,1.5-6.6,2-9.8h3.8L1484.4,292.2z"/>
				<path class="st1" d="M1518.4,305.5c0.7-0.1,1.5-1.1,2.4-2.5c1-1.4,4.1-6.7,6-11.7l2.5,1.2c-2,4.4-4.5,9-7,12.5l5.7-0.6
					c0.9-1.4,1.8-2.8,2.6-4.3l2.2,1.3c-2.8,4.6-6,9.1-9.3,12.7l9.4-1.8c0,0.7,0,1.7,0,2.3c-11.2,2.2-12.5,2.6-13.4,3.1
					c-0.1-0.6-0.5-1.8-0.8-2.4c0.8-0.2,1.8-1.2,3.1-2.6c0.8-0.8,2.6-3,4.5-5.8c-5.4,0.7-6.4,1-7,1.3
					C1519.2,307.5,1518.7,306.2,1518.4,305.5z M1533.1,319.7l0.2,2.3c-5,1.2-10.3,2.5-14.2,3.5l-0.5-2.6
					C1522.2,322.3,1527.7,321,1533.1,319.7z M1542,291.7c-0.5,1.3-1,2.6-1.6,3.8h7.7l0.5-0.2l1.7,1.2c-1,2.1-2.4,4.4-3.8,6.2h6.5
					v12.4h-15.8v7.8c0,1.8,0.5,2.2,3.2,2.2c1.2,0,8,0,9.6,0c2.2,0,2.6-0.9,2.8-5.3c0.6,0.4,1.7,0.9,2.4,1c-0.4,5.1-1.3,6.7-5.1,6.7
					c-1,0-8.9,0-9.8,0c-4.3,0-5.6-0.9-5.6-4.6v-18.5l-1,1.2c-0.4-0.4-1.5-1.3-2-1.7c3.2-3.2,6.1-8,7.9-12.8L1542,291.7z
					 M1539.1,297.9c-1,1.7-2,3.3-3,4.8h7.8l-0.1-0.1c1-1.2,2.1-3.1,2.9-4.7L1539.1,297.9L1539.1,297.9z M1537.2,305.1v7.7h5.5v-7.7
					H1537.2z M1545,312.8h5.4v-7.7h-5.4V312.8z"/>
				<path class="st1" d="M1566.9,320c7.4-4.2,15.5-11.7,20-17.8h-25.8v-2.6h27.8l0.6-0.2l2,1.3c-4.9,7.4-14,15.8-22.2,20.8l1.3,0.9
					c2.5,1.6,5.8,1.9,10.3,1.9c4.8,0,10.7-0.3,14.6-0.7c-0.3,0.7-0.7,2.2-0.8,2.9c-3,0.2-10,0.4-13.8,0.4c-4.9,0-8.2-0.4-10.8-2.2
					c-1.6-1-2.9-2.4-3.7-2.4c-1.3,0-3.2,2.3-5.2,5l-2-2.4c2.6-2.9,5.2-5.1,7.2-5.1C1566.4,319.9,1566.7,319.9,1566.9,320z
					 M1576.1,291.3c1.6,2.1,3.5,4.9,4.4,6.5l-2.5,1.4c-0.8-1.8-2.6-4.7-4.2-6.8L1576.1,291.3z"/>
				<path d="M1604.4,292.2c-0.9,3.1-2,6.2-3.4,9.4h-2.6c0.8-3.4,1.5-6.6,2-9.8h3.8L1604.4,292.2z M1611.8,292.2
					c-0.9,3.1-2,6.2-3.4,9.4h-2.6c0.9-3.4,1.5-6.6,2-9.8h3.8L1611.8,292.2z"/>
				<path d="M1644.8,315.3c1.7,0,3.2,0.6,4.3,1.8c1.2,1.2,1.8,2.6,1.8,4.3c0,1.7-0.6,3.2-1.8,4.3s-2.6,1.8-4.3,1.8
					c-1.7,0-3.1-0.6-4.3-1.8s-1.8-2.6-1.8-4.3c0-1.7,0.6-3.1,1.8-4.3C1641.7,315.9,1643.1,315.3,1644.8,315.3z M1644.8,325.4
					c1.1,0,2.1-0.4,2.9-1.2c0.8-0.8,1.2-1.8,1.2-2.9s-0.4-2-1.2-2.8c-0.8-0.8-1.8-1.2-2.9-1.2s-2,0.4-2.8,1.2
					c-0.8,0.8-1.2,1.7-1.2,2.8c0,1.1,0.4,2.1,1.2,2.9S1643.7,325.4,1644.8,325.4z"/>
				<path class="st1" d="M1687.3,304.1v17.2l3.8-3c0.3,0.7,0.7,1.7,1,2.2c-6.2,5.1-7.2,6-7.8,6.8l0,0c-0.3-0.6-1-1.5-1.5-1.9
					c0.6-0.5,1.9-1.8,1.9-3.8v-14.9h-6.1v-2.6L1687.3,304.1L1687.3,304.1z M1683.1,292.5c2.2,1.8,4.9,4.2,6.2,5.8l-1.8,2
					c-1.3-1.7-4-4.3-6.1-6.1L1683.1,292.5z M1705.3,305.4v4.9c0,1.6-0.1,3.2-0.4,4.8h10v2.4h-10.6c-1.5,4-4.8,7.8-12.3,10.8
					c-0.3-0.6-1.1-1.6-1.6-2.1c6.4-2.4,9.5-5.6,11-8.7H1691v-2.4h11.2c0.5-1.7,0.6-3.4,0.6-4.9v-4.8L1705.3,305.4L1705.3,305.4z
					 M1701.6,301.4v-3.8h-8.4v-2.3h8.4v-3.8h2.6v3.8h8.4v2.3h-8.4v3.8h8l0.4-0.1l1.7,0.4c-0.8,2.6-1.9,5.6-2.8,7.4l-2.2-0.6
					c0.6-1.2,1.3-3,1.8-4.8h-19.5v-2.3H1701.6z M1693.2,309.1c2.1,1,4.7,2.7,5.9,4l-1.3,1.6c-1.2-1.3-3.8-3-5.9-4.2L1693.2,309.1z
					 M1696.1,305.5c2.1,1,4.6,2.6,5.8,3.9l-1.4,1.6c-1.2-1.2-3.6-2.9-5.8-4L1696.1,305.5z M1706,319.2c3.2,2.1,7.3,5.2,9.2,7.4
					l-1.7,1.8c-1.9-2.2-5.9-5.4-9.2-7.6L1706,319.2z"/>
				<path class="st1" d="M1743,305.6h-16.6v-2.5h19.4l0.6-0.2l1.8,1.4c-2.5,2.6-6.2,5.3-9.7,7.2v1.6h15.7v2.6h-15.7v9.1
					c0,1.6-0.4,2.4-1.8,2.9c-1.3,0.4-3.3,0.4-6.7,0.4c-0.2-0.7-0.7-1.9-1.2-2.6c2.7,0.1,5.2,0.1,6,0c0.7,0,0.9-0.2,0.9-0.8v-9.1
					h-15.8V313h15.8v-2.6C1738.1,309.3,1740.9,307.4,1743,305.6z M1736.7,291.2c1,1.4,2.2,3.2,2.7,4.5h14.4v8.1h-2.8v-5.5h-28v5.5
					h-2.7v-8.1h16c-0.6-1.2-1.4-2.6-2.2-3.7L1736.7,291.2z"/>
				<path class="st1" d="M1770.3,300.3c-1,1.8-2.2,3.5-3.6,5.2v22.8h-2.5v-19.8c-1.6,1.7-3.2,3.3-4.8,4.6c-0.3-0.6-1.1-1.8-1.6-2.4
					c3.7-2.8,7.6-7,10-11.3L1770.3,300.3z M1769.4,292.5c-2.3,3.3-6,7-9.5,9.4c-0.4-0.5-1.1-1.5-1.5-2c3.2-2.1,6.8-5.6,8.6-8.4
					L1769.4,292.5z M1784.2,292.3l-0.9,1.5c3.7,4.8,7.8,7.8,12,10.2c-0.6,0.5-1.4,1.4-1.8,2.2c-1.1-0.7-2.2-1.4-3.2-2.2v2.3h-6.8
					v5.3h10.8v2.4h-10.8v11c0,1.6-0.4,2.3-1.4,2.8c-1.1,0.4-2.9,0.5-5.8,0.5c-0.2-0.7-0.6-1.8-1-2.6c2.3,0.1,4.2,0.1,4.8,0.1
					c0.6,0,0.8-0.2,0.8-0.8v-11h-10.6v-2.4h10.6v-5.3h-6.2v-2.4h15.4c-2.8-2.1-5.5-4.6-8.2-8c-3,4.2-7,7.9-11.2,10.4
					c-0.4-0.6-1.1-1.4-1.8-2c5.1-2.7,10.2-7.7,12.9-12.8L1784.2,292.3z M1776.8,316.7c-1.3,3.3-3.4,6.8-5.3,9
					c-0.5-0.4-1.6-1.1-2.2-1.4c2-2.2,3.9-5.3,5-8.3L1776.8,316.7z M1789.4,316c2.3,2.6,4.6,6,5.7,8.3l-2.2,1.3
					c-1-2.4-3.4-5.9-5.5-8.5L1789.4,316z"/>
				<path class="st1" d="M1806.2,320.7c0.8,0.5,1.7,1.3,3.2,2.3c2.7,1.8,6.2,2,11,2c5.2,0,11.3-0.4,15.4-0.8
					c-0.4,0.7-0.8,2.1-0.9,2.9c-2.9,0.2-10.5,0.4-14.6,0.4c-5.3,0-8.7-0.4-11.6-2.3c-1.7-1.1-3-2.6-3.9-2.6c-1.2,0-2.9,2.5-4.7,5.3
					l-2-2.5c2-2.4,3.8-4.3,5.4-5v-13h-4.8v-2.5h7.4L1806.2,320.7L1806.2,320.7z M1802.4,292.5c1.7,2.6,3.6,6,4.4,8.1l-2.4,1.2
					c-0.8-2.2-2.6-5.7-4.3-8.3L1802.4,292.5z M1818.9,292.9c-3,1.8-7.4,3.5-11.2,4.8c-0.2-0.4-0.5-1.2-0.8-1.6
					c3.7-1.3,7.9-3,10.2-4.6L1818.9,292.9z M1820.3,299.3c-1.2,1.5-2.8,3-4.7,4.3c4.4,5.4,4.2,15.4,2,17.6c-0.8,1-1.7,1.3-3.1,1.3
					c-0.6,0-1.6,0-2.4,0c0-0.6-0.2-1.6-0.6-2.2c1,0.1,2,0.1,2.5,0.1c0.8,0,1.3-0.1,1.8-0.7c0.8-0.8,1.3-3.3,1.1-6.3
					c-2.3,2.2-5.4,4.5-8,5.9c-0.3-0.5-0.8-1.3-1.3-1.8c3-1.3,6.8-4,9-6.5c-0.2-0.9-0.4-1.9-0.7-2.8c-2,1.8-4.6,3.6-6.8,4.8
					c-0.3-0.5-0.8-1.3-1.3-1.7c2.4-1,5.5-3,7.4-4.8c-0.4-0.7-0.8-1.3-1.2-1.9c-1.7,1.1-3.6,2.2-5.5,3c-0.3-0.4-1-1.2-1.4-1.6
					c1.6-0.7,3.3-1.6,4.8-2.6c-0.8-1.3-2.1-3-3.2-4.3l1.6-0.9c1,1.3,2.3,2.9,3.2,4.1c0.7-0.5,1.4-1,2-1.6c-0.7-1.1-1.8-2.6-2.7-3.8
					l1.6-0.8c0.8,1,1.8,2.3,2.5,3.3c0.5-0.5,1-1,1.4-1.5L1820.3,299.3z M1824.5,295.7c0.4-1.4,0.9-3,1.1-4.3l2.7,0.4l-1.4,3.8h6.4
					v13.1h-3.5V319c0,0.8,0,1.2,0.2,1.4c0.1,0.1,0.3,0.2,0.6,0.2c0.3,0,0.8,0,1,0c0.3,0,0.7,0,0.8-0.2c0.2-0.2,0.3-0.5,0.4-1.1
					s0.1-2.1,0.2-4c0.4,0.4,1.1,0.8,1.7,0.9c0,1.7-0.1,3.7-0.3,4.4c-0.2,0.7-0.5,1.1-0.9,1.4s-1.1,0.4-1.6,0.4c-0.4,0-1.4,0-1.7,0
					c-0.6,0-1.4-0.2-1.9-0.6s-0.6-1-0.6-3.1v-9.9h-2.3c-0.3,7.1-1.3,11.7-5.9,14.4c-0.2-0.5-0.9-1.3-1.4-1.7c4-2.4,4.9-6.3,5.2-12.7
					h-2.9v-13.1L1824.5,295.7L1824.5,295.7z M1822.8,301.3h8.1v-3.5h-8.1V301.3z M1822.8,306.8h8.1v-3.6h-8.1V306.8z"/>
				<path class="st1" d="M1049.6,358c1.3,1.9,2.4,4.5,2.7,6.2l-1.7,0.4h11c1.1-1.9,2.3-4.8,3-6.8l2.9,0.7c-1,2-2,4.3-3.1,6.1h10.4
					v2.4h-35.6v-2.4h10.3c-0.4-1.8-1.3-4.2-2.4-6.1L1049.6,358z M1057.2,351.2c0.9,1.2,1.6,2.8,2,4h13.6v2.4h-31.3v-2.4h14.7
					c-0.4-1.2-1-2.4-1.7-3.5L1057.2,351.2z M1069.6,370.8v17.3h-2.8v-1.4h-19.3v1.6h-2.6v-17.4h24.7V370.8z M1066.8,377.5v-4.4
					h-19.3v4.4H1066.8z M1047.5,384.3h19.3v-4.6h-19.3V384.3z"/>
				<path class="st1" d="M1107.2,375.4c-1.4,2.8-3.2,6.2-4.7,8.8h12.2v2.5h-35.3v-2.5h20.4c1.6-2.7,3.5-6.8,4.6-9.6L1107.2,375.4z
					 M1113.6,353.6v2.5h-33.5v-2.5H1113.6z M1109.4,360.6v12.9h-25.6v-12.9H1109.4z M1086.6,371h20v-7.8h-20V371z M1089.3,374.5
					c1.4,2.6,2.8,6,3.3,8.1l-2.6,0.8c-0.5-2.1-1.8-5.6-3.1-8.2L1089.3,374.5z"/>
				<path d="M1129.2,378.7c-0.4,1.6-1,3.3-1.7,5.1s-1.4,3.6-2.1,5.2h-2.9c1-3.7,1.7-7.3,2.3-10.8h4.1L1129.2,378.7z"/>
				<path class="st1" d="M1178,360.3c-0.4,15.4-1.5,24-17.5,27.8c-0.3-0.6-1-1.7-1.6-2.3c15.4-3.4,16-11.1,16.3-25.5H1178z
					 M1189.6,353.8v22.8h-2.8v-20.1H1167v20.1h-2.8v-22.8H1189.6z M1180.5,373.2v10.1c0,1.2,0.4,1.4,2.4,1.4c1,0,5.7,0,7,0
					c2,0,2.3-0.8,2.4-6.2c0.6,0.5,1.7,0.9,2.5,1c-0.4,6.2-1.2,7.7-4.7,7.7c-0.9,0-6.5,0-7.3,0c-3.8,0-4.9-0.8-4.9-3.9v-10.2h2.6
					V373.2z"/>
				<path d="M1220.3,369.8l9.4,18.6h-3.2l-9.4-18.6l9.4-18.6h3.2L1220.3,369.8z M1226.4,369.8l9.4,18.6h-3.2l-9.4-18.6l9.4-18.6h3.2
					L1226.4,369.8z"/>
				<path class="st1" d="M1238.4,365.4c0.7-0.2,1.4-1.1,2.3-2.5c1-1.3,4-6.6,5.8-11.4l2.6,1.2c-1.9,4.3-4.4,8.8-6.9,12.3l5.8-0.6
					c1-1.4,1.9-2.9,2.7-4.4l2.4,1.4c-2.8,4.5-6,8.9-9.3,12.5l8.4-1.5c-0.1,0.7-0.1,1.8,0,2.4c-10.3,2.1-11.6,2.4-12.5,3
					c-0.2-0.6-0.6-1.9-0.9-2.6c0.9-0.2,1.8-1.2,3.2-2.6c0.8-0.8,2.6-3,4.5-5.6c-5.4,0.7-6.4,1-7,1.3
					C1239.2,367.5,1238.8,366.1,1238.4,365.4z M1252,379.7l0.3,2.4c-4.6,1.2-9.5,2.4-13.1,3.4l-0.6-2.7
					C1242,382.2,1247,380.9,1252,379.7z M1270,353.7l0.5-0.1l1.9,1c-1.6,3.2-4,6-6.9,8.4c3.6,1.5,7.7,3.5,10,4.9l-1.6,2.2
					c-2.3-1.6-6.7-3.8-10.5-5.5c-3.3,2.4-7,4.3-10.6,5.6c-0.4-0.6-1.1-1.7-1.6-2.2c6.4-2.2,13.4-6.5,17.1-11.9H1254v-2.4H1270z
					 M1273.5,371.8v2.5h-8.6v10.2h10.4v2.5h-23.6v-2.5h10.5v-10.2h-8.1v-2.5H1273.5z"/>
				<path class="st1" d="M1291.3,356.3v-4.9h2.5v4.9h6.3v-5h2.5v5h9v19.8h3.7v2.5h-36.7v-2.5h4v-19.8H1291.3z M1293.2,381.1
					c-3.1,2.6-8,5.4-12.1,7c-0.4-0.6-1.4-1.4-2-1.9c4.2-1.6,9.1-4.3,11.6-6.6L1293.2,381.1z M1291.3,358.9h-6v7h6V358.9z
					 M1291.3,368.4h-6v7.8h6V368.4z M1300.1,365.9v-7h-6.3v7H1300.1z M1300.1,376.2v-7.8h-6.3v7.8H1300.1z M1302.8,379.5
					c4.3,2.1,8.9,4.7,11.7,6.6l-2.3,1.8c-2.7-2-7-4.6-11.2-6.7L1302.8,379.5z M1309,365.9v-7h-6.3v7H1309z M1309,376.2v-7.8h-6.3
					v7.8H1309z"/>
				<path class="st1" d="M1334.4,353.9c-1.7,0.5-3.8,0.9-6.1,1.2v10.8h5.3v2.4h-5.3v0.4c1.4,1.2,5.2,5.2,6,6.2l-1.8,1.9
					c-0.8-1.2-2.7-3.5-4.3-5.2v16.6h-2.5v-16.1c-1.7,3.9-4,7.8-6.1,10.1c-0.3-0.8-0.9-1.9-1.4-2.6c2.5-2.4,5.4-7.2,7-11.3h-6.2v-2.4
					h6.7v-10.4c-2.2,0.3-4.4,0.4-6.4,0.6c-0.1-0.6-0.4-1.4-0.7-2c4.9-0.4,10.8-1.2,14.1-2.2L1334.4,353.9z M1321.5,357.5
					c1.2,1.8,2.4,4.2,3,5.8l-2,0.8c-0.5-1.6-1.7-4-2.8-5.8L1321.5,357.5z M1334.5,357.9c-1,2.1-2.2,4.5-3.3,6l-1.8-0.7
					c1-1.6,2.3-4.3,3-6.1L1334.5,357.9z M1352.4,353.6l0.5-0.1l1.6,0.9c-1.8,3.6-4.5,6.7-7.8,9.2c2.7,1.8,5.8,3.2,9.2,4
					c-0.5,0.5-1.2,1.5-1.5,2.2c-3.6-1-6.8-2.7-9.6-4.8c-3.1,2.1-6.5,3.7-9.8,4.8c-0.3-0.6-1-1.6-1.4-2.2c3.1-0.9,6.4-2.4,9.4-4.2
					c-2.2-2.1-4.1-4.6-5.5-7.4h-1.8v-2.4H1352.4z M1346.1,368.7v3.6h7.2v2.4h-7.2v4.4h8.9v2.4h-8.9v6.7h-2.7v-6.7h-9v-2.4h9v-4.4
					h-7.4v-2.4h7.4v-3.6H1346.1z M1339.8,356c1.3,2.3,3,4.3,5.1,6c2.4-1.8,4.5-3.8,6-6H1339.8z"/>
				<path class="st1" d="M1395.1,358.6v2.6h-6.3c-2.4,6.4-5.6,11.6-9.6,15.8c4.5,3.8,10,6.8,16.4,8.4c-0.6,0.6-1.4,1.7-1.8,2.5
					c-6.6-1.8-12.1-4.9-16.7-9c-4.6,4-10.1,6.9-16.9,9.1c-0.3-0.6-1.1-1.9-1.7-2.5c6.7-2,12.2-4.7,16.6-8.5
					c-4.2-4.3-7.4-9.7-9.8-15.8h-6.2v-2.6H1395.1z M1385.7,361.2H1368c2.2,5.3,5.2,10,9.1,13.9
					C1380.8,371.4,1383.6,366.8,1385.7,361.2z M1376.8,351.3c1.2,1.9,2.6,4.5,3.2,6.2l-2.9,1c-0.5-1.6-1.8-4.3-3.1-6.3L1376.8,351.3
					z"/>
				<path d="M1407.6,369.8l-9.4-18.6h3.2l9.4,18.6l-9.4,18.6h-3.2L1407.6,369.8z M1413.7,369.8l-9.4-18.6h3.2l9.4,18.6l-9.4,18.6
					h-3.2L1413.7,369.8z"/>
				<path d="M1448.9,369.8c0,3.4-0.5,6.7-1.5,10s-2.6,6.1-4.7,8.7h-3.5c2-2.7,3.5-5.6,4.5-8.8c1-3.2,1.5-6.5,1.5-9.8
					c0-3.4-0.5-6.7-1.5-9.9c-1-3.2-2.5-6.1-4.5-8.8h3.6c2.1,2.6,3.7,5.5,4.7,8.7C1448.4,363.1,1448.9,366.4,1448.9,369.8z"/>
				<path d="M1489.2,378.7c-0.4,1.6-1,3.3-1.7,5.1s-1.4,3.6-2.1,5.2h-2.9c1-3.7,1.7-7.3,2.3-10.8h4.1L1489.2,378.7z"/>
				<path class="st1" d="M1548.9,354.5l0.5-0.2l1.8,0.8c-2.4,9.2-6.6,16.3-12.1,21.6c4.4,4,10,6.9,16.6,8.6
					c-0.6,0.6-1.4,1.7-1.8,2.4c-6.8-1.8-12.4-4.9-16.9-9c-4.9,4.2-10.6,7.1-16.7,9.1c-0.3-0.6-1.1-1.9-1.7-2.4
					c6-1.8,11.7-4.6,16.5-8.6c-5-5.2-8.5-11.8-11-19.7h-3.2v-2.6L1548.9,354.5L1548.9,354.5z M1537.2,374.9
					c4.8-4.5,8.5-10.4,10.7-17.8h-21.1C1529,364.1,1532.4,370.1,1537.2,374.9z"/>
				<path class="st1" d="M1573.2,353.9c-1.4,0.6-3.2,1.2-5.2,1.7v7.4h5.3v2.5h-5.3v1.6c1.1,1.1,4.4,4.9,5.2,5.9l-1.6,2.1
					c-0.6-1.2-2.3-3.6-3.6-5.3v18.4h-2.5v-18.3c-1.6,4.2-3.8,8.3-5.8,10.8c-0.3-0.6-1-1.7-1.4-2.2c2.5-2.9,5.3-8.3,6.8-13h-6V363
					h6.4v-6.8c-1.8,0.4-3.5,0.7-5.2,0.9c-0.1-0.6-0.5-1.5-0.8-2.1c4.2-0.7,9.1-1.9,11.9-3.2L1573.2,353.9z M1580.2,367.5
					c-1.1,5.4-3,10.8-5.2,14.2c-0.5-0.4-1.6-1.1-2.2-1.4c2.3-3.2,4-8.3,4.9-13.3L1580.2,367.5z M1581,352.1
					c-0.3,1.6-0.7,3.3-1.2,4.8h13.3l0.4-0.2l1.8,0.5c-1,2.4-2.2,5-3.2,7.3l-2.4-0.6c0.8-1.4,1.6-3.1,2.2-4.6h-5.8v25.4
					c0,1.6-0.4,2.3-1.4,2.8c-1,0.4-2.7,0.4-5.2,0.4c-0.2-0.7-0.6-1.8-1-2.6c1.9,0,3.7,0,4.2,0s0.7-0.2,0.7-0.7v-25.4h-4.3
					c-1.1,3.2-2.4,6-3.9,8.2c-0.5-0.4-1.6-1-2.3-1.4l0.5-0.7c2.4-3.6,4.1-8.7,5-13.9L1581,352.1z M1590.7,366.6
					c1.9,4.4,3.6,10.1,4.2,13.9l-2.5,0.8c-0.6-3.8-2.3-9.6-4.1-14L1590.7,366.6z"/>
				<path d="M1628.2,351.8c-0.9,3.4-1.5,6.7-2,9.8h-3.8l-0.2-0.4c0.9-3.1,2-6.2,3.4-9.4H1628.2z M1635.6,351.8
					c-0.9,3.4-1.5,6.7-2,9.8h-3.8l-0.3-0.4c0.9-3.1,2-6.2,3.5-9.4H1635.6z"/>
				<path class="st1" d="M1651.4,352.2c-0.6,1.8-1.2,3.6-2,5.2h24.2c0,0,0,1.1,0,1.5c-0.7,19-1.3,25.6-3,27.6
					c-0.9,1.2-1.9,1.5-3.4,1.6s-4.4,0-7-0.1c0-0.8-0.4-2-0.9-2.8c3.1,0.2,5.9,0.2,7,0.2c0.8,0,1.4-0.1,1.9-0.6
					c1.5-1.5,2.2-8,2.7-24.9h-22.6c-2.1,4.2-4.6,7.8-7.2,10.6c-0.5-0.5-1.6-1.4-2.3-1.8c4.4-4.1,8-10.6,10.1-17.4L1651.4,352.2z
					 M1661.9,365.9v14.4h-13v2.9h-2.6v-17.3H1661.9z M1648.9,377.8h10.3v-9.4h-10.3V377.8z"/>
				<path class="st1" d="M1687.1,351.5v8.2h5.2v2.5h-5.2v8.2l3.9-1.2l0.4,2.4l-4.3,1.3v11.6c0,1.6-0.4,2.3-1.4,2.7
					c-1,0.4-2.6,0.5-5.4,0.5c-0.1-0.7-0.4-1.8-0.8-2.5c1.9,0.1,3.7,0,4.2,0c0.6,0,0.8-0.2,0.8-0.8v-10.8l-5.3,1.6l-0.8-2.6l6.1-1.7
					v-9h-5.6v-2.5h5.6v-8.2h2.6V351.5z M1710.1,369.2l0.5-0.1l1.8,0.8c-1.7,4.8-4.5,8.6-8,11.5c3.1,2,6.8,3.5,10.9,4.4
					c-0.6,0.6-1.4,1.7-1.8,2.4c-4.4-1-8.2-2.8-11.4-5.1c-3.6,2.4-7.7,4.1-12,5.2c-0.2-0.7-0.8-1.8-1.4-2.4c4-0.8,7.8-2.3,11.2-4.4
					c-2.9-2.6-5.2-5.8-6.8-9.5l0.3-0.1h-1.5v-2.5h18.2V369.2z M1708.4,353v9.4c0,1.1,0.1,1.5,0.8,1.5c0.6,0,2.7,0,3.3,0
					c0.6,0,1.4,0,2-0.2c0,0.7,0.1,1.7,0.2,2.3c-0.5,0.2-1.4,0.2-2.2,0.2c-0.6,0-3,0-3.5,0c-2.6,0-3.2-1-3.2-3.9v-6.8h-7.3v2
					c0,3.6-1.1,7.8-6,10.6c-0.3-0.5-1.3-1.5-1.8-1.9c4.5-2.6,5.2-5.9,5.2-8.8V353H1708.4z M1695.8,371.7c1.5,3.1,3.6,5.8,6.4,8
					c2.8-2.2,5-4.8,6.6-8H1695.8z"/>
				<path d="M1724.4,352.2c-0.9,3.1-2,6.2-3.4,9.4h-2.6c0.8-3.4,1.5-6.6,2-9.8h3.8L1724.4,352.2z M1731.8,352.2
					c-0.9,3.1-2,6.2-3.4,9.4h-2.6c0.9-3.4,1.5-6.6,2-9.8h3.8L1731.8,352.2z"/>
				<path d="M1785.1,369.8c0-3.4,0.5-6.8,1.5-9.9c1-3.2,2.6-6.1,4.7-8.7h3.6c-2,2.7-3.5,5.6-4.5,8.8c-1,3.2-1.5,6.4-1.5,9.9
					c0,3.4,0.5,6.7,1.5,9.8c1,3.2,2.5,6.1,4.5,8.8h-3.5c-2.1-2.5-3.7-5.4-4.7-8.7C1785.6,376.5,1785.1,373.2,1785.1,369.8z"/>
				<path class="st1" d="M1825.4,377.1v2.6h-26.1v-2.6H1825.4z M1808.8,359.9c-0.2,3-0.6,6.6-1,9.5h16c0.6-4.1,1.1-9.2,1.4-12.8
					h-22.9V354h23.4l0.5-0.1l2,0.2c-0.3,4.2-1,10.4-1.6,15.4h7c0,0,0,0.9-0.1,1.3c-1,10.6-1.8,14.7-3.4,16.2
					c-0.8,0.8-1.7,1.1-3.1,1.2c-1.3,0.1-3.7,0-6.3-0.1c0-0.8-0.4-1.9-0.9-2.6c2.7,0.2,5.2,0.3,6.2,0.3c0.9,0,1.4-0.1,1.8-0.4
					c1.2-1.1,2.1-4.7,2.9-13.3h-25.8c0.5-3.2,1-8.4,1.3-12.2H1808.8z"/>
				<path class="st1" d="M1057.9,413.3v2.3h-18.7v-2.3H1057.9z M1057.4,428.5V445c0,1.2-0.2,1.9-1.1,2.3c-0.8,0.4-2.2,0.4-4.3,0.4
					c-0.1-0.6-0.4-1.5-0.7-2.2c1.5,0,2.8,0,3.2,0c0.4,0,0.6-0.1,0.6-0.6v-14.3H1042V448h-2.2v-19.5H1057.4z M1056,418.1v8h-14.8v-8
					H1056z M1053.5,432.2c-0.9,1.6-1.8,3.5-2.7,5h2.9v1.9h-4.1v8h-2v-8h-4.4v-1.9h5.7c1-1.7,2.2-4.1,2.8-5.8L1053.5,432.2z
					 M1043.5,424.1h10v-4h-10V424.1z M1045.5,431.5c1,1.5,2,3.5,2.4,4.8l-1.7,0.7c-0.4-1.3-1.4-3.4-2.3-4.8L1045.5,431.5z
					 M1065.5,419.5v-7.8h2.4v7.8h5.9v14.9h-5.9v8.9l4.2-0.7c-0.6-1.8-1.3-3.7-2-5.4l2-0.5c1.6,3.4,3,8,3.4,10.8l-2.2,0.6
					c-0.1-0.9-0.4-2.1-0.7-3.3l-13.2,2.4l-0.7-2.6c1.8-0.2,4.2-0.6,6.7-1v-9.3h-6v-14.9h6.1V419.5z M1061.5,432h4.1v-10.2h-4.1V432z
					 M1067.8,432h3.9v-10.2h-3.9V432z"/>
				<path d="M1100.3,429.8l9.4,18.6h-3.2l-9.4-18.6l9.4-18.6h3.2L1100.3,429.8z M1106.4,429.8l9.4,18.6h-3.2l-9.4-18.6l9.4-18.6h3.2
					L1106.4,429.8z"/>
				<path class="st1" d="M1127.1,427.2v-15.5h2.8v15.5h24.8v2.7h-15.6c3,7.1,8.7,12.4,16.5,14.6c-0.7,0.6-1.5,1.7-1.9,2.5
					c-8.3-2.8-14.1-8.7-17.3-17.1h-6.5v14l9.8-2.5c0,0.8,0.1,1.9,0.2,2.5c-11,3-12.4,3.5-13.3,4c-0.2-0.6-0.7-1.8-1.1-2.4
					c0.7-0.3,1.6-0.8,1.6-2.4v-13.2h-7.8v-2.7H1127.1z M1150.6,413.5c-4,4.7-10,8.9-15.5,11.6c-0.5-0.6-1.5-1.7-2.2-2.2
					c5.7-2.4,11.6-6.3,15.1-10.6L1150.6,413.5z"/>
				<path class="st1" d="M1167,411.9c-0.4,1.3-0.9,2.6-1.4,3.9h10.9v2.4h-7.2c1,1.7,1.9,3.5,2.4,4.8l-2.4,0.9
					c-0.5-1.5-1.6-3.8-2.8-5.7h-2c-1.2,2.5-2.7,4.7-4.2,6.4c-0.5-0.4-1.6-1.2-2.2-1.5c2.8-2.8,5.1-7.2,6.4-11.7L1167,411.9z
					 M1182.6,411.9c-0.4,1.3-1,2.6-1.6,3.9h13.7v2.4h-8.8c1.2,1.7,2.4,3.6,2.9,4.9l-2.4,1.1c-0.6-1.6-2-4-3.5-6h-3.1
					c-1.1,1.9-2.4,3.6-3.6,5h2.1v4.3h13.4V448h-2.7v-1.8h-23.6v2h-2.6v-20.6h12.8v-3.7l-0.2,0.2c-0.5-0.4-1.6-1.2-2.2-1.5
					c3-2.7,5.4-6.8,6.8-11.2L1182.6,411.9z M1165.4,429.9v5.5h10.2v-5.5H1165.4z M1175.6,443.8v-6h-10.2v6H1175.6z M1178.3,435.5
					h10.7V430h-10.7V435.5z M1189,437.8h-10.7v6h10.7V437.8z"/>
				<path class="st1" d="M1207.2,419.2v10.9c0,5.6-0.6,13.1-7,17.6c-0.3-0.5-1-1.2-1.6-1.7c5.9-4,6.3-11.1,6.3-16v-10.9h2.3V419.2z
					 M1211.6,413.8v23.6h-2.1v-21.1h-7.2v21.2h-2v-23.7H1211.6z M1208.3,438.3c1.4,2,3,4.6,3.7,6.2l-2,1.2c-0.6-1.7-2.2-4.4-3.6-6.4
					L1208.3,438.3z M1214.6,444.1v-16.4h2.2v16l3.2-0.6v-18h2.2v6.6h3.9v2.3h-3.9v8.6l5-0.9l0.2,2.2c-5.2,1.1-10.5,2.1-14.4,2.9
					l-0.6-2.4L1214.6,444.1z M1228.4,411.5c0,3.4,0,6.6,0.2,9.7h6.8v2.3h-6.7c0.6,13.1,2.3,22.2,4.3,22.2c0.6,0,0.9-2.2,1-6.8
					c0.5,0.5,1.3,1,1.9,1.3c-0.4,6-1.1,7.9-3.3,7.9c-3.8,0-5.5-10.7-6.2-24.6h-13.5v-2.3h13.4c-0.1-3.1-0.2-6.4-0.2-9.7H1228.4z
					 M1224.8,414.6v2.3h-10.1v-2.3H1224.8z M1231.3,412.5c1.5,1.6,3.2,3.8,3.8,5.3l-2,1c-0.7-1.5-2.3-3.8-3.8-5.4L1231.3,412.5z"/>
				<path d="M1247.6,429.8l-9.4-18.6h3.2l9.4,18.6l-9.4,18.6h-3.2L1247.6,429.8z M1253.7,429.8l-9.4-18.6h3.2l9.4,18.6l-9.4,18.6
					h-3.2L1253.7,429.8z"/>
				<path d="M1288.9,429.8c0,3.4-0.5,6.7-1.5,10s-2.6,6.1-4.7,8.7h-3.5c2-2.7,3.5-5.6,4.5-8.8c1-3.2,1.5-6.5,1.5-9.8
					c0-3.4-0.5-6.7-1.5-9.9c-1-3.2-2.5-6.1-4.5-8.8h3.6c2.1,2.6,3.7,5.5,4.7,8.7C1288.4,423.1,1288.9,426.4,1288.9,429.8z"/>
				<path d="M1329.2,438.7c-0.4,1.6-1,3.3-1.7,5.1s-1.4,3.6-2.1,5.2h-2.9c1-3.7,1.7-7.3,2.3-10.8h4.1L1329.2,438.7z"/>
				<path class="st1" d="M1388.9,414.5l0.5-0.2l1.8,0.8c-2.4,9.2-6.6,16.3-12.1,21.6c4.4,4,10,6.9,16.6,8.6
					c-0.6,0.6-1.4,1.7-1.8,2.4c-6.8-1.8-12.4-4.9-16.9-9c-4.9,4.2-10.6,7.1-16.7,9.1c-0.3-0.6-1.1-1.9-1.7-2.4
					c6-1.8,11.7-4.6,16.5-8.6c-5-5.2-8.5-11.8-11-19.7h-3.2v-2.6L1388.9,414.5L1388.9,414.5z M1377.2,434.9
					c4.8-4.5,8.5-10.4,10.7-17.8h-21.1C1369,424.1,1372.4,430.1,1377.2,434.9z"/>
				<path class="st1" d="M1413.2,413.9c-1.4,0.6-3.2,1.2-5.2,1.7v7.4h5.3v2.5h-5.3v1.6c1.1,1.1,4.4,4.9,5.2,5.9l-1.6,2.1
					c-0.6-1.2-2.3-3.6-3.6-5.3v18.4h-2.5v-18.3c-1.6,4.2-3.8,8.3-5.8,10.8c-0.3-0.6-1-1.7-1.4-2.2c2.5-2.9,5.3-8.3,6.8-13h-6V423
					h6.4v-6.8c-1.8,0.4-3.5,0.7-5.2,0.9c-0.1-0.6-0.5-1.5-0.8-2.1c4.2-0.7,9.1-1.9,11.9-3.2L1413.2,413.9z M1420.2,427.5
					c-1.1,5.4-3,10.8-5.2,14.2c-0.5-0.4-1.6-1.1-2.2-1.4c2.3-3.2,4-8.3,4.9-13.3L1420.2,427.5z M1421,412.1
					c-0.3,1.6-0.7,3.3-1.2,4.8h13.3l0.4-0.2l1.8,0.5c-1,2.4-2.2,5-3.2,7.3l-2.4-0.6c0.8-1.4,1.6-3.1,2.2-4.6h-5.8v25.4
					c0,1.6-0.4,2.3-1.4,2.8c-1,0.4-2.7,0.4-5.2,0.4c-0.2-0.7-0.6-1.8-1-2.6c1.9,0,3.7,0,4.2,0s0.7-0.2,0.7-0.7v-25.4h-4.3
					c-1.1,3.2-2.4,6-3.9,8.2c-0.5-0.4-1.6-1-2.3-1.4l0.5-0.7c2.4-3.6,4.1-8.7,5-13.9L1421,412.1z M1430.7,426.6
					c1.9,4.4,3.6,10.1,4.2,13.9l-2.5,0.8c-0.6-3.8-2.3-9.6-4.1-14L1430.7,426.6z"/>
				<path d="M1468.2,411.8c-0.9,3.4-1.5,6.7-2,9.8h-3.8l-0.2-0.4c0.9-3.1,2-6.2,3.4-9.4H1468.2z M1475.6,411.8
					c-0.9,3.4-1.5,6.7-2,9.8h-3.8l-0.3-0.4c0.9-3.1,2-6.2,3.5-9.4H1475.6z"/>
				<path class="st1" d="M1491.4,412.2c-0.6,1.8-1.2,3.6-2,5.2h24.2c0,0,0,1.1,0,1.5c-0.7,19-1.3,25.6-3,27.6
					c-0.9,1.2-1.9,1.5-3.4,1.6s-4.4,0-7-0.1c0-0.8-0.4-2-0.9-2.8c3.1,0.2,5.9,0.2,7,0.2c0.8,0,1.4-0.1,1.9-0.6
					c1.5-1.5,2.2-8,2.7-24.9h-22.6c-2.1,4.2-4.6,7.8-7.2,10.6c-0.5-0.5-1.6-1.4-2.3-1.8c4.4-4.1,8-10.6,10.1-17.4L1491.4,412.2z
					 M1501.9,425.9v14.4h-13v2.9h-2.6v-17.3H1501.9z M1488.9,437.8h10.3v-9.4h-10.3V437.8z"/>
				<path class="st1" d="M1538.7,411.3c0.8,1.3,1.6,3,2.1,4.2h14.1v2.6h-30.1v8.4c0,6.3-0.5,15.4-3.8,21.7c-0.5-0.4-1.7-1-2.4-1.2
					c3.3-6,3.6-14.5,3.6-20.4v-11h15.6c-0.5-1.2-1.1-2.5-1.7-3.6L1538.7,411.3z M1549.3,434.5l0.5-0.1l1.7,0.9c-1.9,3.4-4.9,6-8.5,8
					c3.7,1.3,7.9,2.2,12.4,2.6c-0.6,0.6-1.2,1.6-1.6,2.3c-5.1-0.6-9.8-1.8-13.9-3.6c-4.3,1.7-9.3,2.8-14.3,3.3
					c-0.2-0.6-0.7-1.6-1.1-2.3c4.4-0.4,8.8-1.2,12.6-2.5c-2.7-1.6-5-3.5-6.7-5.9l1.4-0.6h-5.4v-2.2h22.9V434.5z M1535,419.1v3.6
					h10.2v-3.6h2.6v3.6h6.6v2.2h-6.6v6.7h-15.4V425h-6.6v-2.2h6.6v-3.6L1535,419.1L1535,419.1z M1533,436.7c1.7,2.2,4.1,3.9,7.1,5.3
					c3-1.4,5.6-3.1,7.4-5.3H1533z M1535,425v4.5h10.2V425H1535z"/>
				<path d="M1564.4,412.2c-0.9,3.1-2,6.2-3.4,9.4h-2.6c0.8-3.4,1.5-6.6,2-9.8h3.8L1564.4,412.2z M1571.8,412.2
					c-0.9,3.1-2,6.2-3.4,9.4h-2.6c0.9-3.4,1.5-6.6,2-9.8h3.8L1571.8,412.2z"/>
				<path d="M1625.1,429.8c0-3.4,0.5-6.8,1.5-9.9c1-3.2,2.6-6.1,4.7-8.7h3.6c-2,2.7-3.5,5.6-4.5,8.8c-1,3.2-1.5,6.4-1.5,9.9
					c0,3.4,0.5,6.7,1.5,9.8c1,3.2,2.5,6.1,4.5,8.8h-3.5c-2.1-2.5-3.7-5.4-4.7-8.7C1625.6,436.5,1625.1,433.2,1625.1,429.8z"/>
				<path class="st1" d="M1655.7,444.7v-3.9h-11.8v-2.3h11.8v-3.7H1642v-2.4h30.2v2.4h-13.7v3.7h11.9v2.3h-11.9v3.9h16v2.4h-34.9
					v-2.4H1655.7z M1658.8,411.8c-0.6,1.2-1.2,2.4-1.8,3.4h13.4v14.2h-26.7v-14.2h10.4c0.6-1.2,1.2-2.7,1.6-3.8L1658.8,411.8z
					 M1646.4,421.3h21.3v-3.8h-21.3V421.3z M1646.4,427.2h21.3v-3.8h-21.3V427.2z"/>
				<path class="st1" d="M1703.2,411.4c2.7,1.1,6.3,2.8,8.2,3.9l-1.2,1.6h4.4v2.5h-16.2v4h13.3v21.2c0,1.6-0.4,2.4-1.6,2.9
					c-1.2,0.4-3.4,0.4-6.6,0.4c-0.1-0.8-0.6-1.8-1-2.5c2.6,0.1,5,0,5.7,0s0.8-0.2,0.8-0.8v-4.9h-10.6v8.2h-2.8v-8.2h-10.4v8.5h-2.7
					v-24.8h13.1v-4h-16.1v-2.5h16.1v-5.5h2.8v5.5h11.1c-2-1.1-5.2-2.8-7.7-3.9L1703.2,411.4z M1695.7,430.3v-4.5h-10.4v4.5H1695.7z
					 M1685.3,437.3h10.4v-4.6h-10.4V437.3z M1709,425.8h-10.6v4.5h10.6V425.8z M1698.4,432.7v4.6h10.6v-4.6H1698.4z"/>
				<path class="st1" d="M1720,422.6c2.6,1,5.8,2.8,7.4,4.1l-1.5,2.2c-1.6-1.4-4.7-3.2-7.3-4.2L1720,422.6z M1726.8,432.8l2,1.7
					c-2,4.2-4.6,9.4-6.8,13.1l-2.3-1.7C1721.7,442.7,1724.6,437.4,1726.8,432.8z M1722.2,411.9c2.6,1.1,5.7,2.9,7.2,4.3l-1.5,2.2
					c-1.6-1.5-4.6-3.4-7.2-4.6L1722.2,411.9z M1736,433.4c-0.2,1.6-0.5,3.1-0.8,4.5c1.2,3.5,3.2,5.3,5.7,6.3v-13.1h-11.3v-2.2h25.4
					v2.2h-11.5v4.9h8.9v2.2h-8.9v6.6c1.3,0.2,2.7,0.3,4.2,0.3c0.9,0,6.6,0,8,0c-0.4,0.6-0.8,1.7-0.9,2.4h-7.3
					c-6.2,0-10.6-1.1-13.3-6.8c-1.2,3-2.8,5.5-5.1,7.4c-0.4-0.4-1.5-1.2-2.1-1.6c3.7-2.9,5.7-7.4,6.3-13.4L1736,433.4z
					 M1752.1,412.8v13h-19.6v-13H1752.1z M1735,418.3h14.4v-3.4H1735V418.3z M1735,423.7h14.4v-3.4H1735V423.7z"/>
				<path d="M1780.3,429.8l9.4,18.6h-3.2l-9.4-18.6l9.4-18.6h3.2L1780.3,429.8z M1786.4,429.8l9.4,18.6h-3.2l-9.4-18.6l9.4-18.6h3.2
					L1786.4,429.8z"/>
				<path class="st1" d="M1824.3,435.7v2.6h-24.9v-2.6H1824.3z M1810.2,412.7l-0.9,4.4h22.6v2.6h-23.2c-0.6,2.6-1.2,5.3-1.7,7.5
					h25.4c0,0,0,1-0.1,1.4c-1.2,11.4-2.3,16-4.1,17.8c-1,1-2,1.2-3.6,1.3c-1.4,0.1-4.2,0-7.1-0.2c-0.1-0.8-0.4-1.9-1-2.7
					c3.1,0.3,6.2,0.3,7.3,0.3c1,0,1.6,0,2.1-0.5c1.5-1.2,2.6-5.4,3.5-14.9h-23h-0.6h-2.2c1.2-4.4,2.9-11.9,3.9-17.3L1810.2,412.7z"
					/>
				<path class="st1" d="M1058.2,471.5v4.5h16.5v2.5h-13.4c3.6,3.6,9.1,6.7,14.2,8.3c-0.6,0.5-1.4,1.5-1.8,2.2
					c-5.6-2-11.7-6-15.4-10.5l0,0v9.1h-2.7v-9.1c-3.7,4.6-9.8,8.7-15.2,10.8c-0.4-0.6-1.2-1.6-1.8-2.1c4.9-1.6,10.4-5,13.8-8.6h-13
					V476h16.2v-4.5H1058.2z M1062.5,490.8h-16.3v-2.4h19.6l0.6-0.2l1.8,1.5c-2.6,2.1-6.3,4-9.9,5.4v1h16.6v2.5h-16.6v6.2
					c0,1.5-0.4,2.2-1.7,2.7c-1.2,0.4-3.2,0.4-6.5,0.4c-0.2-0.7-0.8-1.8-1.2-2.5c2.8,0.1,5.2,0.1,5.9,0c0.7,0,0.8-0.2,0.8-0.7v-6.2
					h-16.3V496h16.3v-2.2C1057.9,493.3,1060.5,492.1,1062.5,490.8z"/>
				<path class="st1" d="M1089.5,472.8c-0.6,2.2-1.4,4.5-2.3,6.6h8.5v-7.8h2.8v7.8h14.6v2.6h-14.6v9.1h13.1v2.6h-13.1v10.6h16.4v2.6
					h-35.7v-2.6h16.4v-10.6h-12.1v-2.6h12.1V482h-9.7c-1.3,2.6-2.7,4.9-4.3,6.7c-0.5-0.5-1.7-1.3-2.4-1.6c3.3-3.6,5.9-9.2,7.4-14.9
					L1089.5,472.8z"/>
				<path class="st1" d="M1134,478.5v-6.9h2.7v6.9h12.2v10.8h5.8c0,0,0,0.8-0.1,1.2c-0.6,8-1.2,11.2-2.4,12.4c-0.8,0.8-1.6,1-3,1.1
					c-1.2,0.1-3.6,0-6.1-0.1c-0.1-0.8-0.4-1.9-0.9-2.6c2.6,0.2,5.1,0.2,6,0.2c0.8,0,1.3,0,1.7-0.4c0.8-0.7,1.3-3.3,1.8-9.4h-15.2
					v16.2h-2.7v-16.2h-14.5v-2.5h14.5V481H1122v-2.6h12V478.5z M1146.2,489.4v-8.2h-9.6v8.2H1146.2z M1147.5,472.8
					c2.5,1.6,5.8,4,7.4,5.4l-1.7,2c-1.6-1.6-4.8-4-7.4-5.7L1147.5,472.8z"/>
				<path d="M1167.6,489.8l-9.4-18.6h3.2l9.4,18.6l-9.4,18.6h-3.2L1167.6,489.8z M1173.7,489.8l-9.4-18.6h3.2l9.4,18.6l-9.4,18.6
					h-3.2L1173.7,489.8z"/>
				<path d="M1208.9,489.8c0,3.4-0.5,6.7-1.5,10s-2.6,6.1-4.7,8.7h-3.5c2-2.7,3.5-5.6,4.5-8.8c1-3.2,1.5-6.5,1.5-9.8
					c0-3.4-0.5-6.7-1.5-9.9c-1-3.2-2.5-6.1-4.5-8.8h3.6c2.1,2.6,3.7,5.5,4.7,8.7C1208.4,483.1,1208.9,486.4,1208.9,489.8z"/>
				<path d="M1244.8,495.3c1.7,0,3.2,0.6,4.3,1.8c1.2,1.2,1.8,2.6,1.8,4.3c0,1.7-0.6,3.2-1.8,4.3s-2.6,1.8-4.3,1.8
					c-1.7,0-3.1-0.6-4.3-1.8s-1.8-2.6-1.8-4.3c0-1.7,0.6-3.1,1.8-4.3C1241.7,495.9,1243.1,495.3,1244.8,495.3z M1244.8,505.4
					c1.1,0,2.1-0.4,2.9-1.2c0.8-0.8,1.2-1.8,1.2-2.9s-0.4-2-1.2-2.8c-0.8-0.8-1.8-1.2-2.9-1.2s-2,0.4-2.8,1.2
					c-0.8,0.8-1.2,1.7-1.2,2.8c0,1.1,0.4,2.1,1.2,2.9S1243.7,505.4,1244.8,505.4z"/>
			</g>
			<g>
				<path class="st2" d="M1050.4,91.7c1.7,2,3.4,4.8,4.2,6.6l-2.4,1.4h9.6c1.5-2.4,3.1-5.6,4-8.1l5.2,1.7c-1.3,2.2-2.6,4.4-4,6.4
					h6.7v4.8h-12.5v5.2v0.3h14.6v4.8h-13.5c3.1,4.7,8,8,15,9.5c-1.2,1.1-2.7,3.3-3.4,4.8c-6.7-1.9-11.4-5.4-14.7-10.5
					c-2.4,4-7.1,7.9-16.3,10.7c-0.7-1.1-2.3-3.2-3.6-4.3c9.7-2.8,13.8-6.4,15.4-10.1h-14.2v-4.8h15.1v-0.4v-5.1h-12.4v-4.8h6.6
					c-0.8-1.8-2.2-4.2-3.6-6L1050.4,91.7z"/>
				<path class="st2" d="M1085.7,101.2v27.9h-4.8v-27.9C1080.9,101.2,1085.7,101.2,1085.7,101.2z M1085.2,91.7
					c1.9,1.8,4.2,4.4,5.2,6.2l-4,2.6c-0.9-1.8-3.1-4.5-5-6.4L1085.2,91.7z M1104.8,99.5v5.2h4.6v4.6h-4.6v11.4
					c0,2.4-0.5,3.7-2.1,4.4c-1.6,0.7-4,0.8-7.2,0.8c-0.2-1.3-0.9-3.4-1.5-4.6c2,0.1,4.4,0.1,5,0.1c0.7,0,0.9-0.2,0.9-0.8v-7.7
					c-2.8,3.6-6.5,6.7-10.6,9c-0.7-1-2.3-2.8-3.3-3.6c4.3-2.2,8.3-5.5,11-9.1h-9.2v-4.6h12.1v-5.2L1104.8,99.5L1104.8,99.5z
					 M1115.7,93.5V124c0,2.3-0.4,3.4-1.9,4.2c-1.4,0.7-3.4,0.8-6.4,0.8c-0.2-1.2-0.8-3.2-1.4-4.3c1.6,0.1,3.6,0.1,4.2,0.1
					s0.8-0.2,0.8-0.8V98h-19v-4.4L1115.7,93.5L1115.7,93.5z"/>
				<path class="st2" d="M1156.8,111.3c0,3-0.5,5.5-1.5,7.7s-2.5,3.9-4.5,5.1s-4.6,1.8-7.7,1.8s-5.6-0.6-7.7-1.8
					c-2-1.2-3.5-2.9-4.5-5.2c-1-2.2-1.5-4.8-1.5-7.8s0.5-5.5,1.5-7.7s2.5-3.9,4.5-5.1s4.6-1.8,7.7-1.8s5.6,0.6,7.6,1.8
					c2,1.2,3.5,2.9,4.5,5.1C1156.3,105.7,1156.8,108.3,1156.8,111.3z M1136,111.3c0,3,0.6,5.3,1.7,7.1c1.1,1.7,3,2.6,5.5,2.6
					c2.6,0,4.4-0.9,5.6-2.6c1.1-1.7,1.7-4.1,1.7-7.1s-0.6-5.4-1.7-7.1s-3-2.6-5.5-2.6s-4.4,0.9-5.6,2.6
					C1136.6,105.9,1136,108.2,1136,111.3z"/>
				<path class="st2" d="M1174.4,108.2h-5.2v17.4h-6v-17.4h-3.3v-2.9l3.3-1.6v-1.6c0-1.9,0.3-3.3,0.9-4.3s1.5-1.8,2.7-2.2
					c1.2-0.4,2.5-0.6,4.1-0.6c1.2,0,2.2,0.1,3.2,0.3c0.9,0.2,1.7,0.4,2.3,0.6l-1.5,4.4c-0.5-0.1-0.9-0.3-1.5-0.4
					c-0.5-0.1-1.1-0.2-1.8-0.2c-0.8,0-1.4,0.3-1.8,0.8s-0.6,1.1-0.6,1.9v1.4h5.2L1174.4,108.2L1174.4,108.2z M1189.8,108.2h-5.2
					v17.4h-6v-17.4h-3.3v-2.9l3.3-1.6v-1.6c0-1.9,0.3-3.3,0.9-4.3s1.5-1.8,2.7-2.2c1.2-0.4,2.5-0.6,4.1-0.6c1.2,0,2.2,0.1,3.2,0.3
					c0.9,0.2,1.7,0.4,2.3,0.6l-1.5,4.4c-0.5-0.1-0.9-0.3-1.5-0.4c-0.5-0.1-1.1-0.2-1.8-0.2c-0.8,0-1.4,0.3-1.8,0.8s-0.6,1.1-0.6,1.9
					v1.4h5.2L1189.8,108.2L1189.8,108.2z"/>
			</g>
		</g>
	</g>
</g>
</svg>
