<?xml version="1.0" encoding="utf-8"?>
<!-- Generator: Adobe Illustrator 23.1.0, SVG Export Plug-In . SVG Version: 6.00 Build 0)  -->
<svg version="1.1" xmlns="http://www.w3.org/2000/svg" xmlns:xlink="http://www.w3.org/1999/xlink" x="0px" y="0px"
	 viewBox="0 0 2400 600" style="enable-background:new 0 0 2400 600;" xml:space="preserve">
<style type="text/css">
	.st0{fill:#FFFFFF;}
	.st1{fill:none;stroke:#B8D0E7;stroke-width:4;stroke-miterlimit:10;}
	.st2{fill:#B9474F;}
</style>
<g id="图层_2">
	<rect class="st0" width="2400" height="600"/>
</g>
<g id="图层_1">
	<rect x="130" y="114.9" class="st1" width="130" height="130"/>
	<rect x="129.7" y="354.9" class="st1" width="130" height="130"/>
	<rect x="260" y="114.9" class="st1" width="130" height="130"/>
	<rect x="259.7" y="354.9" class="st1" width="130" height="130"/>
	<rect x="390" y="114.9" class="st1" width="130" height="130"/>
	<rect x="389.7" y="354.9" class="st1" width="130" height="130"/>
	<rect x="520" y="114.9" class="st1" width="130" height="130"/>
	<rect x="519.7" y="354.9" class="st1" width="130" height="130"/>
	<rect x="650" y="114.9" class="st1" width="130" height="130"/>
	<rect x="649.7" y="354.9" class="st1" width="130" height="130"/>
	<rect x="780" y="114.9" class="st1" width="130" height="130"/>
	<rect x="779.7" y="354.9" class="st1" width="130" height="130"/>
	<rect x="910" y="114.9" class="st1" width="130" height="130"/>
	<rect x="909.7" y="354.9" class="st1" width="130" height="130"/>
	<rect x="1040" y="114.9" class="st1" width="130" height="130"/>
	<rect x="1039.7" y="354.9" class="st1" width="130" height="130"/>
	<g>
		<g>
			<path class="st2" d="M634.5,323c5.5,2.7,9.7,5.2,12.5,7.5v-75.8h5.5v75.8c2.8-2.3,6.9-4.9,12.5-7.5v4.5c-6.3,5.5-11,11.2-14,17.2
				h-2.3c-3-6-7.7-11.7-14-17.2V323H634.5z"/>
		</g>
	</g>
	<g>
		<path d="M165.5,235.9c-9.1-11-18.7-20.7-28.7-29l8.5-7.4c10.4,8.7,20.1,18.3,29.1,28.9L165.5,235.9z"/>
		<path d="M285.2,196.9c5.5,0,10.2,1.9,14.1,5.8c3.9,3.9,5.8,8.5,5.8,14s-1.9,10.2-5.8,14.1c-3.9,3.9-8.6,5.8-14.1,5.8
			c-5.4,0-10-1.9-13.9-5.8c-3.9-3.9-5.8-8.6-5.8-14.1s2-10.1,5.8-14C275.2,198.8,279.8,196.9,285.2,196.9z M285.2,229.9
			c3.7,0,6.9-1.3,9.4-3.8c2.6-2.6,3.8-5.7,3.8-9.4c0-3.6-1.3-6.6-3.8-9.2c-2.6-2.6-5.7-3.9-9.4-3.9c-3.6,0-6.6,1.3-9.2,3.9
			c-2.6,2.6-3.9,5.7-3.9,9.2c0,3.7,1.3,6.9,3.9,9.4C278.6,228.6,281.7,229.9,285.2,229.9z"/>
		<path d="M413.7,221.6c0-3.6,0.8-6,2.5-7.5c1.7-1.4,3.8-2.1,6.3-2.1c2.3,0,4.4,0.7,6.2,2.1c1.8,1.4,2.7,3.9,2.7,7.5
			c0,3.4-0.9,5.8-2.7,7.3c-1.8,1.5-3.8,2.3-6.2,2.3c-2.5,0-4.6-0.8-6.3-2.3C414.5,227.4,413.7,225,413.7,221.6z M426.7,200.5h-8.2
			l-3.5-73.3h15.2L426.7,200.5z"/>
		<path d="M559.8,208.2c-1.4,5.1-3.2,10.7-5.5,16.6c-2.3,6-4.6,11.6-6.9,16.8h-9.5c3.1-12,5.6-23.7,7.4-35.1h13.4L559.8,208.2z"/>
		<path d="M673.7,221.5c0-3.5,0.8-5.9,2.5-7.3c1.7-1.4,3.7-2.1,6.2-2.1c2.4,0,4.5,0.7,6.3,2.1c1.8,1.4,2.7,3.9,2.7,7.3
			c0,3.5-0.9,6-2.7,7.5s-3.9,2.3-6.3,2.3c-2.4,0-4.5-0.8-6.2-2.3C674.5,227.4,673.7,224.9,673.7,221.5z"/>
		<path d="M803.7,163.5c0-3.5,0.8-5.9,2.5-7.3c1.7-1.4,3.7-2.1,6.2-2.1c2.4,0,4.5,0.7,6.3,2.1c1.8,1.4,2.7,3.9,2.7,7.3
			c0,3.5-0.9,6-2.7,7.5s-3.9,2.3-6.3,2.3c-2.4,0-4.5-0.8-6.2-2.3C804.5,169.4,803.7,167,803.7,163.5z M803.7,221.5
			c0-3.5,0.8-5.9,2.5-7.3c1.7-1.4,3.7-2.1,6.2-2.1c2.4,0,4.5,0.7,6.3,2.1c1.8,1.4,2.7,3.9,2.7,7.3c0,3.5-0.9,6-2.7,7.5
			s-3.9,2.3-6.3,2.3c-2.4,0-4.5-0.8-6.2-2.3C804.5,227.4,803.7,224.9,803.7,221.5z"/>
		<path d="M949.8,208.2c-1.4,5.1-3.2,10.7-5.5,16.6c-2.3,6-4.6,11.6-6.9,16.8h-9.5c3.1-12,5.6-23.7,7.4-35.1h13.4L949.8,208.2z
			 M933.7,163.5c0-3.5,0.8-5.9,2.5-7.3c1.7-1.4,3.7-2.1,6.2-2.1c2.4,0,4.5,0.7,6.3,2.1c1.8,1.4,2.7,3.9,2.7,7.3c0,3.5-0.9,6-2.7,7.5
			s-3.9,2.3-6.3,2.3c-2.4,0-4.5-0.8-6.2-2.3C934.5,169.4,933.7,167,933.7,163.5z"/>
		<path d="M1062.5,196.6c0-5.4,0.9-9.8,2.6-13.4c1.7-3.6,4.9-7.2,9.4-10.9c5.5-4.4,9.2-8,11.2-10.8s3.1-6.3,3.1-10.5
			c0-4.6-1.5-8.1-4.4-10.6s-7.2-3.7-12.9-3.7c-4.7,0-8.8,0.6-12.5,1.8c-3.6,1.2-7.1,2.6-10.4,4.2l-4.4-10c3.8-2,8-3.7,12.7-5
			c4.6-1.3,9.8-2,15.5-2c9.1,0,16.1,2.3,21.1,6.8c4.9,4.5,7.4,10.6,7.4,18.3c0,4.2-0.7,7.9-2.1,10.9s-3.3,5.8-5.8,8.3
			c-2.5,2.6-5.5,5.3-9,8.1c-4.7,3.9-7.8,7.2-9.2,9.9c-1.5,2.7-2.2,6.1-2.2,10.1v2.3h-10L1062.5,196.6L1062.5,196.6z M1059.2,221.5
			c0-3.5,0.8-5.9,2.5-7.4c1.6-1.5,3.8-2.2,6.4-2.2c2.3,0,4.4,0.7,6.1,2.2s2.6,3.9,2.6,7.4s-0.9,6-2.6,7.5s-3.8,2.3-6.1,2.3
			c-2.6,0-4.7-0.8-6.4-2.3C1060.1,227.4,1059.2,224.9,1059.2,221.5z"/>
	</g>
	<g>
		<path d="M205,438c-9.2-11-18.8-20.7-28.7-29l8.5-7.4c10.3,8.7,20,18.3,29.1,28.9L205,438z"/>
		<path d="M325,399.9c5.5,0,10.1,1.9,14,5.8s5.8,8.5,5.8,14s-1.9,10.3-5.8,14.1c-3.9,3.9-8.6,5.8-14,5.8s-10.1-1.9-14-5.8
			s-5.8-8.6-5.8-14.1s1.9-10.1,5.8-14S319.5,399.9,325,399.9z M325,432.9c3.6,0,6.8-1.3,9.4-3.8c2.6-2.6,3.9-5.7,3.9-9.4
			c0-3.6-1.3-6.6-3.9-9.2s-5.7-3.9-9.4-3.9s-6.7,1.3-9.3,3.9c-2.6,2.6-3.8,5.7-3.8,9.2c0,3.7,1.3,6.9,3.8,9.4
			C318.3,431.6,321.4,432.9,325,432.9z"/>
		<path d="M446.2,462.1c0-3.6,0.8-6,2.5-7.5c1.7-1.4,3.8-2.1,6.3-2.1c2.3,0,4.4,0.7,6.2,2.1c1.8,1.4,2.7,3.9,2.7,7.5
			c0,3.4-0.9,5.8-2.7,7.3c-1.8,1.5-3.8,2.3-6.2,2.3c-2.5,0-4.6-0.8-6.3-2.3C447,468,446.2,465.5,446.2,462.1z M459.2,441.1H451
			l-3.5-73.3h15.2L459.2,441.1z"/>
		<path d="M595.9,403.8c-1.4,5.2-3.2,10.8-5.5,16.8s-4.5,11.6-6.9,16.8H574c3.1-12,5.6-23.7,7.4-35.1h13.4L595.9,403.8z"/>
		<path d="M706.2,419.6c0-3.5,0.8-5.9,2.5-7.3s3.7-2.1,6.2-2.1c2.4,0,4.5,0.7,6.3,2.1s2.7,3.9,2.7,7.3c0,3.5-0.9,6-2.7,7.5
			s-3.9,2.3-6.3,2.3c-2.4,0-4.5-0.8-6.2-2.3S706.2,423.1,706.2,419.6z"/>
		<path d="M836.2,390.6c0-3.5,0.8-5.9,2.5-7.3s3.7-2.1,6.2-2.1c2.4,0,4.5,0.7,6.3,2.1s2.7,3.9,2.7,7.3c0,3.5-0.9,6-2.7,7.5
			s-3.9,2.3-6.3,2.3c-2.4,0-4.5-0.8-6.2-2.3S836.2,394.1,836.2,390.6z M836.2,448.6c0-3.5,0.8-5.9,2.5-7.3s3.7-2.1,6.2-2.1
			c2.4,0,4.5,0.7,6.3,2.1s2.7,3.9,2.7,7.3c0,3.5-0.9,6-2.7,7.5s-3.9,2.3-6.3,2.3c-2.4,0-4.5-0.8-6.2-2.3S836.2,452.1,836.2,448.6z"
			/>
		<path d="M982.2,435.4c-1.3,5.1-3.1,10.7-5.3,16.6c-2.3,6-4.6,11.6-6.9,16.8h-9.5c3.1-12,5.5-23.7,7.3-35h13.5L982.2,435.4z
			 M966.2,390.8c0-3.6,0.8-6,2.5-7.5c1.7-1.4,3.7-2.1,6.2-2.1c2.4,0,4.5,0.7,6.3,2.1s2.7,3.9,2.7,7.5c0,3.4-0.9,5.8-2.7,7.3
			s-3.9,2.3-6.3,2.3c-2.4,0-4.5-0.8-6.2-2.3C967,396.6,966.2,394.2,966.2,390.8z"/>
		<path d="M1095,437.2c0-5.4,0.9-9.8,2.6-13.4s4.9-7.2,9.4-10.9c5.5-4.4,9.2-8,11.2-10.8s3.1-6.3,3.1-10.5c0-4.6-1.5-8.1-4.4-10.6
			s-7.2-3.7-12.9-3.7c-4.7,0-8.8,0.6-12.5,1.8c-3.6,1.2-7.1,2.6-10.4,4.2l-4.4-10c3.8-2.1,8-3.8,12.7-5.1c4.6-1.3,9.8-2,15.5-2
			c9.1,0,16.1,2.2,21.1,6.7c4.9,4.5,7.4,10.6,7.4,18.3c0,4.3-0.7,8-2.1,11s-3.3,5.8-5.8,8.3c-2.5,2.6-5.5,5.3-9,8.1
			c-4.7,3.8-7.8,7.1-9.2,9.8c-1.5,2.7-2.2,6.1-2.2,10.2v2.3h-10L1095,437.2L1095,437.2z M1091.7,462c0-3.5,0.8-5.9,2.5-7.4
			c1.6-1.5,3.8-2.2,6.4-2.2c2.3,0,4.4,0.7,6.1,2.2s2.6,3.9,2.6,7.4s-0.9,6-2.6,7.5s-3.8,2.3-6.1,2.3c-2.6,0-4.7-0.8-6.4-2.3
			C1092.6,468,1091.7,465.5,1091.7,462z"/>
	</g>
</g>
</svg>
