<?xml version="1.0" encoding="UTF-8"?>
<svg xmlns="http://www.w3.org/2000/svg" viewBox="0 0 2400 600">
  <defs>
    <style>
      .cls-1 {
        fill: #f8fdff;
      }

      .cls-2 {
        fill: #ffb3b4;
      }

      .cls-3 {
        fill: none;
        stroke: #004b71;
        stroke-miterlimit: 10;
        stroke-width: 4px;
      }
    </style>
  </defs>
  <g id="_图层_1" data-name="图层 1">
    <g>
      <rect class="cls-3" x="130" y="114.9" width="130" height="130"/>
      <rect class="cls-3" x="129.6992" y="374.8989" width="130" height="130"/>
      <rect class="cls-3" x="260" y="114.9" width="130" height="130"/>
      <rect class="cls-3" x="259.6992" y="374.8989" width="130" height="130"/>
      <rect class="cls-3" x="390" y="114.9" width="130" height="130"/>
      <rect class="cls-3" x="389.6992" y="374.8989" width="130" height="130"/>
      <rect class="cls-3" x="520" y="114.9" width="130" height="130"/>
      <rect class="cls-3" x="519.6992" y="374.8989" width="130" height="130"/>
      <rect class="cls-3" x="650" y="114.9" width="130" height="130"/>
      <rect class="cls-3" x="649.6992" y="374.8989" width="130" height="130"/>
      <rect class="cls-3" x="780" y="114.9" width="130" height="130"/>
      <rect class="cls-3" x="779.6992" y="374.8989" width="130" height="130"/>
      <rect class="cls-3" x="910" y="114.9" width="130" height="130"/>
      <rect class="cls-3" x="909.6992" y="374.8989" width="129.9999" height="130"/>
      <rect class="cls-3" x="1040" y="114.9" width="130" height="130"/>
      <rect class="cls-3" x="1039.6992" y="374.8989" width="130" height="130"/>
      <path class="cls-2" d="M645.8646,341.6858v-77.873h7.6699v78.0029l36.1416-31.5913v10.0103l-39.9116,35.7515-40.0415-35.7515v-10.0103l36.1416,31.4614Z"/>
    </g>
  </g>
  <g id="_图层_2" data-name="图层 2">
    <g>
      <path class="cls-1" d="M151.2793,221.1752c-5.2002-5.2427-10.1401-9.7705-14.8203-13.585l8.4502-7.4102c4.5054,3.6401,9.4453,8.125,14.8198,13.4551,5.373,5.3301,10.1401,10.4648,14.3003,15.4053l-8.8398,7.5396c-4.0747-5.0273-8.7104-10.1602-13.9102-15.4048Z"/>
      <path class="cls-1" d="M274.7793,234.5653c-3.0347-1.7773-5.4399-4.1826-7.2148-7.2153-1.7773-3.0322-2.665-6.3696-2.665-10.0098s.8877-6.9756,2.665-10.0103c1.7749-3.0322,4.1802-5.4375,7.2148-7.2148,3.0327-1.7754,6.3701-2.665,10.0098-2.665s6.9756,.8896,10.0103,2.665c3.0327,1.7773,5.4375,4.1826,7.2148,7.2148,1.7754,3.0347,2.665,6.3701,2.665,10.0103s-.8896,6.9775-2.665,10.0098c-1.7773,3.0327-4.1821,5.438-7.2148,7.2153-3.0347,1.7754-6.3701,2.665-10.0103,2.665s-6.9771-.8896-10.0098-2.665Zm18.915-8.3853c2.3823-2.4253,3.5747-5.3726,3.5747-8.8398,0-3.5527-1.1924-6.5205-3.5747-8.9053-2.3848-2.3823-5.3525-3.5747-8.9053-3.5747-3.4673,0-6.4146,1.1924-8.8398,3.5747-2.4272,2.3848-3.6401,5.3525-3.6401,8.9053,0,3.4673,1.2129,6.4146,3.6401,8.8398,2.4253,2.4272,5.3726,3.6401,8.8398,3.6401,3.5527,0,6.5205-1.2129,8.9053-3.6401Z"/>
      <path class="cls-1" d="M415.8291,215.0004c1.6455-1.5601,3.77-2.3403,6.3701-2.3403s4.7227,.7803,6.3701,2.3403c1.645,1.5596,2.4697,3.9873,2.4697,7.2798,0,3.2949-.8247,5.7202-2.4697,7.2798-1.6475,1.5601-3.77,2.3403-6.3701,2.3403s-4.7246-.7803-6.3701-2.3403c-1.6475-1.5596-2.4697-3.9849-2.4697-7.2798,0-3.2925,.8223-5.7202,2.4697-7.2798Zm-1.2998-87.1001h15.3398l-3.5098,73.1899h-8.3203l-3.5098-73.1899Z"/>
      <path class="cls-1" d="M554.1494,225.0751c-2.2549,6.0229-4.6377,11.7651-7.1504,17.2251h-9.23c3.293-13.2598,5.6753-24.96,7.1504-35.1001h13.3896l1.04,1.5601c-1.2144,4.8545-2.9473,10.2925-5.1997,16.3149Z"/>
      <path class="cls-1" d="M675.8291,215.0004c1.6455-1.5601,3.77-2.3403,6.3701-2.3403s4.7227,.7803,6.3701,2.3403c1.645,1.5596,2.4697,3.9873,2.4697,7.2798,0,3.2949-.8247,5.7202-2.4697,7.2798-1.6475,1.5601-3.77,2.3403-6.3701,2.3403s-4.7246-.7803-6.3701-2.3403c-1.6475-1.5596-2.4697-3.9849-2.4697-7.2798,0-3.2925,.8223-5.7202,2.4697-7.2798Z"/>
      <path class="cls-1" d="M805.8291,157.0204c1.6455-1.5601,3.77-2.3403,6.3701-2.3403s4.7227,.7803,6.3701,2.3403c1.645,1.5596,2.4697,3.9873,2.4697,7.2798,0,3.2949-.8247,5.7202-2.4697,7.2798-1.6475,1.5601-3.77,2.3403-6.3701,2.3403s-4.7246-.7803-6.3701-2.3403c-1.6475-1.5596-2.4697-3.9849-2.4697-7.2798,0-3.2925,.8223-5.7202,2.4697-7.2798Zm0,57.98c1.6455-1.5601,3.77-2.3403,6.3701-2.3403s4.7227,.7803,6.3701,2.3403c1.645,1.5596,2.4697,3.9873,2.4697,7.2798,0,3.2949-.8247,5.7202-2.4697,7.2798-1.6475,1.5601-3.77,2.3403-6.3701,2.3403s-4.7246-.7803-6.3701-2.3403c-1.6475-1.5596-2.4697-3.9849-2.4697-7.2798,0-3.2925,.8223-5.7202,2.4697-7.2798Z"/>
      <path class="cls-1" d="M944.1494,225.0751c-2.2549,6.0229-4.6377,11.7651-7.1504,17.2251h-9.23c3.293-13.2598,5.6753-24.96,7.1504-35.1001h13.3896l1.04,1.5601c-1.2144,4.8545-2.9473,10.2925-5.1997,16.3149Zm-8.3203-68.0547c1.6455-1.5601,3.77-2.3403,6.3701-2.3403s4.7227,.7803,6.3701,2.3403c1.645,1.5596,2.4697,3.9873,2.4697,7.2798,0,3.2949-.8247,5.7202-2.4697,7.2798-1.6475,1.5601-3.77,2.3403-6.3701,2.3403s-4.7246-.7803-6.3701-2.3403c-1.6475-1.5596-2.4697-3.9849-2.4697-7.2798,0-3.2925,.8223-5.7202,2.4697-7.2798Z"/>
      <path class="cls-1" d="M1063.2944,187.8954c.7349-2.6431,1.9497-5.1353,3.6396-7.4751,1.6899-2.3403,4.0952-4.8101,7.2153-7.4102,4.0723-3.4653,7.0625-6.1748,8.9697-8.125,1.9053-1.9502,3.2705-3.9204,4.0952-5.915,.8228-1.9927,1.2349-4.4199,1.2349-7.2798,0-4.5928-1.4951-8.125-4.4849-10.5952-2.9902-2.4697-7.2598-3.7051-12.8052-3.7051-4.2471,0-8.1045,.52-11.5698,1.5601-3.4673,1.04-7.2373,2.5146-11.3101,4.4199l-4.4199-10.0098c4.1597-2.1655,8.5576-3.8779,13.1948-5.1353,4.6353-1.2549,9.6401-1.8848,15.0151-1.8848,9.0127,0,16.0103,2.2324,20.9951,6.6948,4.9824,4.4648,7.4746,10.5952,7.4746,18.395,0,4.0747-.6499,7.605-1.9497,10.5952-1.3003,2.9897-3.0776,5.6548-5.3301,7.9951-2.2549,2.3398-5.46,5.2446-9.6201,8.71-3.2944,2.687-5.7422,5.0049-7.3447,6.9546-1.605,1.9502-2.6875,3.9004-3.25,5.8501-.5649,1.9502-.8452,4.355-.8452,7.2153v2.3398h-10.0098v-3.77c0-3.6401,.3672-6.7803,1.105-9.4248Zm-1.8853,27.105c1.6455-1.5601,3.77-2.3403,6.3701-2.3403s4.7227,.7803,6.3701,2.3403c1.645,1.5596,2.4697,3.9873,2.4697,7.2798,0,3.2949-.8247,5.7202-2.4697,7.2798-1.6475,1.5601-3.77,2.3403-6.3701,2.3403s-4.7246-.7803-6.3701-2.3403c-1.6475-1.5596-2.4697-3.9849-2.4697-7.2798,0-3.2925,.8223-5.7202,2.4697-7.2798Z"/>
    </g>
    <g>
      <path class="cls-1" d="M190.6694,442.6947c-5.2002-5.2422-10.1401-9.7705-14.8203-13.585l8.4502-7.4102c4.5054,3.6406,9.4453,8.125,14.8198,13.4551,5.3726,5.3301,10.1401,10.4648,14.3003,15.4053l-8.8403,7.54c-4.0747-5.0254-8.71-10.1602-13.9097-15.4053Z"/>
      <path class="cls-1" d="M314.6895,457.1254c-3.0352-1.7754-5.4399-4.1807-7.2153-7.2158-1.7773-3.0322-2.665-6.3691-2.665-10.0098s.8877-6.9756,2.665-10.0098c1.7754-3.0332,4.1802-5.4375,7.2153-7.2148,3.0322-1.7754,6.3696-2.665,10.0098-2.665s6.9751,.8896,10.0098,2.665c3.0327,1.7773,5.438,4.1816,7.2153,7.2148,1.7754,3.0342,2.665,6.3701,2.665,10.0098s-.8896,6.9775-2.665,10.0098c-1.7773,3.0352-4.1826,5.4404-7.2153,7.2158-3.0347,1.7773-6.3696,2.665-10.0098,2.665s-6.9775-.8877-10.0098-2.665Zm18.9146-8.3857c2.3828-2.4248,3.5752-5.3721,3.5752-8.8398,0-3.5527-1.1924-6.5205-3.5752-8.9053-2.3843-2.3818-5.3521-3.5742-8.9048-3.5742-3.4673,0-6.4146,1.1924-8.8398,3.5742-2.4277,2.3848-3.6401,5.3525-3.6401,8.9053,0,3.4678,1.2124,6.415,3.6401,8.8398,2.4253,2.4277,5.3726,3.6406,8.8398,3.6406,3.5527,0,6.5205-1.2129,8.9048-3.6406Z"/>
      <path class="cls-1" d="M448.3291,475.0004c1.6455-1.5605,3.77-2.3408,6.3701-2.3408s4.7227,.7803,6.3701,2.3408c1.645,1.5596,2.4697,3.9873,2.4697,7.2793,0,3.2949-.8247,5.7207-2.4697,7.2803-1.6475,1.5596-3.77,2.3398-6.3701,2.3398s-4.7246-.7803-6.3701-2.3398c-1.6475-1.5596-2.4697-3.9854-2.4697-7.2803,0-3.292,.8223-5.7197,2.4697-7.2793Zm-1.2998-87.1006h15.3398l-3.5098,73.1904h-8.3203l-3.5098-73.1904Z"/>
      <path class="cls-1" d="M586.6494,440.225c-2.2549,6.0244-4.6377,11.7646-7.1504,17.2246h-9.23c3.293-13.2598,5.6753-24.96,7.1504-35.0996h13.3896l1.04,1.5596c-1.2144,4.8555-2.9473,10.293-5.1997,16.3154Z"/>
      <path class="cls-1" d="M708.3291,432.6195c1.6455-1.5596,3.77-2.3398,6.3701-2.3398s4.7227,.7803,6.3701,2.3398c1.645,1.5605,2.4697,3.9873,2.4697,7.2803,0,3.2949-.8247,5.7197-2.4697,7.2803-1.6475,1.5596-3.77,2.3398-6.3701,2.3398s-4.7246-.7803-6.3701-2.3398c-1.6475-1.5605-2.4697-3.9854-2.4697-7.2803,0-3.293,.8223-5.7197,2.4697-7.2803Z"/>
      <path class="cls-1" d="M838.3291,403.6302c1.6455-1.5605,3.77-2.3398,6.3701-2.3398s4.7227,.7793,6.3701,2.3398c1.645,1.5596,2.4697,3.9873,2.4697,7.2793,0,3.2949-.8247,5.7207-2.4697,7.2803-1.6475,1.5605-3.77,2.3398-6.3701,2.3398s-4.7246-.7793-6.3701-2.3398c-1.6475-1.5596-2.4697-3.9854-2.4697-7.2803,0-3.292,.8223-5.7197,2.4697-7.2793Zm0,57.9795c1.6455-1.5596,3.77-2.3398,6.3701-2.3398s4.7227,.7803,6.3701,2.3398c1.645,1.5605,2.4697,3.9873,2.4697,7.2803,0,3.2949-.8247,5.7197-2.4697,7.2803-1.6475,1.5596-3.77,2.3398-6.3701,2.3398s-4.7246-.7803-6.3701-2.3398c-1.6475-1.5605-2.4697-3.9854-2.4697-7.2803,0-3.293,.8223-5.7197,2.4697-7.2803Z"/>
      <path class="cls-1" d="M976.6494,471.6849c-2.2549,6.0244-4.6377,11.7646-7.1504,17.2246h-9.23c3.293-13.2598,5.6753-24.96,7.1504-35.0996h13.3896l1.04,1.5596c-1.2144,4.8555-2.9473,10.293-5.1997,16.3154Zm-8.3203-68.0547c1.6455-1.5605,3.77-2.3398,6.3701-2.3398s4.7227,.7793,6.3701,2.3398c1.645,1.5596,2.4697,3.9873,2.4697,7.2793,0,3.2949-.8247,5.7207-2.4697,7.2803-1.6475,1.5605-3.77,2.3398-6.3701,2.3398s-4.7246-.7793-6.3701-2.3398c-1.6475-1.5596-2.4697-3.9854-2.4697-7.2803,0-3.292,.8223-5.7197,2.4697-7.2793Z"/>
      <path class="cls-1" d="M1095.7944,447.8949c.7349-2.6426,1.9497-5.1348,3.6396-7.4746,1.6899-2.3408,4.0952-4.8105,7.2153-7.4102,4.0723-3.4658,7.0625-6.1748,8.9697-8.125,1.9048-1.9502,3.27-3.9209,4.0942-5.915,.8242-1.9932,1.2363-4.4199,1.2363-7.2803,0-4.5928-1.4961-8.125-4.4854-10.5947-2.9902-2.4697-7.2598-3.7051-12.8052-3.7051-4.2471,0-8.1045,.5195-11.5698,1.5596-3.4673,1.04-7.2373,2.5146-11.3101,4.4199l-4.4199-10.0098c4.1597-2.165,8.5576-3.8779,13.1948-5.1348,4.6353-1.2549,9.6401-1.8848,15.0151-1.8848,9.0127,0,16.0093,2.2324,20.9956,6.6943,4.9824,4.4648,7.4746,10.5957,7.4746,18.3955,0,4.0742-.6504,7.6045-1.9512,10.5947-1.2988,2.9902-3.0762,5.6553-5.3301,7.9951s-5.459,5.2451-9.6191,8.71c-3.2944,2.6875-5.7422,5.0049-7.3447,6.9551-1.605,1.9502-2.6875,3.9004-3.25,5.8496-.5649,1.9502-.8452,4.3555-.8452,7.2158v2.3398h-10.0098v-3.7705c0-3.6396,.3672-6.7803,1.105-9.4248Zm-1.8853,27.1055c1.6455-1.5605,3.77-2.3408,6.3701-2.3408s4.7227,.7803,6.3701,2.3408c1.645,1.5596,2.4697,3.9873,2.4697,7.2793,0,3.2949-.8247,5.7207-2.4697,7.2803-1.6475,1.5596-3.77,2.3398-6.3701,2.3398s-4.7246-.7803-6.3701-2.3398c-1.6475-1.5596-2.4697-3.9854-2.4697-7.2803,0-3.292,.8223-5.7197,2.4697-7.2793Z"/>
    </g>
  </g>
</svg>