<?xml version="1.0" encoding="UTF-8"?>
<svg xmlns="http://www.w3.org/2000/svg" viewBox="0 0 2400 600">
  <defs>
    <style>
      .cls-1 {
        fill: #001f25;
      }

      .cls-2 {
        fill: #a53841;
      }

      .cls-3 {
        fill: none;
        stroke: #cbe6ff;
        stroke-miterlimit: 10;
        stroke-width: 4px;
      }
    </style>
  </defs>
  <g id="_图层_1" data-name="图层 1">
    <g>
      <g>
        <rect class="cls-3" x="129.6992" y="114.8998" width="130" height="130"/>
        <rect class="cls-3" x="259.6992" y="114.8998" width="130" height="130"/>
        <rect class="cls-3" x="519.6998" y="114.8997" width="130" height="130"/>
        <path class="cls-2" d="M486.4859,183.7347h-77.873v-7.6699h78.0029l-31.5913-36.1416h10.0103l35.7515,39.9116-35.7515,40.0415h-10.0103l31.4614-36.1416Z"/>
      </g>
      <g>
        <rect class="cls-3" x="779.7005" y="114.8998" width="130" height="130"/>
        <rect class="cls-3" x="909.7005" y="114.8998" width="130" height="130"/>
        <rect class="cls-3" x="1169.7011" y="114.8997" width="130" height="130"/>
        <path class="cls-2" d="M1136.4872,183.7347h-77.873v-7.6699h78.0029l-31.5913-36.1416h10.0103l35.7515,39.9116-35.7515,40.0415h-10.0103l31.4614-36.1416Z"/>
      </g>
      <g>
        <rect class="cls-3" x="129.6992" y="374.8998" width="130" height="130"/>
        <rect class="cls-3" x="259.6992" y="374.8998" width="130" height="130"/>
        <rect class="cls-3" x="519.6998" y="374.8997" width="130" height="130"/>
        <path class="cls-2" d="M486.4859,443.7347h-77.873v-7.6699h78.0029l-31.5913-36.1416h10.0103l35.7515,39.9116-35.7515,40.0415h-10.0103l31.4614-36.1416Z"/>
      </g>
      <g>
        <rect class="cls-3" x="779.7005" y="374.8998" width="130" height="130"/>
        <rect class="cls-3" x="909.7005" y="374.8998" width="130" height="130"/>
        <rect class="cls-3" x="1169.7011" y="374.8997" width="130" height="130"/>
        <path class="cls-2" d="M1136.4872,443.7347h-77.873v-7.6699h78.0029l-31.5913-36.1416h10.0103l35.7515,39.9116-35.7515,40.0415h-10.0103l31.4614-36.1416Z"/>
      </g>
    </g>
  </g>
  <g id="_图层_2" data-name="图层 2">
    <g>
      <g>
        <path class="cls-1" d="M153.2944,187.8954c.7349-2.6431,1.9497-5.1353,3.6396-7.4751,1.6899-2.3403,4.0952-4.8101,7.2153-7.4102,4.0723-3.4653,7.0625-6.1748,8.9697-8.125,1.9053-1.9502,3.2705-3.9204,4.0952-5.915,.8228-1.9927,1.2349-4.4199,1.2349-7.2798,0-4.5928-1.4951-8.125-4.4849-10.5952-2.9902-2.4697-7.2598-3.7051-12.8052-3.7051-4.2471,0-8.1045,.52-11.5698,1.5601-3.4673,1.04-7.2373,2.5146-11.3101,4.4199l-4.4199-10.0098c4.1597-2.1655,8.5576-3.8779,13.1948-5.1353,4.6353-1.2549,9.6401-1.8848,15.0151-1.8848,9.0127,0,16.0103,2.2324,20.9951,6.6948,4.9824,4.4648,7.4746,10.5952,7.4746,18.395,0,4.0747-.6499,7.605-1.9497,10.5952-1.3003,2.9897-3.0776,5.6548-5.3301,7.9951-2.2549,2.3398-5.46,5.2446-9.6201,8.71-3.2944,2.687-5.7422,5.0049-7.3447,6.9546-1.605,1.9502-2.6875,3.9004-3.25,5.8501-.5649,1.9502-.8452,4.355-.8452,7.2153v2.3398h-10.0098v-3.77c0-3.6401,.3672-6.7803,1.105-9.4248Zm-1.8853,27.105c1.6455-1.5601,3.77-2.3403,6.3701-2.3403s4.7227,.7803,6.3701,2.3403c1.645,1.5596,2.4697,3.9873,2.4697,7.2798,0,3.2949-.8247,5.7202-2.4697,7.2798-1.6475,1.5601-3.77,2.3403-6.3701,2.3403s-4.7246-.7803-6.3701-2.3403c-1.6475-1.5596-2.4697-3.9849-2.4697-7.2798,0-3.2925,.8223-5.7202,2.4697-7.2798Z"/>
        <path class="cls-1" d="M283.2944,187.8954c.7349-2.6431,1.9497-5.1353,3.6396-7.4751,1.6899-2.3403,4.0952-4.8101,7.2153-7.4102,4.0723-3.4653,7.0625-6.1748,8.9697-8.125,1.9053-1.9502,3.2705-3.9204,4.0952-5.915,.8228-1.9927,1.2349-4.4199,1.2349-7.2798,0-4.5928-1.4951-8.125-4.4849-10.5952-2.9902-2.4697-7.2598-3.7051-12.8052-3.7051-4.2471,0-8.1045,.52-11.5698,1.5601-3.4673,1.04-7.2373,2.5146-11.3101,4.4199l-4.4199-10.0098c4.1597-2.1655,8.5576-3.8779,13.1948-5.1353,4.6353-1.2549,9.6401-1.8848,15.0151-1.8848,9.0127,0,16.0103,2.2324,20.9951,6.6948,4.9824,4.4648,7.4746,10.5952,7.4746,18.395,0,4.0747-.6499,7.605-1.9497,10.5952-1.3003,2.9897-3.0776,5.6548-5.3301,7.9951-2.2549,2.3398-5.46,5.2446-9.6201,8.71-3.2944,2.687-5.7422,5.0049-7.3447,6.9546-1.605,1.9502-2.6875,3.9004-3.25,5.8501-.5649,1.9502-.8452,4.355-.8452,7.2153v2.3398h-10.0098v-3.77c0-3.6401,.3672-6.7803,1.105-9.4248Zm-1.8853,27.105c1.6455-1.5601,3.77-2.3403,6.3701-2.3403s4.7227,.7803,6.3701,2.3403c1.645,1.5596,2.4697,3.9873,2.4697,7.2798,0,3.2949-.8247,5.7202-2.4697,7.2798-1.6475,1.5601-3.77,2.3403-6.3701,2.3403s-4.7246-.7803-6.3701-2.3403c-1.6475-1.5596-2.4697-3.9849-2.4697-7.2798,0-3.2925,.8223-5.7202,2.4697-7.2798Z"/>
        <path class="cls-1" d="M543.2944,187.8954c.7349-2.6431,1.9497-5.1353,3.6396-7.4751,1.6899-2.3403,4.0952-4.8101,7.2153-7.4102,4.0723-3.4653,7.0625-6.1748,8.9697-8.125,1.9053-1.9502,3.2705-3.9204,4.0952-5.915,.8228-1.9927,1.2349-4.4199,1.2349-7.2798,0-4.5928-1.4951-8.125-4.4849-10.5952-2.9902-2.4697-7.2598-3.7051-12.8052-3.7051-4.2471,0-8.1045,.52-11.5698,1.5601-3.4673,1.04-7.2373,2.5146-11.3101,4.4199l-4.4199-10.0098c4.1597-2.1655,8.5576-3.8779,13.1948-5.1353,4.6353-1.2549,9.6401-1.8848,15.0151-1.8848,9.0127,0,16.0103,2.2324,20.9951,6.6948,4.9824,4.4648,7.4746,10.5952,7.4746,18.395,0,4.0747-.6499,7.605-1.9497,10.5952-1.3003,2.9897-3.0776,5.6548-5.3301,7.9951-2.2549,2.3398-5.46,5.2446-9.6201,8.71-3.2944,2.687-5.7422,5.0049-7.3447,6.9546-1.605,1.9502-2.6875,3.9004-3.25,5.8501-.5649,1.9502-.8452,4.355-.8452,7.2153v2.3398h-10.0098v-3.77c0-3.6401,.3672-6.7803,1.105-9.4248Zm-1.8853,27.105c1.6455-1.5601,3.77-2.3403,6.3701-2.3403s4.7227,.7803,6.3701,2.3403c1.645,1.5596,2.4697,3.9873,2.4697,7.2798,0,3.2949-.8247,5.7202-2.4697,7.2798-1.6475,1.5601-3.77,2.3403-6.3701,2.3403s-4.7246-.7803-6.3701-2.3403c-1.6475-1.5596-2.4697-3.9849-2.4697-7.2798,0-3.2925,.8223-5.7202,2.4697-7.2798Z"/>
        <path class="cls-1" d="M608.2944,187.8954c.7349-2.6431,1.9497-5.1353,3.6396-7.4751,1.6899-2.3403,4.0952-4.8101,7.2153-7.4102,4.0723-3.4653,7.0625-6.1748,8.9697-8.125,1.9053-1.9502,3.2705-3.9204,4.0952-5.915,.8228-1.9927,1.2349-4.4199,1.2349-7.2798,0-4.5928-1.4951-8.125-4.4849-10.5952-2.9902-2.4697-7.2598-3.7051-12.8052-3.7051-4.2471,0-8.1045,.52-11.5698,1.5601-3.4673,1.04-7.2373,2.5146-11.3101,4.4199l-4.4199-10.0098c4.1597-2.1655,8.5576-3.8779,13.1948-5.1353,4.6353-1.2549,9.6401-1.8848,15.0151-1.8848,9.0127,0,16.0103,2.2324,20.9951,6.6948,4.9824,4.4648,7.4746,10.5952,7.4746,18.395,0,4.0747-.6499,7.605-1.9497,10.5952-1.3003,2.9897-3.0776,5.6548-5.3301,7.9951-2.2549,2.3398-5.46,5.2446-9.6201,8.71-3.2944,2.687-5.7422,5.0049-7.3447,6.9546-1.605,1.9502-2.6875,3.9004-3.25,5.8501-.5649,1.9502-.8452,4.355-.8452,7.2153v2.3398h-10.0098v-3.77c0-3.6401,.3672-6.7803,1.105-9.4248Zm-1.8853,27.105c1.6455-1.5601,3.77-2.3403,6.3701-2.3403s4.7227,.7803,6.3701,2.3403c1.645,1.5596,2.4697,3.9873,2.4697,7.2798,0,3.2949-.8247,5.7202-2.4697,7.2798-1.6475,1.5601-3.77,2.3403-6.3701,2.3403s-4.7246-.7803-6.3701-2.3403c-1.6475-1.5596-2.4697-3.9849-2.4697-7.2798,0-3.2925,.8223-5.7202,2.4697-7.2798Z"/>
      </g>
      <g>
        <path class="cls-1" d="M155.8291,475.0004c1.6455-1.5596,3.77-2.3398,6.3701-2.3398s4.7227,.7803,6.3701,2.3398c1.645,1.5596,2.4697,3.9873,2.4697,7.2803,0,3.2949-.8247,5.7197-2.4697,7.2793-1.6475,1.5605-3.77,2.3408-6.3701,2.3408s-4.7246-.7803-6.3701-2.3408c-1.6475-1.5596-2.4697-3.9844-2.4697-7.2793,0-3.293,.8223-5.7207,2.4697-7.2803Zm-1.2998-87.0996h15.3398l-3.5098,73.1895h-8.3203l-3.5098-73.1895Z"/>
        <path class="cls-1" d="M283.2944,447.8959c.7349-2.6436,1.9497-5.1357,3.6396-7.4756s4.0952-4.8096,7.2153-7.4102c4.0723-3.4648,7.0625-6.1748,8.9697-8.125,1.9053-1.9502,3.2705-3.9199,4.0952-5.915,.8228-1.9922,1.2349-4.4199,1.2349-7.2793,0-4.5928-1.4951-8.125-4.4849-10.5957-2.9902-2.4697-7.2598-3.7051-12.8052-3.7051-4.2471,0-8.1045,.5205-11.5698,1.5605-3.4673,1.04-7.2373,2.5146-11.3101,4.4199l-4.4199-10.0098c4.1597-2.166,8.5576-3.8779,13.1948-5.1357,4.6353-1.2549,9.6401-1.8848,15.0151-1.8848,9.0127,0,16.0103,2.2324,20.9951,6.6953,4.9824,4.4648,7.4746,10.5947,7.4746,18.3945,0,4.0752-.6499,7.6055-1.9497,10.5957-1.3003,2.9893-3.0776,5.6543-5.3301,7.9951-2.2549,2.3398-5.46,5.2441-9.6201,8.71-3.2944,2.6865-5.7422,5.0049-7.3447,6.9541-1.605,1.9502-2.6875,3.9004-3.25,5.8506-.5649,1.9502-.8452,4.3545-.8452,7.2148v2.3398h-10.0098v-3.7695c0-3.6406,.3672-6.7803,1.105-9.4248Zm-1.8853,27.1045c1.6455-1.5596,3.77-2.3398,6.3701-2.3398s4.7227,.7803,6.3701,2.3398c1.645,1.5596,2.4697,3.9873,2.4697,7.2803,0,3.2949-.8247,5.7197-2.4697,7.2793-1.6475,1.5605-3.77,2.3408-6.3701,2.3408s-4.7246-.7803-6.3701-2.3408c-1.6475-1.5596-2.4697-3.9844-2.4697-7.2793,0-3.293,.8223-5.7207,2.4697-7.2803Z"/>
        <path class="cls-1" d="M545.8291,475.0004c1.6455-1.5596,3.77-2.3398,6.3701-2.3398s4.7227,.7803,6.3701,2.3398c1.645,1.5596,2.4697,3.9873,2.4697,7.2803,0,3.2949-.8247,5.7197-2.4697,7.2793-1.6475,1.5605-3.77,2.3408-6.3701,2.3408s-4.7246-.7803-6.3701-2.3408c-1.6475-1.5596-2.4697-3.9844-2.4697-7.2793,0-3.293,.8223-5.7207,2.4697-7.2803Zm-1.2998-87.0996h15.3398l-3.5098,73.1895h-8.3203l-3.5098-73.1895Z"/>
        <path class="cls-1" d="M608.2944,447.8959c.7349-2.6436,1.9497-5.1357,3.6396-7.4756s4.0952-4.8096,7.2153-7.4102c4.0723-3.4648,7.0625-6.1748,8.9697-8.125,1.9053-1.9502,3.2705-3.9199,4.0952-5.915,.8228-1.9922,1.2349-4.4199,1.2349-7.2793,0-4.5928-1.4951-8.125-4.4849-10.5957-2.9902-2.4697-7.2598-3.7051-12.8052-3.7051-4.2471,0-8.1045,.5205-11.5698,1.5605-3.4673,1.04-7.2373,2.5146-11.3101,4.4199l-4.4199-10.0098c4.1597-2.166,8.5576-3.8779,13.1948-5.1357,4.6353-1.2549,9.6401-1.8848,15.0151-1.8848,9.0127,0,16.0103,2.2324,20.9951,6.6953,4.9824,4.4648,7.4746,10.5947,7.4746,18.3945,0,4.0752-.6499,7.6055-1.9497,10.5957-1.3003,2.9893-3.0776,5.6543-5.3301,7.9951-2.2549,2.3398-5.46,5.2441-9.6201,8.71-3.2944,2.6865-5.7422,5.0049-7.3447,6.9541-1.605,1.9502-2.6875,3.9004-3.25,5.8506-.5649,1.9502-.8452,4.3545-.8452,7.2148v2.3398h-10.0098v-3.7695c0-3.6406,.3672-6.7803,1.105-9.4248Zm-1.8853,27.1045c1.6455-1.5596,3.77-2.3398,6.3701-2.3398s4.7227,.7803,6.3701,2.3398c1.645,1.5596,2.4697,3.9873,2.4697,7.2803,0,3.2949-.8247,5.7197-2.4697,7.2793-1.6475,1.5605-3.77,2.3408-6.3701,2.3408s-4.7246-.7803-6.3701-2.3408c-1.6475-1.5596-2.4697-3.9844-2.4697-7.2793,0-3.293,.8223-5.7207,2.4697-7.2803Z"/>
      </g>
      <g>
        <path class="cls-1" d="M803.2944,187.8954c.7349-2.6431,1.9497-5.1353,3.6396-7.4751,1.6899-2.3403,4.0952-4.8101,7.2153-7.4102,4.0723-3.4653,7.0625-6.1748,8.9697-8.125,1.9053-1.9502,3.2705-3.9204,4.0952-5.915,.8228-1.9927,1.2349-4.4199,1.2349-7.2798,0-4.5928-1.4951-8.125-4.4849-10.5952-2.9902-2.4697-7.2598-3.7051-12.8052-3.7051-4.2471,0-8.1045,.52-11.5698,1.5601-3.4673,1.04-7.2373,2.5146-11.3101,4.4199l-4.4199-10.0098c4.1597-2.1655,8.5576-3.8779,13.1948-5.1353,4.6353-1.2549,9.6401-1.8848,15.0151-1.8848,9.0127,0,16.0103,2.2324,20.9951,6.6948,4.9824,4.4648,7.4746,10.5952,7.4746,18.395,0,4.0747-.6499,7.605-1.9497,10.5952-1.3003,2.9897-3.0776,5.6548-5.3301,7.9951-2.2549,2.3398-5.46,5.2446-9.6201,8.71-3.2944,2.687-5.7422,5.0049-7.3447,6.9546-1.605,1.9502-2.6875,3.9004-3.25,5.8501-.5649,1.9502-.8452,4.355-.8452,7.2153v2.3398h-10.0098v-3.77c0-3.6401,.3672-6.7803,1.105-9.4248Zm-1.8853,27.105c1.6455-1.5601,3.77-2.3403,6.3701-2.3403s4.7227,.7803,6.3701,2.3403c1.645,1.5596,2.4697,3.9873,2.4697,7.2798,0,3.2949-.8247,5.7202-2.4697,7.2798-1.6475,1.5601-3.77,2.3403-6.3701,2.3403s-4.7246-.7803-6.3701-2.3403c-1.6475-1.5596-2.4697-3.9849-2.4697-7.2798,0-3.2925,.8223-5.7202,2.4697-7.2798Z"/>
        <path class="cls-1" d="M935.8291,215.0004c1.6455-1.5601,3.77-2.3403,6.3701-2.3403s4.7227,.7803,6.3701,2.3403c1.645,1.5596,2.4697,3.9873,2.4697,7.2798,0,3.2949-.8247,5.7202-2.4697,7.2798-1.6475,1.5601-3.77,2.3403-6.3701,2.3403s-4.7246-.7803-6.3701-2.3403c-1.6475-1.5596-2.4697-3.9849-2.4697-7.2798,0-3.2925,.8223-5.7202,2.4697-7.2798Zm-1.2998-87.1001h15.3398l-3.5098,73.1899h-8.3203l-3.5098-73.1899Z"/>
        <path class="cls-1" d="M1193.2944,187.8954c.7349-2.6431,1.9497-5.1353,3.6396-7.4751,1.6899-2.3403,4.0952-4.8101,7.2153-7.4102,4.0723-3.4653,7.0625-6.1748,8.9697-8.125,1.9053-1.9502,3.2705-3.9204,4.0947-5.915,.8232-1.9927,1.2354-4.4199,1.2354-7.2798,0-4.5928-1.4951-8.125-4.4854-10.5952-2.9902-2.4697-7.2598-3.7051-12.8047-3.7051-4.2471,0-8.1045,.52-11.5698,1.5601-3.4673,1.04-7.2373,2.5146-11.3101,4.4199l-4.4199-10.0098c4.1597-2.1655,8.5576-3.8779,13.1948-5.1353,4.6353-1.2549,9.6401-1.8848,15.0151-1.8848,9.0127,0,16.0098,2.2324,20.9951,6.6948,4.9824,4.4648,7.4746,10.5952,7.4746,18.395,0,4.0747-.6504,7.605-1.9502,10.5952-1.2998,2.9897-3.0771,5.6548-5.3301,7.9951-2.2549,2.3398-5.46,5.2446-9.6201,8.71-3.2939,2.687-5.7422,5.0049-7.3447,6.9546-1.6045,1.9502-2.6875,3.9004-3.25,5.8501-.5645,1.9502-.8447,4.355-.8447,7.2153v2.3398h-10.0098v-3.77c0-3.6401,.3672-6.7803,1.105-9.4248Zm-1.8853,27.105c1.6455-1.5601,3.77-2.3403,6.3701-2.3403s4.7227,.7803,6.3701,2.3403c1.6445,1.5596,2.4697,3.9873,2.4697,7.2798,0,3.2949-.8252,5.7202-2.4697,7.2798-1.6475,1.5601-3.7705,2.3403-6.3701,2.3403s-4.7246-.7803-6.3701-2.3403c-1.6475-1.5596-2.4697-3.9849-2.4697-7.2798,0-3.2925,.8223-5.7202,2.4697-7.2798Z"/>
        <path class="cls-1" d="M1260.8291,215.0004c1.6455-1.5601,3.7695-2.3403,6.3701-2.3403s4.7227,.7803,6.3701,2.3403c1.6445,1.5596,2.4697,3.9873,2.4697,7.2798,0,3.2949-.8252,5.7202-2.4697,7.2798-1.6475,1.5601-3.7705,2.3403-6.3701,2.3403s-4.7246-.7803-6.3701-2.3403c-1.6475-1.5596-2.4697-3.9849-2.4697-7.2798,0-3.2925,.8223-5.7202,2.4697-7.2798Zm-1.2998-87.1001h15.3398l-3.5098,73.1899h-8.3203l-3.5098-73.1899Z"/>
      </g>
      <g>
        <path class="cls-1" d="M805.8291,475.0004c1.6455-1.5596,3.77-2.3398,6.3701-2.3398s4.7227,.7803,6.3701,2.3398c1.645,1.5596,2.4697,3.9873,2.4697,7.2803,0,3.2949-.8247,5.7197-2.4697,7.2793-1.6475,1.5605-3.77,2.3408-6.3701,2.3408s-4.7246-.7803-6.3701-2.3408c-1.6475-1.5596-2.4697-3.9844-2.4697-7.2793,0-3.293,.8223-5.7207,2.4697-7.2803Zm-1.2998-87.0996h15.3398l-3.5098,73.1895h-8.3203l-3.5098-73.1895Z"/>
        <path class="cls-1" d="M935.8291,475.0004c1.6455-1.5596,3.77-2.3398,6.3701-2.3398s4.7227,.7803,6.3701,2.3398c1.645,1.5596,2.4697,3.9873,2.4697,7.2803,0,3.2949-.8247,5.7197-2.4697,7.2793-1.6475,1.5605-3.77,2.3408-6.3701,2.3408s-4.7246-.7803-6.3701-2.3408c-1.6475-1.5596-2.4697-3.9844-2.4697-7.2793,0-3.293,.8223-5.7207,2.4697-7.2803Zm-1.2998-87.0996h15.3398l-3.5098,73.1895h-8.3203l-3.5098-73.1895Z"/>
        <path class="cls-1" d="M1195.8291,475.0004c1.6455-1.5596,3.77-2.3398,6.3701-2.3398s4.7227,.7803,6.3701,2.3398c1.6445,1.5596,2.4697,3.9873,2.4697,7.2803,0,3.2949-.8252,5.7197-2.4697,7.2793-1.6475,1.5605-3.7705,2.3408-6.3701,2.3408s-4.7246-.7803-6.3701-2.3408c-1.6475-1.5596-2.4697-3.9844-2.4697-7.2793,0-3.293,.8223-5.7207,2.4697-7.2803Zm-1.2998-87.0996h15.3398l-3.5098,73.1895h-8.3203l-3.5098-73.1895Z"/>
        <path class="cls-1" d="M1260.8291,475.0004c1.6455-1.5596,3.7695-2.3398,6.3701-2.3398s4.7227,.7803,6.3701,2.3398c1.6445,1.5596,2.4697,3.9873,2.4697,7.2803,0,3.2949-.8252,5.7197-2.4697,7.2793-1.6475,1.5605-3.7705,2.3408-6.3701,2.3408s-4.7246-.7803-6.3701-2.3408c-1.6475-1.5596-2.4697-3.9844-2.4697-7.2793,0-3.293,.8223-5.7207,2.4697-7.2803Zm-1.2998-87.0996h15.3398l-3.5098,73.1895h-8.3203l-3.5098-73.1895Z"/>
      </g>
    </g>
  </g>
</svg>