<?xml version="1.0" encoding="utf-8"?>
<!-- Generator: Adobe Illustrator 23.1.0, SVG Export Plug-In . SVG Version: 6.00 Build 0)  -->
<svg version="1.1" id="图层_1" xmlns="http://www.w3.org/2000/svg" xmlns:xlink="http://www.w3.org/1999/xlink" x="0px" y="0px"
	 viewBox="0 0 2400 600" style="enable-background:new 0 0 2400 600;" xml:space="preserve">
<style type="text/css">
	.st0{fill:none;stroke:#B8D0E7;stroke-width:4;stroke-miterlimit:10;}
	.st1{fill:#B9474F;}
</style>
<g>
	<rect x="130" y="114.9" class="st0" width="130" height="130"/>
	<rect x="260" y="114.9" class="st0" width="130" height="130"/>
	<rect x="520" y="115.1" class="st0" width="130" height="130"/>
	<g>
		<path d="M152.7,197.3c0-5.4,0.9-9.8,2.6-13.4c1.7-3.6,4.9-7.2,9.4-10.9c5.5-4.4,9.2-8,11.2-10.8c2-2.8,3.1-6.3,3.1-10.5
			c0-4.6-1.5-8.1-4.4-10.6c-2.9-2.5-7.2-3.7-12.9-3.7c-4.7,0-8.8,0.6-12.5,1.8c-3.6,1.2-7.1,2.6-10.4,4.2l-4.4-10
			c3.8-2,8-3.7,12.7-5c4.6-1.3,9.8-2,15.5-2c9.1,0,16.1,2.3,21.1,6.8c4.9,4.5,7.4,10.6,7.4,18.3c0,4.2-0.7,7.9-2.1,10.9
			c-1.4,3-3.3,5.8-5.8,8.3c-2.5,2.6-5.5,5.3-9,8.1c-4.7,3.9-7.8,7.2-9.2,9.9c-1.5,2.7-2.2,6.1-2.2,10.1v2.3h-10V197.3z M149.4,222.2
			c0-3.5,0.8-5.9,2.5-7.4c1.6-1.5,3.8-2.2,6.4-2.2c2.3,0,4.4,0.7,6.1,2.2c1.7,1.5,2.6,3.9,2.6,7.4c0,3.5-0.9,6-2.6,7.5
			c-1.7,1.5-3.8,2.3-6.1,2.3c-2.6,0-4.7-0.8-6.4-2.3C150.2,228.1,149.4,225.6,149.4,222.2z"/>
		<path d="M282.7,197.3c0-5.4,0.9-9.8,2.6-13.4c1.7-3.6,4.9-7.2,9.4-10.9c5.5-4.4,9.2-8,11.2-10.8c2-2.8,3.1-6.3,3.1-10.5
			c0-4.6-1.5-8.1-4.4-10.6c-2.9-2.5-7.2-3.7-12.9-3.7c-4.7,0-8.8,0.6-12.5,1.8c-3.6,1.2-7.1,2.6-10.4,4.2l-4.4-10
			c3.8-2,8-3.7,12.7-5c4.6-1.3,9.8-2,15.5-2c9.1,0,16.1,2.3,21.1,6.8c4.9,4.5,7.4,10.6,7.4,18.3c0,4.2-0.7,7.9-2.1,10.9
			c-1.4,3-3.3,5.8-5.8,8.3c-2.5,2.6-5.5,5.3-9,8.1c-4.7,3.9-7.8,7.2-9.2,9.9c-1.5,2.7-2.2,6.1-2.2,10.1v2.3h-10V197.3z M279.4,222.2
			c0-3.5,0.8-5.9,2.5-7.4c1.6-1.5,3.8-2.2,6.4-2.2c2.3,0,4.4,0.7,6.1,2.2c1.7,1.5,2.6,3.9,2.6,7.4c0,3.5-0.9,6-2.6,7.5
			c-1.7,1.5-3.8,2.3-6.1,2.3c-2.6,0-4.7-0.8-6.4-2.3C280.2,228.1,279.4,225.6,279.4,222.2z"/>
		<path d="M542.7,197.3c0-5.4,0.9-9.8,2.6-13.4c1.7-3.6,4.9-7.2,9.4-10.9c5.5-4.4,9.2-8,11.2-10.8c2-2.8,3.1-6.3,3.1-10.5
			c0-4.6-1.5-8.1-4.4-10.6c-2.9-2.5-7.2-3.7-12.9-3.7c-4.7,0-8.8,0.6-12.5,1.8c-3.6,1.2-7.1,2.6-10.4,4.2l-4.4-10
			c3.8-2.1,8-3.8,12.7-5.1c4.6-1.3,9.8-2,15.5-2c9.1,0,16.1,2.2,21.1,6.7c4.9,4.5,7.4,10.6,7.4,18.4c0,4.2-0.7,7.9-2.1,10.9
			c-1.4,3-3.3,5.8-5.8,8.3c-2.5,2.6-5.5,5.3-9,8.1c-4.7,3.9-7.8,7.2-9.2,9.9c-1.5,2.7-2.2,6.1-2.2,10.1v2.3h-10V197.3z M539.4,222.2
			c0-3.5,0.8-5.9,2.5-7.4c1.6-1.5,3.8-2.2,6.4-2.2c2.3,0,4.4,0.7,6.1,2.2c1.7,1.5,2.6,3.9,2.6,7.4c0,3.5-0.9,6-2.6,7.5
			c-1.7,1.5-3.8,2.3-6.1,2.3c-2.6,0-4.7-0.8-6.4-2.3C540.2,228.1,539.4,225.6,539.4,222.2z M607.7,197.3c0-5.4,0.9-9.8,2.6-13.4
			c1.7-3.6,4.9-7.2,9.4-10.9c5.5-4.4,9.2-8,11.2-10.8c2-2.8,3.1-6.3,3.1-10.5c0-4.6-1.5-8.1-4.4-10.6c-2.9-2.5-7.2-3.7-12.9-3.7
			c-4.7,0-8.8,0.6-12.5,1.8c-3.6,1.2-7.1,2.6-10.4,4.2l-4.4-10c3.8-2.1,8-3.8,12.7-5.1c4.6-1.3,9.8-2,15.5-2
			c9.1,0,16.1,2.2,21.1,6.7c4.9,4.5,7.4,10.6,7.4,18.4c0,4.2-0.7,7.9-2.1,10.9c-1.4,3-3.3,5.8-5.8,8.3c-2.5,2.6-5.5,5.3-9,8.1
			c-4.7,3.9-7.8,7.2-9.2,9.9c-1.5,2.7-2.2,6.1-2.2,10.1v2.3h-10V197.3z M604.4,222.2c0-3.5,0.8-5.9,2.5-7.4c1.6-1.5,3.8-2.2,6.4-2.2
			c2.3,0,4.4,0.7,6.1,2.2c1.7,1.5,2.6,3.9,2.6,7.4c0,3.5-0.9,6-2.6,7.5c-1.7,1.5-3.8,2.3-6.1,2.3c-2.6,0-4.7-0.8-6.4-2.3
			C605.2,228.1,604.4,225.6,604.4,222.2z"/>
	</g>
	<g>
		<g>
			<path class="st1" d="M478.7,199.9c2.7-5.5,5.2-9.7,7.5-12.5h-75.8v-5.5h75.8c-2.3-2.8-4.9-6.9-7.5-12.5h4.5
				c5.5,6.3,11.2,11,17.2,14v2.3c-6,3-11.7,7.7-17.2,14H478.7z"/>
		</g>
	</g>
</g>
<g>
	<rect x="780.3" y="114.9" class="st0" width="130" height="130"/>
	<rect x="910.3" y="114.9" class="st0" width="130" height="130"/>
	<rect x="1170.3" y="115.1" class="st0" width="130" height="130"/>
	<g>
		<path d="M803,197.3c0-5.4,0.9-9.8,2.6-13.4c1.7-3.6,4.9-7.2,9.4-10.9c5.5-4.4,9.2-8,11.2-10.8c2-2.8,3.1-6.3,3.1-10.5
			c0-4.6-1.5-8.1-4.4-10.6c-2.9-2.5-7.2-3.7-12.9-3.7c-4.7,0-8.8,0.6-12.5,1.8c-3.6,1.2-7.1,2.6-10.4,4.2l-4.4-10
			c3.8-2,8-3.7,12.7-5c4.6-1.3,9.8-2,15.5-2c9.1,0,16.1,2.3,21.1,6.8c4.9,4.5,7.4,10.6,7.4,18.3c0,4.2-0.7,7.9-2.1,10.9
			c-1.4,3-3.3,5.8-5.8,8.3c-2.5,2.6-5.5,5.3-9,8.1c-4.7,3.9-7.8,7.2-9.2,9.9c-1.5,2.7-2.2,6.1-2.2,10.1v2.3h-10V197.3z M799.7,222.2
			c0-3.5,0.8-5.9,2.5-7.4c1.6-1.5,3.8-2.2,6.4-2.2c2.3,0,4.4,0.7,6.1,2.2c1.7,1.5,2.6,3.9,2.6,7.4c0,3.5-0.9,6-2.6,7.5
			c-1.7,1.5-3.8,2.3-6.1,2.3c-2.6,0-4.7-0.8-6.4-2.3C800.6,228.1,799.7,225.6,799.7,222.2z"/>
		<path d="M934.2,222.3c0-3.6,0.8-6,2.5-7.5s3.8-2.1,6.3-2.1c2.3,0,4.4,0.7,6.2,2.1c1.8,1.4,2.7,3.9,2.7,7.5c0,3.4-0.9,5.8-2.7,7.3
			c-1.8,1.5-3.8,2.3-6.2,2.3c-2.5,0-4.6-0.8-6.3-2.3C935,228.1,934.2,225.7,934.2,222.3z M947.2,201.2H939l-3.5-73.3h15.2
			L947.2,201.2z"/>
		<path d="M1193,197.3c0-5.4,0.9-9.8,2.6-13.4c1.7-3.6,4.9-7.2,9.4-10.9c5.5-4.4,9.2-8,11.2-10.8c2-2.8,3.1-6.3,3.1-10.5
			c0-4.6-1.5-8.1-4.4-10.6c-2.9-2.5-7.2-3.7-12.9-3.7c-4.7,0-8.8,0.6-12.5,1.8c-3.6,1.2-7.1,2.6-10.4,4.2l-4.4-10
			c3.8-2,8-3.7,12.7-5c4.6-1.3,9.8-2,15.5-2c9.1,0,16.1,2.3,21.1,6.8c4.9,4.5,7.4,10.6,7.4,18.3c0,4.2-0.7,7.9-2.1,10.9
			c-1.4,3-3.3,5.8-5.8,8.3c-2.5,2.6-5.5,5.3-9,8.1c-4.7,3.9-7.8,7.2-9.2,9.9c-1.5,2.7-2.2,6.1-2.2,10.1v2.3h-10V197.3z
			 M1189.7,222.2c0-3.5,0.8-5.9,2.5-7.4c1.6-1.5,3.8-2.2,6.4-2.2c2.3,0,4.4,0.7,6.1,2.2c1.7,1.5,2.6,3.9,2.6,7.4
			c0,3.5-0.9,6-2.6,7.5c-1.7,1.5-3.8,2.3-6.1,2.3c-2.6,0-4.7-0.8-6.4-2.3C1190.6,228.1,1189.7,225.6,1189.7,222.2z M1259.2,222.3
			c0-3.6,0.8-6,2.5-7.5c1.7-1.4,3.8-2.1,6.3-2.1c2.3,0,4.4,0.7,6.2,2.1c1.8,1.4,2.7,3.9,2.7,7.5c0,3.4-0.9,5.8-2.7,7.3
			c-1.8,1.5-3.8,2.3-6.2,2.3c-2.5,0-4.6-0.8-6.3-2.3C1260,228.1,1259.2,225.7,1259.2,222.3z M1272.2,201.2h-8.2l-3.5-73.3h15.2
			L1272.2,201.2z"/>
	</g>
	<g>
		<g>
			<path class="st1" d="M1129,199.9c2.7-5.5,5.2-9.7,7.5-12.5h-75.8v-5.5h75.8c-2.3-2.8-4.9-6.9-7.5-12.5h4.5
				c5.5,6.3,11.2,11,17.2,14v2.3c-6,3-11.7,7.7-17.2,14H1129z"/>
		</g>
	</g>
</g>
<g>
	<rect x="129.7" y="354.9" class="st0" width="130" height="130"/>
	<rect x="259.7" y="354.9" class="st0" width="130" height="130"/>
	<rect x="519.7" y="355.1" class="st0" width="130" height="130"/>
	<g>
		<path d="M153.5,462.3c0-3.6,0.8-6,2.5-7.5c1.7-1.4,3.8-2.1,6.3-2.1c2.3,0,4.4,0.7,6.2,2.1c1.8,1.4,2.7,3.9,2.7,7.5
			c0,3.4-0.9,5.8-2.7,7.3c-1.8,1.5-3.8,2.3-6.2,2.3c-2.5,0-4.6-0.8-6.3-2.3C154.3,468.1,153.5,465.7,153.5,462.3z M166.5,441.2h-8.2
			l-3.5-73.3H170L166.5,441.2z"/>
		<path d="M282.3,437.3c0-5.4,0.9-9.8,2.6-13.4c1.7-3.6,4.9-7.2,9.4-10.9c5.5-4.4,9.2-8,11.2-10.8c2-2.8,3.1-6.3,3.1-10.5
			c0-4.6-1.5-8.1-4.4-10.6c-2.9-2.5-7.2-3.7-12.9-3.7c-4.7,0-8.8,0.6-12.5,1.8c-3.6,1.2-7.1,2.6-10.4,4.2l-4.4-10
			c3.8-2,8-3.7,12.7-5c4.6-1.3,9.8-2,15.5-2c9.1,0,16.1,2.3,21.1,6.8c4.9,4.5,7.4,10.6,7.4,18.3c0,4.2-0.7,7.9-2.1,10.9
			c-1.4,3-3.3,5.8-5.8,8.3c-2.5,2.6-5.5,5.3-9,8.1c-4.7,3.9-7.8,7.2-9.2,9.9c-1.5,2.7-2.2,6.1-2.2,10.1v2.3h-10V437.3z M279.1,462.2
			c0-3.5,0.8-5.9,2.5-7.4c1.6-1.5,3.8-2.2,6.4-2.2c2.3,0,4.4,0.7,6.1,2.2c1.7,1.5,2.6,3.9,2.6,7.4c0,3.5-0.9,6-2.6,7.5
			c-1.7,1.5-3.8,2.3-6.1,2.3c-2.6,0-4.7-0.8-6.4-2.3C279.9,468.1,279.1,465.6,279.1,462.2z"/>
		<path d="M543.5,462.3c0-3.6,0.8-6,2.5-7.5c1.7-1.4,3.8-2.1,6.3-2.1c2.3,0,4.4,0.7,6.2,2.1c1.8,1.4,2.7,3.9,2.7,7.5
			c0,3.4-0.9,5.8-2.7,7.3c-1.8,1.5-3.8,2.3-6.2,2.3c-2.5,0-4.6-0.8-6.3-2.3C544.3,468.1,543.5,465.7,543.5,462.3z M556.5,441.2h-8.2
			l-3.5-73.3H560L556.5,441.2z M607.3,437.3c0-5.4,0.9-9.8,2.6-13.4c1.7-3.6,4.9-7.2,9.4-10.9c5.5-4.4,9.2-8,11.2-10.8
			c2-2.8,3.1-6.3,3.1-10.5c0-4.6-1.5-8.1-4.4-10.6c-2.9-2.5-7.2-3.7-12.9-3.7c-4.7,0-8.8,0.6-12.5,1.8c-3.6,1.2-7.1,2.6-10.4,4.2
			l-4.4-10c3.8-2.1,8-3.8,12.7-5.1c4.6-1.3,9.8-2,15.5-2c9.1,0,16.1,2.2,21.1,6.7c4.9,4.5,7.4,10.6,7.4,18.4c0,4.2-0.7,7.9-2.1,10.9
			c-1.4,3-3.3,5.8-5.8,8.3c-2.5,2.6-5.5,5.3-9,8.1c-4.7,3.9-7.8,7.2-9.2,9.9c-1.5,2.7-2.2,6.1-2.2,10.1v2.3h-10V437.3z M604.1,462.2
			c0-3.5,0.8-5.9,2.5-7.4c1.6-1.5,3.8-2.2,6.4-2.2c2.3,0,4.4,0.7,6.1,2.2c1.7,1.5,2.6,3.9,2.6,7.4c0,3.5-0.9,6-2.6,7.5
			c-1.7,1.5-3.8,2.3-6.1,2.3c-2.6,0-4.7-0.8-6.4-2.3C604.9,468.1,604.1,465.6,604.1,462.2z"/>
	</g>
	<g>
		<g>
			<path class="st1" d="M478.3,439.9c2.7-5.5,5.2-9.7,7.5-12.5h-75.8v-5.5h75.8c-2.3-2.8-4.9-6.9-7.5-12.5h4.5
				c5.5,6.3,11.2,11,17.2,14v2.3c-6,3-11.7,7.7-17.2,14H478.3z"/>
		</g>
	</g>
</g>
<g>
	<rect x="780" y="354.9" class="st0" width="130" height="130"/>
	<rect x="910" y="354.9" class="st0" width="130" height="130"/>
	<rect x="1170" y="355.1" class="st0" width="130" height="130"/>
	<g>
		<path d="M803.8,462.3c0-3.6,0.8-6,2.5-7.5s3.8-2.1,6.3-2.1c2.3,0,4.4,0.7,6.2,2.1c1.8,1.4,2.7,3.9,2.7,7.5c0,3.4-0.9,5.8-2.7,7.3
			c-1.8,1.5-3.8,2.3-6.2,2.3c-2.5,0-4.6-0.8-6.3-2.3C804.7,468.1,803.8,465.7,803.8,462.3z M816.8,441.2h-8.2l-3.5-73.3h15.2
			L816.8,441.2z"/>
		<path d="M933.8,462.3c0-3.6,0.8-6,2.5-7.5s3.8-2.1,6.3-2.1c2.3,0,4.4,0.7,6.2,2.1c1.8,1.4,2.7,3.9,2.7,7.5c0,3.4-0.9,5.8-2.7,7.3
			c-1.8,1.5-3.8,2.3-6.2,2.3c-2.5,0-4.6-0.8-6.3-2.3C934.7,468.1,933.8,465.7,933.8,462.3z M946.8,441.2h-8.2l-3.5-73.3h15.2
			L946.8,441.2z"/>
		<path d="M1193.8,462.3c0-3.6,0.8-6,2.5-7.5s3.8-2.1,6.3-2.1c2.3,0,4.4,0.7,6.2,2.1c1.8,1.4,2.7,3.9,2.7,7.5c0,3.4-0.9,5.8-2.7,7.3
			c-1.8,1.5-3.8,2.3-6.2,2.3c-2.5,0-4.6-0.8-6.3-2.3C1194.7,468.1,1193.8,465.7,1193.8,462.3z M1206.8,441.2h-8.2l-3.5-73.3h15.2
			L1206.8,441.2z M1258.8,462.3c0-3.6,0.8-6,2.5-7.5s3.8-2.1,6.3-2.1c2.3,0,4.4,0.7,6.2,2.1c1.8,1.4,2.7,3.9,2.7,7.5
			c0,3.4-0.9,5.8-2.7,7.3c-1.8,1.5-3.8,2.3-6.2,2.3c-2.5,0-4.6-0.8-6.3-2.3C1259.7,468.1,1258.8,465.7,1258.8,462.3z M1271.8,441.2
			h-8.2l-3.5-73.3h15.2L1271.8,441.2z"/>
	</g>
	<g>
		<g>
			<path class="st1" d="M1128.7,439.9c2.7-5.5,5.2-9.7,7.5-12.5h-75.8v-5.5h75.8c-2.3-2.8-4.9-6.9-7.5-12.5h4.6
				c5.5,6.3,11.2,11,17.2,14v2.3c-6,3-11.7,7.7-17.2,14H1128.7z"/>
		</g>
	</g>
</g>
</svg>
