<?xml version="1.0" encoding="UTF-8"?>
<svg xmlns="http://www.w3.org/2000/svg" viewBox="0 0 2400 600">
  <defs>
    <style>
      .cls-1 {
        fill: #001f25;
      }

      .cls-2 {
        fill: none;
        stroke: #cbe6ff;
        stroke-miterlimit: 10;
        stroke-width: 4px;
      }
    </style>
  </defs>
  <g id="_图层_1" data-name="图层 1">
    <g>
      <rect class="cls-2" x="129.9992" y="114.9" width="130" height="130"/>
      <rect class="cls-2" x="292.3992" y="114.9" width="65" height="130"/>
      <rect class="cls-2" x="389.9991" y="115.1" width="49.01" height="130"/>
      <rect class="cls-2" x="129.6992" y="374.8989" width="130" height="130"/>
      <rect class="cls-2" x="292.1992" y="374.8989" width="65" height="130"/>
      <rect class="cls-2" x="519.6992" y="375.0989" width="130" height="130"/>
      <rect class="cls-2" x="682.1992" y="375.0989" width="65" height="130"/>
      <rect class="cls-2" x="909.6992" y="375.0989" width="129.9999" height="130"/>
      <rect class="cls-2" x="1072.1992" y="375.0989" width="65" height="130"/>
      <rect class="cls-2" x="519.9992" y="114.9" width="130" height="130"/>
      <rect class="cls-2" x="682.3992" y="114.9" width="65" height="130"/>
      <rect class="cls-2" x="779.9981" y="115.1" width="49.01" height="130"/>
      <rect class="cls-2" x="909.9992" y="114.9" width="130" height="130"/>
      <rect class="cls-2" x="1072.3992" y="114.9" width="65" height="130"/>
      <rect class="cls-2" x="1170" y="115.1" width="24.96" height="130"/>
      <rect class="cls-2" x="1299.9992" y="114.9" width="130" height="130"/>
      <rect class="cls-2" x="1462.3992" y="114.9" width="65" height="130"/>
      <rect class="cls-2" x="1559.9991" y="115.1" width="24.96" height="130"/>
    </g>
  </g>
  <g id="_图层_2" data-name="图层 2">
    <path class="cls-1" d="M214.7192,138.7552c2.2524-6.0229,4.6353-11.8076,7.1499-17.355h9.3599c-1.3872,5.5474-2.752,11.5498-4.0947,18.0049-1.3447,6.4575-2.3623,12.1123-3.0552,16.9648h-13.6499l-.9102-1.5601c1.2129-4.6797,2.9453-10.0303,5.2002-16.0547Zm24.0498,0c2.2529-6.0229,4.6353-11.8076,7.1504-17.355h9.3599c-1.3872,5.5474-2.7524,11.5498-4.0952,18.0049-1.3447,6.4575-2.3623,12.1123-3.0547,16.9648h-13.6504l-.9097-1.5601c1.2124-4.6797,2.9453-10.0303,5.1997-16.0547Z"/>
    <path class="cls-1" d="M312.4189,139.7552c2.2524-6.0229,4.6353-11.8076,7.1499-17.355h9.3599c-1.3872,5.5474-2.752,11.5498-4.0947,18.0049-1.3447,6.4575-2.3623,12.1123-3.0552,16.9648h-13.6499l-.9102-1.5601c1.2129-4.6797,2.9453-10.0303,5.2002-16.0547Zm24.0498,0c2.2529-6.0229,4.6353-11.8076,7.1504-17.355h9.3599c-1.3872,5.5474-2.7524,11.5498-4.0952,18.0049-1.3447,6.4575-2.3623,12.1123-3.0547,16.9648h-13.6504l-.9097-1.5601c1.2124-4.6797,2.9453-10.0303,5.1997-16.0547Z"/>
    <path class="cls-1" d="M138.1494,445.1v-10.3994h113.0996v10.3994h-113.0996Z"/>
    <path class="cls-1" d="M396.8896,139.7552c2.2524-6.0229,4.6353-11.8076,7.1499-17.355h9.3599c-1.3872,5.5474-2.7524,11.5498-4.0947,18.0049-1.3447,6.4575-2.3623,12.1123-3.0552,16.9648h-13.6499l-.9102-1.5601c1.2129-4.6797,2.9453-10.0303,5.2002-16.0547Zm24.0498,0c2.2529-6.0229,4.6353-11.8076,7.1499-17.355h9.3604c-1.3877,5.5474-2.7524,11.5498-4.0952,18.0049-1.3447,6.4575-2.3623,12.1123-3.0552,16.9648h-13.6499l-.9097-1.5601c1.2124-4.6797,2.9453-10.0303,5.1997-16.0547Z"/>
    <path class="cls-1" d="M540.7793,139.015c-2.2549,6.0249-4.6377,11.8101-7.1504,17.355h-9.3599c1.3853-5.5449,2.7505-11.5474,4.0952-18.0049,1.3423-6.4551,2.3604-12.1104,3.0547-16.9648h13.6504l.9097,1.5601c-1.2144,4.6797-2.9473,10.0322-5.1997,16.0547Zm24.0498,0c-2.2549,6.0249-4.6372,11.8101-7.1499,17.355h-9.3599c1.3853-5.5449,2.75-11.5474,4.0947-18.0049,1.3428-6.4551,2.3604-12.1104,3.0552-16.9648h13.6499l.9102,1.5601c-1.2148,4.6797-2.9478,10.0322-5.2002,16.0547Z"/>
    <path class="cls-1" d="M703.479,140.015c-2.2549,6.0249-4.6377,11.8101-7.1504,17.355h-9.3599c1.3853-5.5449,2.7505-11.5474,4.0952-18.0049,1.3423-6.4551,2.3604-12.1104,3.0547-16.9648h13.6504l.9097,1.5601c-1.2144,4.6797-2.9473,10.0322-5.1997,16.0547Zm24.0498,0c-2.2549,6.0249-4.6372,11.8101-7.1499,17.355h-9.3599c1.3853-5.5449,2.75-11.5474,4.0947-18.0049,1.3428-6.4551,2.3604-12.1104,3.0552-16.9648h13.6499l.9102,1.5601c-1.2148,4.6797-2.9478,10.0322-5.2002,16.0547Z"/>
    <path class="cls-1" d="M798.2188,140.015c-2.2539,6.0249-4.6367,11.8101-7.1494,17.355h-9.3604c1.3857-5.5449,2.751-11.5474,4.0947-18.0049,1.3428-6.4551,2.3604-12.1104,3.0557-16.9648h13.6494l.9102,1.5601c-1.2148,4.6797-2.9473,10.0322-5.2002,16.0547Zm24.0508,0c-2.2549,6.0249-4.6377,11.8101-7.1504,17.355h-9.3604c1.3857-5.5449,2.751-11.5474,4.0957-18.0049,1.3428-6.4551,2.3604-12.1104,3.0547-16.9648h13.6504l.9092,1.5601c-1.2139,4.6797-2.9473,10.0322-5.1992,16.0547Z"/>
    <path class="cls-1" d="M1018.9189,138.7552c2.2529-6.0229,4.6348-11.8076,7.1504-17.355h9.3594c-1.3867,5.5474-2.752,11.5498-4.0947,18.0049-1.3447,6.4575-2.3623,12.1123-3.0547,16.9648h-13.6504l-.9102-1.5601c1.2129-4.6797,2.9453-10.0303,5.2002-16.0547Z"/>
    <path class="cls-1" d="M1116.6187,139.7552c2.2529-6.0229,4.6353-11.8076,7.1504-17.355h9.3599c-1.3872,5.5474-2.7524,11.5498-4.0952,18.0049-1.3447,6.4575-2.3623,12.1123-3.0547,16.9648h-13.6504l-.9097-1.5601c1.2124-4.6797,2.9453-10.0303,5.1997-16.0547Z"/>
    <path class="cls-1" d="M1177.0391,139.7552c2.2524-6.0229,4.6353-11.8076,7.1499-17.355h9.3599c-1.3872,5.5474-2.7524,11.5498-4.0947,18.0049-1.3447,6.4575-2.3623,12.1123-3.0552,16.9648h-13.6499l-.9102-1.5601c1.2129-4.6797,2.9453-10.0303,5.2002-16.0547Z"/>
    <path class="cls-1" d="M1320.7793,139.015c-2.2549,6.0249-4.6377,11.8101-7.1504,17.355h-9.3594c1.3848-5.5449,2.75-11.5474,4.0947-18.0049,1.3428-6.4551,2.3604-12.1104,3.0547-16.9648h13.6504l.9102,1.5601c-1.2148,4.6797-2.9473,10.0322-5.2002,16.0547Z"/>
    <path class="cls-1" d="M1483.4795,140.015c-2.2549,6.0249-4.6377,11.8101-7.1504,17.355h-9.3604c1.3857-5.5449,2.751-11.5474,4.0957-18.0049,1.3418-6.4551,2.3604-12.1104,3.0547-16.9648h13.6504l.9102,1.5601c-1.2148,4.6797-2.9473,10.0322-5.2002,16.0547Z"/>
    <path class="cls-1" d="M1578.2197,140.015c-2.2549,6.0249-4.6377,11.8101-7.1504,17.355h-9.3594c1.3848-5.5449,2.75-11.5474,4.0947-18.0049,1.3428-6.4551,2.3604-12.1104,3.0547-16.9648h13.6504l.9102,1.5601c-1.2148,4.6797-2.9473,10.0322-5.2002,16.0547Z"/>
    <path class="cls-1" d="M299.5488,445.1v-10.3994h50.7002v10.3994h-50.7002Z"/>
    <path class="cls-1" d="M541.4492,445.1v-10.3994h87.0996v10.3994h-87.0996Z"/>
    <path class="cls-1" d="M698.4492,445.1v-10.3994h32.5v10.3994h-32.5Z"/>
    <path class="cls-1" d="M968.6289,432.6205c1.6455-1.5605,3.7705-2.3398,6.3701-2.3398s4.7227,.7793,6.3701,2.3398c1.6455,1.5596,2.4697,3.9873,2.4697,7.2803s-.8242,5.7197-2.4697,7.2793c-1.6475,1.5605-3.7695,2.3408-6.3701,2.3408s-4.7246-.7803-6.3701-2.3408c-1.6475-1.5596-2.4697-3.9854-2.4697-7.2793s.8223-5.7207,2.4697-7.2803Z"/>
    <path class="cls-1" d="M1098.3291,432.6205c1.6455-1.5605,3.77-2.3398,6.3701-2.3398s4.7227,.7793,6.3701,2.3398c1.645,1.5596,2.4697,3.9873,2.4697,7.2803s-.8247,5.7197-2.4697,7.2793c-1.6475,1.5605-3.77,2.3408-6.3701,2.3408s-4.7246-.7803-6.3701-2.3408c-1.6475-1.5596-2.4697-3.9854-2.4697-7.2793s.8223-5.7207,2.4697-7.2803Z"/>
  </g>
</svg>