<?xml version="1.0" encoding="utf-8"?>
<!-- Generator: Adobe Illustrator 23.1.0, SVG Export Plug-In . SVG Version: 6.00 Build 0)  -->
<svg version="1.1" id="图层_1" xmlns="http://www.w3.org/2000/svg" xmlns:xlink="http://www.w3.org/1999/xlink" x="0px" y="0px"
	 viewBox="0 0 2400 600" style="enable-background:new 0 0 2400 600;" xml:space="preserve">
<style type="text/css">
	.st0{fill:none;stroke:#B8D0E7;stroke-width:4;stroke-miterlimit:10;}
</style>
<rect x="130" y="114.9" class="st0" width="130" height="130"/>
<rect x="292.4" y="114.9" class="st0" width="65" height="130"/>
<rect x="390" y="115.1" class="st0" width="46" height="130"/>
<rect x="129.7" y="354.9" class="st0" width="130" height="130"/>
<rect x="292.2" y="354.9" class="st0" width="65" height="130"/>
<rect x="519.7" y="355.1" class="st0" width="130" height="130"/>
<g>
	<path d="M231.1,121.2c-2.8,11.2-4.9,21.8-6.5,31.9h-12.2l-0.8-1.4c2.8-10,6.5-20.1,11.2-30.4H231.1z M255.2,121.2
		c-2.8,11.2-4.9,21.8-6.5,31.9h-12.4l-0.9-1.4c2.8-10,6.5-20.1,11.3-30.4H255.2z"/>
</g>
<g>
	<path d="M136.1,425v-10.4h117V425H136.1z"/>
</g>
<g>
	<path d="M329.1,121.2c-2.8,11.2-4.9,21.8-6.5,31.9h-12.2l-0.8-1.4c2.8-10,6.5-20.1,11.2-30.4H329.1z M353.2,121.2
		c-2.8,11.2-4.9,21.8-6.5,31.9h-12.4l-0.9-1.4c2.8-10,6.5-20.1,11.3-30.4H353.2z"/>
</g>
<g>
	<path d="M297.8,425v-10.4h54.6V425H297.8z"/>
</g>
<g>
	<path d="M410.8,121.3c-2.8,11.1-4.9,21.7-6.5,31.9h-12.2l-0.8-1.4c2.8-10.1,6.5-20.2,11.2-30.4H410.8z M434.8,121.3
		c-2.8,11.1-4.9,21.7-6.5,31.9H416l-0.9-1.4c2.8-10.1,6.5-20.2,11.3-30.4H434.8z"/>
</g>
<g>
	<path d="M631.8,414.6V425h-94.3v-10.4H631.8z"/>
</g>
<rect x="682.2" y="355.1" class="st0" width="65" height="130"/>
<g>
	<path d="M698.8,425v-10.4h32.5V425H698.8z"/>
</g>
<rect x="909.7" y="355.1" class="st0" width="130" height="130"/>
<g>
	<path d="M965.8,419.7c0-3.5,0.8-5.9,2.5-7.3c1.7-1.4,3.7-2.1,6.2-2.1c2.4,0,4.5,0.7,6.3,2.1c1.8,1.4,2.7,3.9,2.7,7.3
		c0,3.5-0.9,6-2.7,7.5c-1.8,1.5-3.9,2.3-6.3,2.3c-2.4,0-4.5-0.8-6.2-2.3C966.6,425.7,965.8,423.2,965.8,419.7z"/>
</g>
<rect x="1072.2" y="355.1" class="st0" width="65" height="130"/>
<g>
	<path d="M1096.3,419.7c0-3.5,0.8-5.9,2.5-7.3c1.7-1.4,3.7-2.1,6.2-2.1c2.4,0,4.5,0.7,6.3,2.1c1.8,1.4,2.7,3.9,2.7,7.3
		c0,3.5-0.9,6-2.7,7.5c-1.8,1.5-3.9,2.3-6.3,2.3c-2.4,0-4.5-0.8-6.2-2.3C1097.1,425.7,1096.3,423.2,1096.3,419.7z"/>
</g>
<rect x="520" y="114.9" class="st0" width="130" height="130"/>
<rect x="682.4" y="114.9" class="st0" width="65" height="130"/>
<rect x="780" y="115.1" class="st0" width="46" height="130"/>
<g>
	<path d="M543.5,122.6c-2.8,10.1-6.5,20.3-11.2,30.4H524c2.7-10.9,4.8-21.5,6.4-31.9h12.2L543.5,122.6z M567.6,122.6
		c-2.8,10.1-6.5,20.3-11.2,30.4h-8.6c2.8-10.9,5-21.5,6.6-31.9h12.2L567.6,122.6z"/>
</g>
<g>
	<path d="M706.5,122.6c-2.8,10.1-6.5,20.3-11.2,30.4H687c2.7-10.9,4.8-21.5,6.4-31.9h12.2L706.5,122.6z M730.6,122.6
		c-2.8,10.1-6.5,20.3-11.2,30.4h-8.6c2.8-10.9,5-21.5,6.6-31.9h12.2L730.6,122.6z"/>
</g>
<g>
	<path d="M800.7,122.8c-2.8,10.1-6.5,20.3-11.2,30.4h-8.3c2.7-10.9,4.8-21.5,6.4-31.9h12.2L800.7,122.8z M824.7,122.8
		c-2.8,10.1-6.5,20.3-11.2,30.4h-8.6c2.8-10.9,5-21.5,6.6-31.9h12.2L824.7,122.8z"/>
</g>
<rect x="910" y="114.9" class="st0" width="130" height="130"/>
<rect x="1072.4" y="114.9" class="st0" width="65" height="130"/>
<rect x="1170" y="115.1" class="st0" width="23" height="130"/>
<g>
	<path d="M1015.5,151.6c2.9-10.1,6.6-20.2,11.2-30.4h8.5c-2.8,11.1-4.9,21.7-6.5,31.9h-12.3L1015.5,151.6z"/>
</g>
<g>
	<path d="M1113.5,151.6c2.9-10.1,6.6-20.2,11.2-30.4h8.5c-2.8,11.1-4.9,21.7-6.5,31.9h-12.3L1113.5,151.6z"/>
</g>
<g>
	<path d="M1171.3,151.8c2.9-10.1,6.6-20.2,11.2-30.4h8.5c-2.8,11.1-4.9,21.7-6.5,31.9h-12.3L1171.3,151.8z"/>
</g>
<rect x="1300" y="114.9" class="st0" width="130" height="130"/>
<rect x="1462.4" y="114.9" class="st0" width="65" height="130"/>
<rect x="1560" y="115.1" class="st0" width="23" height="130"/>
<g>
	<path d="M1323.6,122.6c-2.8,10.1-6.5,20.3-11.2,30.4h-8.5c2.8-10.9,4.9-21.5,6.5-31.9h12.2L1323.6,122.6z"/>
</g>
<g>
	<path d="M1486.6,122.6c-2.8,10.1-6.5,20.3-11.2,30.4h-8.5c2.8-10.9,4.9-21.5,6.5-31.9h12.2L1486.6,122.6z"/>
</g>
<g>
	<path d="M1580.8,122.8c-2.8,10.1-6.5,20.2-11.2,30.4h-8.4c2.8-10.9,4.9-21.5,6.5-31.9h12.2L1580.8,122.8z"/>
</g>
</svg>
