<?xml version="1.0" encoding="UTF-8"?>
<svg xmlns="http://www.w3.org/2000/svg" viewBox="0 0 2400 600">
  <defs>
    <style>
      .cls-1 {
        fill: #f8fdff;
      }

      .cls-2 {
        fill: #ffb3b4;
      }

      .cls-3 {
        fill: none;
        stroke: #004b71;
        stroke-miterlimit: 10;
        stroke-width: 4px;
      }
    </style>
  </defs>
  <g id="_图层_1" data-name="图层 1">
    <g>
      <rect class="cls-3" x="130" y="114.9" width="130" height="130"/>
      <rect class="cls-3" x="129.6992" y="374.8989" width="130" height="130"/>
      <rect class="cls-3" x="260" y="114.9" width="130" height="130"/>
      <rect class="cls-3" x="259.6992" y="374.8989" width="130" height="130"/>
      <rect class="cls-3" x="390" y="114.9" width="130" height="130"/>
      <rect class="cls-3" x="389.6992" y="374.8989" width="130" height="130"/>
      <rect class="cls-3" x="520" y="114.9" width="130" height="130"/>
      <rect class="cls-3" x="519.6992" y="374.8989" width="130" height="130"/>
      <rect class="cls-3" x="650" y="114.9" width="130" height="130"/>
      <rect class="cls-3" x="649.6992" y="374.8989" width="130" height="130"/>
      <rect class="cls-3" x="780" y="114.9" width="130" height="130"/>
      <rect class="cls-3" x="779.6992" y="374.8989" width="130" height="130"/>
      <path class="cls-2" d="M515.8646,341.6858v-77.873h7.6699v78.0029l36.1416-31.5913v10.0103l-39.9116,35.7515-40.0415-35.7515v-10.0103l36.1416,31.4614Z"/>
    </g>
  </g>
  <g id="_图层_2" data-name="图层 2">
    <g>
      <path class="cls-1" d="M164.1494,225.0751c-2.2549,6.0229-4.6377,11.7651-7.1504,17.2251h-9.23c3.293-13.2598,5.6753-24.96,7.1504-35.1001h13.3896l1.04,1.5601c-1.2144,4.8545-2.9473,10.2925-5.1997,16.3149Z"/>
      <path class="cls-1" d="M294.1494,225.0751c-2.2549,6.0229-4.6377,11.7651-7.1504,17.2251h-9.23c3.293-13.2598,5.6753-24.96,7.1504-35.1001h13.3896l1.04,1.5601c-1.2144,4.8545-2.9473,10.2925-5.1997,16.3149Zm-8.3203-68.0547c1.6455-1.5601,3.77-2.3403,6.3701-2.3403s4.7227,.7803,6.3701,2.3403c1.645,1.5596,2.4697,3.9873,2.4697,7.2798,0,3.2949-.8247,5.7202-2.4697,7.2798-1.6475,1.5601-3.77,2.3403-6.3701,2.3403s-4.7246-.7803-6.3701-2.3403c-1.6475-1.5596-2.4697-3.9849-2.4697-7.2798,0-3.2925,.8223-5.7202,2.4697-7.2798Z"/>
      <path class="cls-1" d="M474.7192,138.7552c2.2524-6.0229,4.6353-11.8076,7.1499-17.355h9.3599c-1.3872,5.5474-2.752,11.5498-4.0947,18.0049-1.3447,6.4575-2.3623,12.1123-3.0552,16.9648h-13.6499l-.9102-1.5601c1.2129-4.6797,2.9453-10.0303,5.2002-16.0547Zm24.0498,0c2.2529-6.0229,4.6353-11.8076,7.1504-17.355h9.3599c-1.3872,5.5474-2.7524,11.5498-4.0952,18.0049-1.3447,6.4575-2.3623,12.1123-3.0547,16.9648h-13.6504l-.9097-1.5601c1.2124-4.6797,2.9453-10.0303,5.1997-16.0547Z"/>
      <path class="cls-1" d="M628.769,138.7552c2.2529-6.0229,4.6353-11.8076,7.1504-17.355h9.3599c-1.3872,5.5474-2.7524,11.5498-4.0952,18.0049-1.3447,6.4575-2.3623,12.1123-3.0547,16.9648h-13.6504l-.9097-1.5601c1.2124-4.6797,2.9453-10.0303,5.1997-16.0547Z"/>
      <path class="cls-1" d="M670.6294,139.015c-2.2549,6.0249-4.6377,11.8101-7.1504,17.355h-9.3599c1.3853-5.5449,2.7505-11.5474,4.0952-18.0049,1.3423-6.4551,2.3604-12.1104,3.0547-16.9648h13.6504l.9097,1.5601c-1.2144,4.6797-2.9473,10.0322-5.1997,16.0547Z"/>
      <path class="cls-1" d="M800.6294,139.015c-2.2549,6.0249-4.6377,11.8101-7.1504,17.355h-9.3599c1.3853-5.5449,2.7505-11.5474,4.0952-18.0049,1.3423-6.4551,2.3604-12.1104,3.0547-16.9648h13.6504l.9097,1.5601c-1.2144,4.6797-2.9473,10.0322-5.1997,16.0547Zm24.0498,0c-2.2549,6.0249-4.6372,11.8101-7.1499,17.355h-9.3599c1.3853-5.5449,2.75-11.5474,4.0947-18.0049,1.3428-6.4551,2.3604-12.1104,3.0552-16.9648h13.6499l.9102,1.5601c-1.2148,4.6797-2.9478,10.0322-5.2002,16.0547Z"/>
    </g>
    <g>
      <path class="cls-1" d="M159.729,495.2152c2.0801-2.8174,3.1201-5.7002,3.1201-8.6455-3.0347,0-5.3745-.7793-7.02-2.3398-1.6475-1.5596-2.4697-3.7256-2.4697-6.5,0-3.293,.8223-5.7197,2.4697-7.2803,1.6455-1.5596,3.77-2.3398,6.3701-2.3398,2.7725,0,5.0698,.8896,6.8901,2.665,1.8198,1.7773,2.73,4.5723,2.73,8.3848,0,7.7148-1.7124,14.0176-5.1353,18.915-3.4243,4.8955-8.1694,7.9082-14.2349,9.0352v-6.3701c2.7725-.8672,5.2002-2.709,7.2798-5.5244Z"/>
      <path class="cls-1" d="M289.729,495.2152c2.0801-2.8174,3.1201-5.7002,3.1201-8.6455-3.0347,0-5.3745-.7793-7.02-2.3398-1.6475-1.5596-2.4697-3.7256-2.4697-6.5,0-3.293,.8223-5.7197,2.4697-7.2803,1.6455-1.5596,3.77-2.3398,6.3701-2.3398,2.7725,0,5.0698,.8896,6.8901,2.665,1.8198,1.7773,2.73,4.5723,2.73,8.3848,0,7.7148-1.7124,14.0176-5.1353,18.915-3.4243,4.8955-8.1694,7.9082-14.2349,9.0352v-6.3701c2.7725-.8672,5.2002-2.709,7.2798-5.5244Zm-3.8999-78.1953c1.6455-1.5596,3.77-2.3398,6.3701-2.3398s4.7227,.7803,6.3701,2.3398c1.645,1.5596,2.4697,3.9873,2.4697,7.2803,0,3.2949-.8247,5.7197-2.4697,7.2793-1.6475,1.5605-3.77,2.3408-6.3701,2.3408s-4.7246-.7803-6.3701-2.3408c-1.6475-1.5596-2.4697-3.9844-2.4697-7.2793,0-3.293,.8223-5.7207,2.4697-7.2803Z"/>
      <path class="cls-1" d="M483.9492,390.5004c-2.0801,1.6465-3.1201,3.5547-3.1201,5.7197,3.0327,0,5.3726,.7803,7.02,2.3398,1.6455,1.5596,2.4702,3.7275,2.4702,6.5,0,3.2949-.8247,5.7197-2.4702,7.2803-1.6475,1.5596-3.77,2.3398-6.3701,2.3398-2.7744,0-5.0698-.8877-6.8896-2.665-1.8203-1.7754-2.73-4.5703-2.73-8.3848,0-6.3252,1.6899-11.4404,5.0698-15.3398,3.3799-3.9004,8.1455-6.1953,14.2998-6.8906v6.3701c-2.7744,.1748-5.1997,1.085-7.2798,2.7305Zm24.0498,0c-2.0796,1.6465-3.1196,3.5547-3.1196,5.7197,3.0327,0,5.3726,.7803,7.02,2.3398,1.645,1.5596,2.4697,3.7275,2.4697,6.5,0,3.2949-.8247,5.7197-2.4697,7.2803-1.6475,1.5596-3.77,2.3398-6.3701,2.3398-2.7749,0-5.0703-.8877-6.8901-2.665-1.8198-1.7754-2.73-4.5703-2.73-8.3848,0-6.3252,1.6899-11.4404,5.0698-15.3398,3.3804-3.9004,8.1455-6.1953,14.3003-6.8906v6.3701c-2.7749,.1748-5.2002,1.085-7.2803,2.7305Z"/>
      <path class="cls-1" d="M637.999,390.5004c-2.0796,1.6465-3.1196,3.5547-3.1196,5.7197,3.0327,0,5.3726,.7803,7.02,2.3398,1.645,1.5596,2.4697,3.7275,2.4697,6.5,0,3.2949-.8247,5.7197-2.4697,7.2803-1.6475,1.5596-3.77,2.3398-6.3701,2.3398-2.7749,0-5.0703-.8877-6.8901-2.665-1.8198-1.7754-2.73-4.5703-2.73-8.3848,0-6.3252,1.6899-11.4404,5.0698-15.3398,3.3804-3.9004,8.1455-6.1953,14.3003-6.8906v6.3701c-2.7749,.1748-5.2002,1.085-7.2803,2.7305Z"/>
      <path class="cls-1" d="M661.3994,405.5795c2.0796-1.6445,3.1196-3.5518,3.1196-5.7197-3.0347,0-5.3745-.7803-7.02-2.3398-1.647-1.5596-2.4697-3.7256-2.4697-6.5,0-3.293,.8228-5.7197,2.4697-7.2803,1.6455-1.5596,3.77-2.3398,6.3701-2.3398,2.7729,0,5.0703,.8896,6.8901,2.665,1.8198,1.7773,2.73,4.5723,2.73,8.3848,0,6.3281-1.6899,11.4404-5.0698,15.3408-3.3804,3.8994-8.1475,6.1973-14.3003,6.8896v-6.3701c2.7729-.1729,5.2002-1.083,7.2803-2.7305Z"/>
      <path class="cls-1" d="M791.3994,405.5795c2.0796-1.6445,3.1196-3.5518,3.1196-5.7197-3.0347,0-5.3745-.7803-7.02-2.3398-1.647-1.5596-2.4697-3.7256-2.4697-6.5,0-3.293,.8228-5.7197,2.4697-7.2803,1.6455-1.5596,3.77-2.3398,6.3701-2.3398,2.7729,0,5.0703,.8896,6.8901,2.665,1.8198,1.7773,2.73,4.5723,2.73,8.3848,0,6.3281-1.6899,11.4404-5.0698,15.3408-3.3804,3.8994-8.1475,6.1973-14.3003,6.8896v-6.3701c2.7729-.1729,5.2002-1.083,7.2803-2.7305Zm24.0498,0c2.0801-1.6445,3.1201-3.5518,3.1201-5.7197-3.0347,0-5.375-.7803-7.02-2.3398-1.6475-1.5596-2.4702-3.7256-2.4702-6.5,0-3.293,.8228-5.7197,2.4702-7.2803,1.645-1.5596,3.77-2.3398,6.3701-2.3398,2.7725,0,5.0698,.8896,6.8896,2.665,1.8203,1.7773,2.73,4.5723,2.73,8.3848,0,6.3281-1.6899,11.4404-5.0698,15.3408-3.3799,3.8994-8.1475,6.1973-14.2998,6.8896v-6.3701c2.7725-.1729,5.1997-1.083,7.2798-2.7305Z"/>
    </g>
  </g>
</svg>