<?xml version="1.0" encoding="utf-8"?>
<!-- Generator: Adobe Illustrator 23.1.0, SVG Export Plug-In . SVG Version: 6.00 Build 0)  -->
<svg version="1.1" xmlns="http://www.w3.org/2000/svg" xmlns:xlink="http://www.w3.org/1999/xlink" x="0px" y="0px"
	 viewBox="0 0 2400 300" style="enable-background:new 0 0 2400 300;" xml:space="preserve">
<style type="text/css">
	.st0{fill:#FFFFFF;}
	.st1{fill:none;stroke:#B8D0E7;stroke-width:4;stroke-miterlimit:10;}
	.st2{fill:#B9474F;}
</style>
<g id="图层_2">
	<rect class="st0" width="2400" height="300"/>
</g>
<g id="图层_1">
	<g>
		<rect x="129.8" y="85" class="st1" width="130" height="130"/>
		<rect x="389.8" y="85" class="st1" width="130" height="130"/>
		<g>
			<g>
				<path class="st2" d="M348.5,170c2.7-5.5,5.2-9.7,7.5-12.5h-75.8V152H356c-2.3-2.8-4.9-6.9-7.5-12.5h4.5c5.5,6.3,11.2,11,17.2,14
					v2.3c-6,3-11.7,7.7-17.2,14h-4.5V170z"/>
			</g>
		</g>
	</g>
	<g>
		<path d="M228.5,153c0,11-1.1,20.4-3.4,28.3c-2.3,7.8-5.9,13.9-10.9,18.1c-5,4.2-11.5,6.3-19.7,6.3c-11.5,0-20-4.6-25.5-13.9
			c-5.5-9.3-8.3-22.2-8.3-38.7c0-11,1.1-20.4,3.3-28.3c2.2-7.8,5.8-13.8,10.8-18s11.5-6.2,19.7-6.2c7.6,0,14,2.1,19,6.2
			c5,4.2,8.8,10.1,11.2,17.9C227.2,132.4,228.5,141.9,228.5,153z M173.3,153c0,14,1.6,24.5,4.8,31.5c3.2,6.9,8.7,10.4,16.4,10.4
			c7.6,0,13.1-3.5,16.4-10.4c3.3-6.9,4.9-17.4,4.9-31.5c0-9.3-0.7-17-2.1-23.2c-1.4-6.2-3.7-10.8-6.9-13.9s-7.3-4.6-12.3-4.6
			c-5.2,0-9.3,1.5-12.4,4.6c-3.1,3.1-5.3,7.7-6.7,13.9C174,136,173.3,143.7,173.3,153z"/>
		<path d="M488.5,153c0,11-1.1,20.4-3.4,28.3c-2.3,7.8-5.9,13.9-10.9,18.1c-5,4.2-11.5,6.3-19.7,6.3c-11.5,0-20-4.6-25.5-13.9
			c-5.5-9.3-8.3-22.2-8.3-38.7c0-11,1.1-20.4,3.3-28.3c2.2-7.8,5.8-13.8,10.8-18s11.5-6.2,19.7-6.2c7.6,0,14,2.1,19,6.2
			c5,4.2,8.8,10.1,11.2,17.9C487.2,132.4,488.5,141.9,488.5,153z M434.4,179.9l-8.1-8.1l47.2-47.2l8.1,8.1L434.4,179.9z M433.3,153
			c0,14,1.6,24.5,4.8,31.5c3.2,6.9,8.7,10.4,16.4,10.4c7.6,0,13.1-3.5,16.4-10.4s4.9-17.4,4.9-31.5c0-9.3-0.7-17-2.1-23.2
			s-3.7-10.8-6.9-13.9c-3.2-3.1-7.3-4.6-12.3-4.6c-5.2,0-9.3,1.5-12.4,4.6s-5.3,7.7-6.7,13.9C434,136,433.3,143.7,433.3,153z"/>
	</g>
</g>
</svg>
