<?xml version="1.0" encoding="UTF-8"?>
<svg xmlns="http://www.w3.org/2000/svg" viewBox="0 0 2400 300">
  <defs>
    <style>
      .cls-1 {
        fill: #f8fdff;
      }

      .cls-2 {
        fill: #ffb3b4;
      }

      .cls-3 {
        fill: none;
        stroke: #004b71;
        stroke-miterlimit: 10;
        stroke-width: 4px;
      }
    </style>
  </defs>
  <g id="_图层_1" data-name="图层 1">
    <g>
      <rect class="cls-3" x="129.6992" y="84.9997" width="130" height="130"/>
      <rect class="cls-3" x="389.6992" y="84.9997" width="130" height="130"/>
      <path class="cls-2" d="M356.4856,153.8346h-77.873v-7.6699h78.0029l-31.5913-36.1416h10.0103l35.7515,39.9116-35.7515,40.0415h-10.0103l31.4614-36.1416Z"/>
    </g>
  </g>
  <g id="_图层_2" data-name="图层 2">
    <g>
      <path class="cls-1" d="M220.5044,192.3158c-5.4175,8.9697-14.0625,13.4551-25.9351,13.4551-11.2676,0-19.7173-4.5508-25.3501-13.6504-5.6348-9.0996-8.4502-22.0996-8.4502-39,0-17.1597,2.665-30.2021,7.9951-39.1299,5.3301-8.9253,13.9302-13.3896,25.8052-13.3896,11.2651,0,19.7598,4.5498,25.48,13.6499,5.7197,9.1001,8.5801,22.0571,8.5801,38.8696,0,17.1602-2.71,30.2246-8.125,39.1953Zm-42.1851-7.4756c3.2925,6.7607,8.71,10.1406,16.25,10.1406s12.9775-3.3799,16.3149-10.1406c3.3354-6.7598,5.0049-17.332,5.0049-31.7197,0-14.2124-1.6694-24.7202-5.0049-31.5249-3.3374-6.8022-8.7749-10.2046-16.3149-10.2046s-12.9575,3.3799-16.25,10.1396c-3.2949,6.7603-4.9399,17.29-4.9399,31.5898,0,14.3877,1.645,24.96,4.9399,31.7197Z"/>
      <path class="cls-1" d="M480.5044,192.3158c-5.4175,8.9697-14.0625,13.4551-25.9351,13.4551-11.2676,0-19.7173-4.5508-25.3501-13.6504-5.6348-9.0996-8.4502-22.0996-8.4502-39,0-17.1597,2.665-30.2021,7.9951-39.1299,5.3301-8.9253,13.9302-13.3896,25.8052-13.3896,11.2651,0,19.7598,4.5498,25.48,13.6499,5.7197,9.1001,8.5801,22.0571,8.5801,38.8696,0,17.1602-2.71,30.2246-8.125,39.1953Zm-53.3652-20.3457l47.1899-47.1895,7.9302,8.0601-47.1899,47.1899-7.9302-8.0605Zm11.1802,12.8701c3.2925,6.7607,8.71,10.1406,16.25,10.1406s12.9775-3.3799,16.3149-10.1406c3.3354-6.7598,5.0049-17.332,5.0049-31.7197,0-14.2124-1.6694-24.7202-5.0049-31.5249-3.3374-6.8022-8.7749-10.2046-16.3149-10.2046s-12.9575,3.3799-16.25,10.1396c-3.2949,6.7603-4.9399,17.29-4.9399,31.5898,0,14.3877,1.645,24.96,4.9399,31.7197Z"/>
    </g>
  </g>
</svg>